<?xml version="1.0" standalone="no"?>
<!DOCTYPE svg PUBLIC "-//W3C//DTD SVG 20010904//EN"
 "http://www.w3.org/TR/2001/REC-SVG-20010904/DTD/svg10.dtd">
<svg version="1.0" xmlns="http://www.w3.org/2000/svg"
 width="3876.000000pt" height="3876.000000pt" viewBox="0 0 3876.000000 3876.000000"
 preserveAspectRatio="xMidYMid meet">
<metadata>
Created by potrace 1.14, written by Peter Selinger 2001-2017
</metadata>
<g transform="translate(0.000000,3876.000000) scale(0.100000,-0.100000)"
fill="#000000" stroke="none">
<path d="M19148 38755 c-2 -2 -52 -6 -113 -10 -106 -6 -149 -9 -280 -21 -109
-9 -214 -21 -310 -35 -38 -6 -88 -13 -110 -15 -37 -4 -115 -17 -175 -29 -13
-3 -42 -7 -65 -11 -22 -3 -70 -12 -107 -20 -37 -7 -82 -16 -100 -19 -104 -19
-413 -95 -603 -150 -327 -95 -727 -234 -970 -339 -33 -15 -170 -75 -285 -127
-189 -84 -632 -314 -810 -419 -30 -18 -68 -41 -85 -50 -61 -35 -270 -163 -339
-207 -124 -80 -241 -158 -246 -164 -3 -3 -14 -11 -26 -17 -70 -37 -626 -448
-819 -605 -33 -27 -78 -64 -100 -82 -86 -70 -238 -197 -250 -208 -7 -7 -31
-28 -55 -47 -24 -19 -48 -40 -54 -45 -6 -6 -51 -46 -101 -90 -112 -98 -142
-126 -399 -365 -129 -120 -629 -621 -781 -784 -77 -82 -149 -159 -160 -170
-47 -51 -198 -219 -279 -311 -49 -55 -102 -116 -120 -135 -81 -89 -310 -360
-545 -645 -252 -305 -625 -790 -1001 -1300 -73 -98 -324 -451 -356 -500 -19
-27 -54 -78 -79 -113 -95 -132 -490 -720 -638 -949 -114 -178 -143 -222 -289
-453 -85 -135 -175 -278 -199 -318 -24 -40 -51 -84 -59 -97 -8 -13 -90 -149
-182 -302 -155 -259 -204 -342 -248 -418 -10 -16 -56 -97 -104 -178 -47 -82
-86 -152 -86 -158 0 -5 -4 -9 -10 -9 -5 0 -10 -4 -10 -9 0 -5 -23 -48 -50 -96
-28 -48 -50 -88 -50 -90 0 -1 -31 -56 -68 -121 -38 -66 -87 -153 -109 -194
-22 -41 -68 -127 -103 -190 -34 -63 -75 -137 -90 -165 -40 -73 -178 -333 -245
-460 -90 -171 -454 -896 -517 -1030 -31 -66 -81 -172 -111 -235 -111 -235
-170 -362 -172 -370 0 -3 -10 -25 -22 -50 -11 -25 -81 -180 -156 -345 -74
-165 -148 -329 -165 -365 -16 -36 -42 -92 -57 -125 -15 -33 -47 -105 -72 -160
-63 -140 -69 -153 -183 -405 -56 -124 -136 -301 -177 -395 -42 -93 -86 -192
-98 -220 -234 -516 -726 -1731 -806 -1985 -4 -14 -28 -81 -54 -150 -25 -69
-48 -132 -50 -140 -2 -8 -46 -139 -98 -290 -52 -151 -95 -278 -96 -282 -1 -4
-3 -13 -6 -20 -2 -7 -27 -87 -55 -178 -28 -91 -58 -187 -67 -215 -30 -99 -111
-372 -138 -470 -15 -55 -31 -111 -36 -125 -7 -21 -82 -298 -95 -350 -2 -8 -33
-130 -69 -270 -104 -404 -240 -987 -271 -1154 -2 -16 -7 -32 -9 -36 -2 -4 -7
-22 -10 -41 -3 -19 -8 -41 -10 -49 -2 -8 -7 -31 -10 -50 -3 -19 -10 -51 -15
-70 -5 -19 -11 -48 -14 -65 -2 -16 -14 -74 -25 -129 -12 -54 -23 -108 -25
-120 -18 -89 -27 -136 -32 -165 -3 -18 -8 -43 -10 -55 -3 -11 -9 -43 -14 -71
-6 -27 -12 -61 -15 -75 -3 -14 -8 -38 -10 -55 -3 -16 -15 -77 -26 -135 -11
-58 -22 -121 -25 -140 -2 -19 -6 -42 -9 -50 -2 -8 -16 -80 -30 -160 -14 -80
-27 -156 -30 -170 -5 -26 -50 -306 -60 -375 -4 -22 -13 -80 -20 -130 -14 -92
-19 -130 -30 -224 -4 -30 -8 -61 -10 -70 -1 -9 -6 -43 -9 -76 -4 -33 -9 -76
-11 -95 -12 -102 -36 -345 -41 -415 -3 -44 -7 -96 -9 -115 -7 -70 -17 -249
-31 -525 -16 -331 -9 -1305 11 -1535 2 -25 6 -92 10 -150 3 -58 8 -121 10
-140 2 -19 6 -75 9 -125 4 -49 8 -108 11 -130 2 -22 7 -67 10 -100 5 -56 9
-89 20 -190 3 -22 7 -67 10 -100 6 -59 11 -94 20 -145 2 -14 7 -52 10 -85 3
-33 12 -100 20 -150 7 -49 16 -110 20 -135 3 -25 10 -70 15 -100 5 -30 12 -68
14 -85 14 -83 18 -109 37 -215 34 -196 75 -413 94 -495 8 -33 26 -114 41 -180
14 -66 42 -185 61 -265 19 -80 36 -152 38 -160 14 -58 90 -341 116 -430 86
-295 113 -385 189 -615 87 -264 257 -733 305 -840 7 -16 28 -66 45 -110 130
-328 474 -1075 522 -1133 7 -8 12 -17 10 -19 -4 -5 79 -166 186 -358 24 -44
59 -107 77 -140 29 -53 200 -345 244 -417 267 -437 643 -983 908 -1318 24 -30
47 -59 51 -65 33 -43 296 -365 314 -385 13 -14 43 -50 68 -80 24 -30 52 -62
60 -70 8 -8 28 -31 44 -50 16 -19 67 -77 115 -129 47 -52 111 -122 141 -155
273 -300 777 -789 1084 -1051 32 -27 68 -59 80 -70 113 -107 736 -600 965
-763 13 -9 47 -35 76 -57 30 -22 142 -103 251 -180 185 -131 220 -156 268
-187 11 -7 29 -21 40 -30 11 -10 25 -18 32 -18 7 0 14 -4 16 -8 2 -4 73 -54
158 -110 85 -56 160 -106 167 -112 7 -5 15 -10 18 -10 3 0 42 -24 88 -54 509
-332 1211 -700 1822 -955 11 -5 31 -13 45 -19 53 -23 108 -45 181 -71 l76 -28
1 8966 c0 4931 1 8977 1 8991 l1 25 7375 -1 c4056 0 7377 -3 7381 -7 4 -4 7
-4050 7 -8991 l0 -8984 76 28 c129 48 507 207 556 233 11 6 22 11 25 12 31 2
796 393 890 455 8 6 22 13 30 17 36 16 389 228 570 342 129 81 499 328 605
402 275 195 331 234 335 239 3 3 28 22 55 41 28 18 52 36 55 39 3 3 86 66 185
140 178 133 405 308 415 319 3 4 36 30 74 60 38 29 78 61 90 71 11 10 71 60
131 111 61 50 137 116 170 145 33 29 71 62 85 74 174 148 503 463 760 725 191
195 251 259 400 425 41 46 82 91 90 100 57 61 276 320 355 420 33 41 65 80 70
86 43 47 387 501 480 634 21 30 61 87 88 125 108 155 269 400 372 565 59 96
116 186 125 200 18 27 216 369 267 460 33 60 73 134 148 275 51 94 275 542
275 549 0 2 24 55 54 117 72 154 96 206 146 324 23 55 50 118 60 140 120 276
372 950 432 1155 6 19 28 88 49 153 85 258 261 908 324 1194 90 410 81 369 95
443 6 30 12 66 15 80 14 67 55 293 65 355 14 91 19 119 30 185 10 59 18 114
25 176 3 22 7 50 10 64 2 14 7 45 10 70 4 25 8 56 10 70 4 27 13 100 20 164 3
21 7 55 9 75 6 46 14 121 21 191 3 30 8 73 10 95 2 22 7 69 10 105 5 62 8 96
19 235 3 33 8 110 12 170 4 61 8 126 9 145 26 330 26 1347 0 1740 -2 30 -6
102 -10 160 -3 58 -8 128 -10 155 -3 28 -7 82 -10 120 -3 39 -8 86 -10 105 -2
19 -7 64 -10 100 -7 73 -14 150 -20 195 -2 17 -6 55 -9 85 -4 30 -11 87 -16
125 -6 39 -12 90 -15 115 -5 49 -15 119 -29 208 -3 15 -8 47 -11 72 -4 25 -20
124 -36 220 -16 96 -32 190 -35 209 -3 18 -8 43 -10 55 -2 11 -6 35 -9 51 -11
65 -27 154 -74 405 -22 118 -42 229 -45 245 -3 17 -8 41 -11 55 -3 14 -12 59
-20 100 -8 41 -17 86 -20 100 -3 14 -10 48 -15 75 -22 109 -73 352 -111 530
-17 77 -33 147 -34 155 -2 8 -13 58 -25 110 -12 52 -26 113 -31 135 -4 22 -26
117 -49 210 -23 94 -43 177 -45 185 -9 46 -117 470 -126 496 -5 17 -11 40 -13
51 -17 87 -218 792 -316 1108 -89 287 -289 888 -319 960 -5 11 -19 49 -31 85
-19 55 -65 181 -205 555 -102 273 -424 1052 -567 1375 -11 25 -26 59 -33 75
-80 183 -301 677 -387 865 -17 36 -50 110 -75 165 -25 55 -56 124 -69 153 -58
127 -76 166 -144 317 -39 88 -80 178 -90 200 -73 159 -90 196 -90 199 0 3 -15
37 -34 78 -19 40 -46 100 -61 133 -63 141 -130 286 -171 373 -24 50 -65 136
-90 190 -127 269 -481 971 -646 1282 -28 52 -69 129 -91 170 -40 75 -202 374
-249 460 -14 25 -40 72 -58 105 -18 33 -36 65 -40 70 -8 10 -36 60 -98 175
-19 36 -38 70 -42 75 -4 6 -20 33 -35 60 -15 28 -98 171 -184 318 -86 147
-164 282 -175 300 -10 18 -48 82 -85 142 -36 61 -70 118 -76 127 -44 74 -69
114 -113 186 -29 46 -52 85 -52 88 0 2 -16 27 -35 54 -19 27 -35 52 -35 55 0
4 -64 108 -155 250 -18 28 -81 127 -140 220 -203 320 -633 967 -795 1195 -6 8
-52 74 -103 146 -129 183 -317 447 -334 469 -10 12 -100 134 -167 225 -26 36
-53 72 -59 80 -7 8 -23 31 -37 50 -14 19 -30 42 -37 50 -6 8 -83 107 -169 220
-197 257 -218 284 -224 290 -3 3 -39 48 -80 100 -41 52 -80 102 -87 110 -50
62 -223 274 -254 310 -20 25 -67 81 -104 125 -94 112 -276 326 -300 351 -5 6
-35 40 -65 74 -30 35 -59 68 -65 74 -8 9 -76 84 -190 212 -19 22 -221 239
-295 319 -125 133 -666 673 -805 801 -186 174 -176 164 -345 313 -85 75 -168
148 -185 162 -16 15 -91 77 -165 139 -74 61 -144 119 -155 128 -11 10 -60 49
-110 87 -49 38 -92 72 -95 75 -7 8 -344 259 -390 290 -19 14 -39 28 -45 33
-24 19 -137 98 -230 160 -55 37 -104 70 -110 75 -23 18 -320 205 -440 277
-720 431 -1475 763 -2205 970 -139 39 -216 60 -260 71 -68 16 -371 85 -395 89
-16 2 -64 11 -105 19 -80 16 -299 52 -365 60 -197 25 -246 31 -350 40 -112 10
-194 17 -260 22 -75 6 -592 13 -597 9z"/>
<path d="M13436 10128 c1 -3445 3 -6792 3 -7438 1 -646 0 -1514 -2 -1928 -1
-414 -1 -755 1 -757 2 -2 94 28 205 67 111 38 261 89 332 113 165 56 285 97
670 230 171 59 330 114 355 122 25 8 52 17 60 20 50 18 495 171 595 204 66 22
129 44 140 49 11 5 83 30 160 56 372 126 873 298 1000 343 50 18 97 34 105 36
17 5 305 104 305 106 0 0 7 2 15 4 8 1 98 32 200 68 102 35 241 84 310 107
295 101 421 144 685 235 154 53 363 125 465 160 102 34 219 75 260 89 41 14
76 26 78 26 1 0 2 2803 2 6229 l0 6229 -147 47 c-82 26 -177 56 -213 67 -36
11 -74 23 -85 28 -11 5 -51 18 -90 30 -38 12 -173 54 -300 95 -126 40 -387
124 -580 185 -742 237 -1075 343 -1205 385 -74 24 -229 73 -345 110 -115 36
-264 84 -330 105 -304 97 -981 314 -1177 376 -138 44 -276 88 -513 164 -104
33 -197 63 -205 65 -8 2 -16 4 -17 5 -2 2 -6 3 -10 4 -9 2 -235 74 -522 167
-101 32 -189 59 -195 59 -9 0 -11 -1501 -10 -6262z"/>
</g>
</svg>
