<svg width="31" height="31" viewBox="0 0 31 31" fill="none" xmlns="http://www.w3.org/2000/svg">
<g clip-path="url(#clip0_6328_3616)">
<path d="M20.4752 5.10745C22.3115 6.02103 23.8735 7.40399 25.0028 9.11607C28.5642 14.497 27.0892 21.7457 21.7082 25.307C16.3273 28.8683 9.07863 27.3933 5.51731 22.0124C1.95598 16.6315 3.43098 9.38279 8.81191 5.82147C10.5861 4.64725 12.5651 4.01974 14.5461 3.90096" stroke="#334155" stroke-linecap="round"/>
<path d="M20.6714 7.22053C20.7403 7.19631 20.7967 7.14573 20.8283 7.0799C20.8599 7.01408 20.8641 6.93841 20.8399 6.86952L20.2007 5.05111L22.0192 4.41201C22.0868 4.38689 22.142 4.33619 22.1726 4.27083C22.2033 4.20548 22.2071 4.13069 22.1831 4.06258C22.1592 3.99447 22.1095 3.93848 22.0446 3.90668C21.9798 3.87488 21.9051 3.86981 21.8366 3.89257L19.7585 4.62295C19.6896 4.64717 19.6332 4.69775 19.6016 4.76357C19.57 4.8294 19.5658 4.90507 19.59 4.97395L20.3204 7.05209C20.3446 7.12096 20.3952 7.1774 20.461 7.20899C20.5269 7.24057 20.6025 7.24473 20.6714 7.22053Z" fill="#334155"/>
<path d="M23.6725 15.573C23.6715 14.828 23.4505 14.0998 23.0372 13.4798C22.6239 12.8599 22.0368 12.3758 21.3494 12.0884L21.3494 11.798C21.3489 11.0693 21.0992 10.3627 20.6419 9.79544C20.1846 9.22815 19.547 8.83428 18.8351 8.67917C18.1231 8.52406 17.3795 8.61704 16.7276 8.94268C16.0758 9.26833 15.5548 9.80706 15.2513 10.4695C14.9477 9.80706 14.4268 9.26833 13.7749 8.94268C13.1231 8.61704 12.3794 8.52406 11.6675 8.67917C10.9555 8.83428 10.318 9.22815 9.86062 9.79544C9.40329 10.3627 9.15367 11.0693 9.15317 11.798L9.15317 12.0884C8.46521 12.375 7.8775 12.8589 7.46409 13.479C7.05068 14.0991 6.83008 14.8277 6.83008 15.573C6.83008 16.3183 7.05068 17.0469 7.46409 17.667C7.8775 18.2871 8.46521 18.771 9.15317 19.0577L9.15317 19.348C9.15367 20.0767 9.40329 20.7833 9.86062 21.3506C10.318 21.9179 10.9555 22.3118 11.6675 22.4669C12.3794 22.622 13.1231 22.529 13.7749 22.2034C14.4268 21.8777 14.9477 21.339 15.2513 20.6766C15.5548 21.339 16.0758 21.8777 16.7276 22.2034C17.3795 22.529 18.1231 22.622 18.8351 22.4669C19.547 22.3118 20.1846 21.9179 20.6419 21.3506C21.0992 20.7833 21.3489 20.0767 21.3494 19.348L21.3494 19.0577C22.0369 18.7704 22.6243 18.2864 23.0376 17.6665C23.4509 17.0465 23.6718 16.3182 23.6725 15.573ZM12.3474 21.9615C11.6543 21.9615 10.9895 21.6862 10.4994 21.196C10.0093 20.7059 9.73394 20.0412 9.73394 19.348L9.73394 19.2457C10.0194 19.3134 10.3117 19.3478 10.6051 19.348L11.1859 19.348C11.2629 19.348 11.3367 19.3174 11.3912 19.263C11.4457 19.2085 11.4763 19.1347 11.4763 19.0577C11.4763 18.9806 11.4457 18.9068 11.3912 18.8523C11.3367 18.7979 11.2629 18.7673 11.1859 18.7673L10.6051 18.7673C9.85097 18.7681 9.12086 18.5021 8.544 18.0164C7.96715 17.5306 7.58076 16.8565 7.45323 16.1132C7.3257 15.3699 7.46526 14.6055 7.8472 13.9553C8.22914 13.305 8.82882 12.8108 9.5401 12.5603C9.59675 12.5403 9.64581 12.5033 9.68053 12.4542C9.71524 12.4052 9.7339 12.3466 9.73394 12.2866L9.73394 11.798C9.73394 11.1049 10.0093 10.4401 10.4994 9.95C10.9895 9.45988 11.6543 9.18453 12.3474 9.18453C13.0405 9.18453 13.7053 9.45988 14.1954 9.95C14.6855 10.4401 14.9609 11.1049 14.9609 11.798L14.9609 17.515C14.6665 17.0949 14.2754 16.7519 13.8205 16.515C13.3656 16.2781 12.8603 16.1542 12.3474 16.1538C12.2704 16.1538 12.1965 16.1844 12.1421 16.2388C12.0876 16.2933 12.057 16.3672 12.057 16.4442C12.057 16.5212 12.0876 16.5951 12.1421 16.6495C12.1965 16.704 12.2704 16.7346 12.3474 16.7346C13.0405 16.7346 13.7053 17.0099 14.1954 17.5C14.6855 17.9902 14.9609 18.6549 14.9609 19.348C14.9609 20.0412 14.6855 20.7059 14.1954 21.196C13.7053 21.6862 13.0405 21.9615 12.3474 21.9615ZM19.8974 18.7673L19.3167 18.7673C19.2397 18.7673 19.1658 18.7979 19.1113 18.8523C19.0569 18.9068 19.0263 18.9806 19.0263 19.0577C19.0263 19.1347 19.0569 19.2085 19.1113 19.263C19.1658 19.3174 19.2397 19.348 19.3167 19.348L19.8974 19.348C20.1908 19.3478 20.4832 19.3134 20.7686 19.2457L20.7686 19.348C20.7686 19.8649 20.6153 20.3702 20.3282 20.8C20.041 21.2298 19.6328 21.5648 19.1553 21.7626C18.6777 21.9604 18.1522 22.0121 17.6453 21.9113C17.1383 21.8105 16.6726 21.5615 16.3071 21.196C15.9416 20.8305 15.6927 20.3649 15.5919 19.8579C15.491 19.3509 15.5428 18.8255 15.7406 18.3479C15.9384 17.8704 16.2734 17.4622 16.7032 17.175C17.1329 16.8878 17.6382 16.7346 18.1551 16.7346C18.2321 16.7346 18.306 16.704 18.3605 16.6495C18.4149 16.5951 18.4455 16.5212 18.4455 16.4442C18.4455 16.3672 18.4149 16.2933 18.3605 16.2388C18.306 16.1844 18.2321 16.1538 18.1551 16.1538C17.6422 16.1542 17.137 16.2781 16.6821 16.515C16.2272 16.7519 15.836 17.0949 15.5417 17.515L15.5417 11.798C15.5417 11.1049 15.817 10.4401 16.3071 9.95C16.7972 9.45988 17.462 9.18453 18.1551 9.18453C18.8483 9.18453 19.513 9.45988 20.0031 9.95C20.4933 10.4401 20.7686 11.1049 20.7686 11.798L20.7686 12.2866C20.7686 12.3466 20.7873 12.4052 20.822 12.4542C20.8567 12.5033 20.9058 12.5403 20.9624 12.5603C21.6737 12.8108 22.2734 13.305 22.6553 13.9553C23.0373 14.6055 23.1768 15.3699 23.0493 16.1132C22.9218 16.8565 22.5354 17.5306 21.9585 18.0164C21.3817 18.5021 20.6516 18.7681 19.8974 18.7673ZM20.7686 14.7019C20.7686 14.7789 20.738 14.8527 20.6835 14.9072C20.6291 14.9617 20.5552 14.9923 20.4782 14.9923L20.1878 14.9923C19.5717 14.9923 18.9808 14.7475 18.5452 14.3118C18.1095 13.8762 17.8647 13.2853 17.8647 12.6692L17.8647 12.3788C17.8647 12.3018 17.8953 12.2279 17.9498 12.1734C18.0043 12.119 18.0781 12.0884 18.1551 12.0884C18.2321 12.0884 18.306 12.119 18.3605 12.1734C18.4149 12.2279 18.4455 12.3018 18.4455 12.3788L18.4455 12.6692C18.4455 13.1313 18.6291 13.5744 18.9558 13.9012C19.2826 14.2279 19.7257 14.4115 20.1878 14.4115L20.4782 14.4115C20.5552 14.4115 20.6291 14.4421 20.6835 14.4965C20.738 14.551 20.7686 14.6249 20.7686 14.7019ZM12.6378 12.6692C12.6378 13.2853 12.393 13.8762 11.9574 14.3118C11.5217 14.7475 10.9308 14.9923 10.3147 14.9923L10.0243 14.9923C9.94731 14.9923 9.87345 14.9617 9.81899 14.9072C9.76453 14.8527 9.73394 14.7789 9.73394 14.7019C9.73394 14.6249 9.76453 14.551 9.81899 14.4965C9.87345 14.4421 9.94731 14.4115 10.0243 14.4115L10.3147 14.4115C10.7768 14.4115 11.22 14.2279 11.5467 13.9012C11.8735 13.5744 12.057 13.1313 12.057 12.6692L12.057 12.3788C12.057 12.3018 12.0876 12.2279 12.1421 12.1734C12.1965 12.119 12.2704 12.0884 12.3474 12.0884C12.4244 12.0884 12.4983 12.119 12.5527 12.1734C12.6072 12.2279 12.6378 12.3018 12.6378 12.3788L12.6378 12.6692Z" fill="#334155"/>
</g>
<defs>
<clipPath id="clip0_6328_3616">
<rect width="31" height="31" fill="white"/>
</clipPath>
</defs>
</svg>
