<?xml version="1.0" encoding="UTF-8"?><svg xmlns="http://www.w3.org/2000/svg" viewBox="0 0 500 500"><g id="uuid-4097f9a6-8255-4b76-b269-452d80b10476"><g><path d="m313.57,164.01c-2.02.17-4.12.21-6.23.14-.72-.15-1.47-.21-2.24-.14-.08,0-.15,0-.23.01-5.82-.4-11.79-1.52-17.33-3.13-.58-.17-1.18-.36-1.79-.57l-4.87,125.87,32.49-21.67c2.98-1.98,4.83-5.27,4.97-8.77l3.25-84.15c.17-4.49-3.54-7.95-8.02-7.57Z" style="opacity:.2;"/><g><g><path d="m305.74,154.61c-2.02.17-4.11.21-6.24.14-.71-.15-1.46-.21-2.24-.14-.08,0-.16,0-.23.01-5.81-.39-11.79-1.52-17.33-3.13-6.09-1.77-14.01-5.99-19.13-10.84-1.37-1.3-3.16-1.95-4.97-1.96h0s-8.47,0-8.47,0h0c-1.82,0-3.67.65-5.15,1.96-5.48,4.85-13.72,9.06-19.94,10.84-5.66,1.61-11.73,2.74-17.57,3.13-.08,0-.16,0-.23-.01-.77-.06-1.52,0-2.25.14-2.13.06-4.21.02-6.23-.14-4.45-.37-8.43,3.09-8.6,7.58l-3.25,84.15c-.14,3.51,1.47,6.79,4.28,8.77l47.15,33.16c1.76,1.24,3.84,1.86,5.93,1.86h8.47c2.1,0,4.22-.62,6.08-1.86l49.71-33.16c2.97-1.98,4.83-5.26,4.96-8.77l3.25-84.15c.17-4.48-3.54-7.95-8.02-7.58Z" style="fill:#5f9e85;"/><path d="m305.74,154.61c-2.02.17-4.11.21-6.24.14-.71-.15-1.46-.21-2.24-.14-.08,0-.16,0-.23.01-5.81-.39-11.79-1.52-17.33-3.13-6.09-1.77-14.01-5.99-19.13-10.84-1.37-1.3-3.16-1.95-4.97-1.96h0s-8.47,0-8.47,0h0c-1.82,0-3.67.65-5.15,1.96-5.48,4.85-13.72,9.06-19.94,10.84-5.66,1.61-11.73,2.74-17.57,3.13-.08,0-.16,0-.23-.01-.77-.06-1.52,0-2.25.14-2.13.06-4.21.02-6.23-.14-4.45-.37-8.43,3.09-8.6,7.58l-3.25,84.15c-.14,3.51,1.47,6.79,4.28,8.77l47.15,33.16c1.76,1.24,3.84,1.86,5.93,1.86h8.47c2.1,0,4.22-.62,6.08-1.86l49.71-33.16c2.97-1.98,4.83-5.26,4.96-8.77l3.25-84.15c.17-4.48-3.54-7.95-8.02-7.58Z" style="fill:#fff; opacity:.8;"/></g><path d="m189.34,246.19l3.11-80.47c.12-3.04,2.68-5.51,5.72-5.5h1.79c7.25,0,15.33-1.21,23.38-3.5,5.83-1.66,13.76-5.37,20-10.23,2.11-1.65,4.99-1.65,6.97,0,5.86,4.87,13.51,8.57,19.23,10.24,7.87,2.29,15.86,3.5,23.1,3.5h1.69c3.1,0,5.51,2.51,5.39,5.61l-3.11,80.37c-.07,1.82-1.03,3.52-2.57,4.54l-49.4,32.96c-1.92,1.28-4.4,1.28-6.22,0l-46.86-32.96c-1.46-1.03-2.29-2.73-2.22-4.54Z" style="fill:#5f9e85;"/><path d="m203.07,241.94l2.64-68.41c6.74-.5,13.85-1.79,20.89-3.79,5.38-1.53,12.74-4.6,19.68-9.06,6.61,4.45,13.74,7.52,19,9.06,6.88,2,13.89,3.29,20.59,3.79l-2.64,68.41-41.14,27.44-39.02-27.44Z" style="fill:#7ab376;"/><path d="m216.9,234.79l1.91-49.41c3.66-.69,7.35-1.57,11.03-2.61,5.08-1.45,10.58-3.67,15.83-6.38,5.05,2.7,10.37,4.93,15.35,6.38,3.6,1.05,7.22,1.92,10.83,2.61l-1.91,49.41-27.22,18.16-25.82-18.16Z" style="fill:#fff; opacity:.2;"/></g></g></g><g id="uuid-6c22a069-7b51-4605-91b4-df58ef059003"><g><path d="m403.64,359.66h-114.52c-6.1,0-10.89-4.99-10.66-11.08l8.4-217.41c.24-6.1,5.42-11.08,11.51-11.08h114.52c6.1,0,10.89,4.99,10.66,11.08l-8.4,217.41c-.24,6.1-5.42,11.08-11.51,11.08Z" style="fill:#5f9e85;"/><rect x="414.69" y="212.97" width="17.98" height="1.1" transform="translate(193.84 628.57) rotate(-87.77)" style="fill:#5f9e85;"/><rect x="420.71" y="193.69" width="7.43" height="1.1" transform="translate(213.78 610.77) rotate(-87.76)" style="fill:#5f9e85;"/><path d="m403.64,359.66h-114.52c-6.1,0-10.89-4.99-10.66-11.08l8.4-217.41c.24-6.1,5.42-11.08,11.51-11.08h114.52c6.1,0,10.89,4.99,10.66,11.08l-8.4,217.41c-.24,6.1-5.42,11.08-11.51,11.08Z" style="fill:#fff; opacity:.8;"/><path d="m392.68,355.25h-101.02c-5.35,0-9.55-4.37-9.34-9.72l7.87-203.6c.21-5.35,4.75-9.72,10.1-9.72h101.02c5.35,0,9.55,4.37,9.34,9.72l-7.87,203.6c-.21,5.35-4.75,9.72-10.1,9.72Z" style="fill:#5f9e85;"/><ellipse cx="342.8" cy="339.05" rx="6.78" ry="6.52" transform="translate(-139.35 337.09) rotate(-44.45)" style="fill:#fff; opacity:.8;"/><g><path d="m344.59,292.75h0c-22.66,0-40.38-18.44-39.51-41.1l1.36-35.05s-.05,0-.07,0c-.42,0-.81-.04-1.18-.1l-1.36,35.15c-.9,23.35,17.36,42.35,40.71,42.35,11.97,0,22.98-5,31-13.01-.3-.29-.55-.62-.77-.96-7.79,7.83-18.52,12.72-30.18,12.72Z" style="fill:#fff;"/><path d="m349.43,167.44c-21.43,0-39.8,16.01-43.38,36.69.26-.03.52-.05.79-.05.16,0,.32.01.47.02,3.55-19.98,21.33-35.42,42.07-35.42,22.66,0,40.38,18.44,39.51,41.1l-1.62,41.86c-.26,6.71-2.13,13.05-5.21,18.65.41.13.79.3,1.13.5,3.15-5.75,5.07-12.26,5.33-19.15l1.62-41.86c.9-23.35-17.36-42.35-40.71-42.35Z" style="fill:#fff;"/><path d="m349.1,176.03c7.08,0,13.6,2.05,19.05,5.57.18-.39.39-.76.64-1.1-5.62-3.62-12.35-5.72-19.64-5.72-8.11,0-15.72,2.6-22.02,6.99.22.35.4.73.54,1.12,6.12-4.31,13.53-6.86,21.43-6.86Z" style="fill:#fff;"/><path d="m310.4,255.67c-.3-2.1-.43-4.26-.34-6.47l1.43-36.96c.3-7.85,3.1-15.11,7.59-21.05-.38-.18-.73-.41-1.04-.67-4.61,6.13-7.49,13.62-7.8,21.71l-1.43,36.96c-.09,2.31.04,4.57.36,6.77.4-.14.81-.24,1.23-.3Z" style="fill:#fff;"/><path d="m377.77,188.77c-.29.31-.62.58-.98.82,4.75,6.21,7.45,14.08,7.11,22.65l-1.43,36.96c-.77,19.97-17.64,36.21-37.61,36.21h0c-8.09,0-15.46-2.67-21.32-7.17-.37.28-.76.52-1.16.7,6.12,4.83,13.89,7.72,22.44,7.72,20.66,0,38.11-16.81,38.91-37.46l1.43-36.96c.34-8.88-2.45-17.04-7.39-23.47Z" style="fill:#fff;"/><path d="m315.81,226.91l.47-12.22c.67-17.27,15.26-31.32,32.53-31.32,15.01,0,27.17,10.61,29.66,24.72.39-.07.8-.11,1.24-.11,0,0,.02,0,.03,0-2.53-14.75-15.21-25.86-30.88-25.86-17.96,0-33.14,14.61-33.83,32.57l-.47,12.26c.28-.03.57-.06.87-.06.13,0,.26.01.39.02Z" style="fill:#fff;"/><path d="m358.19,275.26c-4.01,1.8-8.43,2.8-13.04,2.8-17.27,0-30.78-14.05-30.11-31.32l.28-7.35c-.13,0-.26.02-.39.02-.3,0-.59-.02-.86-.06l-.29,7.39c-.69,17.96,13.35,32.57,31.32,32.57,4.86,0,9.52-1.08,13.74-3-.26-.33-.48-.68-.66-1.06Z" style="fill:#fff;"/><path d="m379.23,220.5c-.18,0-.35-.01-.53-.03l-1.02,26.28c-.32,8.22-3.79,15.7-9.2,21.29.25.34.46.71.63,1.11,5.77-5.84,9.49-13.73,9.82-22.4l1.02-26.29c-.23.02-.48.04-.73.04Z" style="fill:#fff;"/><path d="m359.74,191.85c-3.38-1.54-7.15-2.4-11.16-2.4-15.27,0-28.17,12.42-28.76,27.69l-1.05,27.15c-.06,1.63.03,3.23.24,4.78.36-.33.76-.62,1.19-.86-.14-1.28-.22-2.58-.17-3.92l1.05-27.15c.56-14.58,12.88-26.44,27.46-26.44,3.79,0,7.35.81,10.55,2.26.18-.39.4-.76.65-1.11Z" style="fill:#fff;"/><path d="m369.36,199.32c-.24.36-.52.69-.83,1,3.61,4.57,5.66,10.44,5.41,16.83l-1.05,27.15c-.55,14.18-12.23,25.76-26.29,26.38-.13.45-.31.88-.53,1.29,14.96-.37,27.49-12.63,28.07-27.67l1.05-27.15c.26-6.78-1.95-13-5.83-17.82Z" style="fill:#fff;"/><path d="m343.29,198.63c.02-.44.08-.87.18-1.3-3.23.7-6.24,2.06-8.86,3.95.39.21.75.46,1.06.74,2.29-1.58,4.86-2.75,7.62-3.39Z" style="fill:#fff;"/><path d="m367.12,247.43c-2.82,9.18-11.46,15.96-21.4,15.96-11.88,0-21.17-9.67-20.71-21.55l.86-22.25c.1-2.69.72-5.26,1.72-7.64-.36-.28-.67-.61-.94-.97-1.19,2.66-1.92,5.57-2.04,8.62l-.86,22.25c-.49,12.57,9.35,22.8,21.92,22.8,10.55,0,19.7-7.21,22.67-16.95-.42-.05-.83-.13-1.21-.26Z" style="fill:#fff;"/><path d="m368.96,219.59l-.18,4.62c.33-.05.65-.1.99-.1.09,0,.18.02.27.03l.18-4.55c.39-10.08-5.87-18.65-14.84-21.64.03.44.01.89-.04,1.34,8.27,2.95,14,10.93,13.63,20.31Z" style="fill:#fff;"/><path d="m348.01,204.13c-9.88,0-18.22,8.03-18.6,17.91l-.19,4.94c.42.03.84.09,1.24.19l.2-5.13c.36-9.19,8.12-16.66,17.3-16.66s16.37,7.47,16.02,16.66l-.67,17.34c-.31,8.09-6.37,14.84-14.08,16.34.04.42.03.84-.01,1.26,8.39-1.54,15-8.84,15.34-17.6l.67-17.34c.38-9.88-7.34-17.91-17.22-17.91Z" style="fill:#fff;"/><path d="m336.32,218.83c.27,0,.53.02.79.04,2.14-3.66,6.12-6.15,10.57-6.15,1.36,0,2.65.24,3.84.67.14-.4.31-.79.52-1.16-1.34-.48-2.79-.76-4.32-.76-5.16,0-9.73,3.02-12.01,7.38.19-.02.39-.03.59-.03Z" style="fill:#fff;"/><path d="m358.52,236.94c-.06,1.47-.39,2.86-.93,4.16.4.16.76.36,1.09.59.64-1.47,1.03-3.07,1.09-4.75l.48-12.44c.05-1.2-.08-2.35-.34-3.45-.37.19-.76.35-1.19.46.21.96.32,1.95.28,2.99l-.48,12.44Z" style="fill:#fff;"/><path d="m349.03,248.38c-.89.21-1.8.33-2.74.33-6.49,0-11.57-5.28-11.32-11.77l.22-5.63c-.44-.04-.86-.12-1.24-.24l-.23,5.86c-.28,7.18,5.34,13.02,12.52,13.02,1.07,0,2.11-.14,3.11-.39-.14-.39-.25-.79-.32-1.2Z" style="fill:#fff;"/><path d="m347.44,218.81c-4.49,0-8.28,3.65-8.45,8.14l-.29,7.53c-.03.73.05,1.43.2,2.1.32-.38.68-.72,1.1-1.02-.04-.35-.07-.71-.05-1.08l.29-7.53c.15-3.8,3.35-6.88,7.15-6.88s6.76,3.09,6.62,6.88l-.29,7.53c-.11,2.78-1.86,5.18-4.28,6.26-.02.47-.09.94-.2,1.41,3.2-1.12,5.6-4.13,5.73-7.67l.29-7.53c.17-4.49-3.34-8.14-7.82-8.14Z" style="fill:#fff;"/></g><path d="m368.47,128.9h-35.09c-1.11,0-1.99-.91-1.94-2.02h0c.04-1.11.99-2.02,2.1-2.02h35.09c1.11,0,1.99.91,1.94,2.02h0c-.04,1.11-.99,2.02-2.1,2.02Z" style="fill:#5f9e85;"/></g></g><g id="uuid-ed21a935-e72b-4017-80e5-5c869df4c83d"><g><path d="m126.14,157.64c-1.87,3.88-3.76,7.86-5.58,11.78-.9,1.97-1.78,3.93-2.62,5.88-.8,1.93-1.59,3.93-2.06,5.61-.44,1.35-.5,3.48-.56,5.57-.03,2.1-.03,4.27.03,6.45l.33,13.18-4.61.68c-1.16-4.37-2.09-8.74-2.82-13.22-.34-2.24-.67-4.49-.86-6.81-.1-1.16-.18-2.34-.2-3.59,0-.63,0-1.26.05-1.96.02-.34.05-.7.11-1.1.04-.4.12-.68.18-1.03.52-2.63,1.24-4.82,2.01-7.03.77-2.18,1.6-4.3,2.48-6.4,1.76-4.19,3.64-8.23,5.73-12.28l8.4,4.24Z" style="fill:#f6ad95;"/><path d="m118.99,207.93l-3.84-4.42-4.34.22c-1.99,4.75,2.35,7.78,2.35,7.78l.77,2.6c.33,1.1,1.57,1.62,2.63,1.1l2.41-1.19c.69-.34,1.13-1.06,1.12-1.82l-.03-1.49c-.02-1.03-.39-2.01-1.06-2.78Z" style="fill:#f6ad95;"/><path d="m106.78,405.47c-.77-.33-1.55-.85-2.07-1.24-.07-.05-.1-.14-.08-.22.02-.09.09-.15.18-.17.37-.07,3.65-.67,4.42.19.12.14.25.37.14.74-.14.48-.41.8-.8.94-.5.18-1.15.04-1.79-.23Zm-1.39-1.29c1.33.91,2.44,1.32,3.04,1.11.25-.09.42-.3.52-.63.05-.18,0-.27-.05-.33-.41-.46-2.19-.35-3.51-.15Z" style="fill:#7ab376;"/><path d="m104.75,404.26s-.07-.04-.09-.07c-.05-.06-.05-.14-.02-.22.05-.1,1.14-2.56,2.41-3,.34-.12.66-.09.96.08.47.27.46.65.42.85-.23,1.04-2.56,2.25-3.56,2.37-.04,0-.08,0-.11-.01Zm2.94-2.86c-.16-.07-.33-.07-.52,0-.76.26-1.55,1.57-1.96,2.37,1.08-.31,2.64-1.3,2.78-1.93.02-.1.02-.24-.22-.38-.03-.02-.06-.03-.09-.04Z" style="fill:#7ab376;"/><path d="m141.3,121.62c.83,5.48,2.69,17.43-1.29,21,0,0,1.24,5.57,11.4,5.77,11.16.22,5.58-5.43,5.58-5.43-6.03-1.57-5.67-6.09-4.41-10.31l-11.27-11.03Z" style="fill:#f6ad95;"/><path d="m164.16,112.54c-.06-.01-.12-.04-.18-.09-.18-.15-.2-.43-.05-.61,1.57-1.88,3.56-1.69,3.65-1.68.24.02.41.24.38.48-.03.24-.25.41-.49.39h0c-.07,0-1.62-.14-2.87,1.36-.11.13-.28.19-.44.15Z" style="fill:#394866;"/><path d="m166.24,117.93s.87,3.31,2.06,4.98c-1.08.82-2.68.25-2.68.25l.63-5.22Z" style="fill:#d19382;"/><path d="m165.73,116.59c-.09.74.23,1.38.71,1.42.48.05.94-.52,1.03-1.26.09-.74-.23-1.38-.71-1.42-.48-.05-.94.52-1.03,1.26Z" style="fill:#394866;"/><path d="m166.55,115.35l1.83-.35s-1.07,1.3-1.83.35Z" style="fill:#394866;"/><polygon points="174.64 409.13 184.38 406.05 183.42 386.21 173.68 389.28 174.64 409.13" style="fill:#f6ad95;"/><polygon points="94.69 402.04 103.46 404.52 110.8 384.21 102.04 381.73 94.69 402.04" style="fill:#f6ad95;"/><path d="m104.58,402.77l-9.4-3.97c-.34-.14-.73-.02-.92.3l-4.41,7.15c-.46.74-.12,1.77.67,2.09,3.3,1.33,4.97,1.8,9.1,3.54,2.54,1.07,4.52,4.33,10.12,4.33,3.78,0,4.5-3.42,2.94-3.92-6.97-2.24-5.57-5.58-6.95-8.4-.25-.51-.67-.91-1.17-1.12Z" style="fill:#394866;"/><path d="m187.86,407.42c-.85,0-1.79-.18-2.44-.33-.09-.02-.15-.09-.17-.17-.02-.09.02-.17.09-.22.31-.21,3.05-2.01,4.13-1.53.17.08.39.25.45.61.08.49-.02.88-.32,1.16-.38.36-1.03.48-1.74.48Zm-1.84-.64c1.61.32,2.82.27,3.27-.16.19-.18.26-.43.2-.78-.03-.18-.12-.24-.19-.28-.57-.26-2.16.52-3.28,1.21Z" style="fill:#7ab376;"/><path d="m185.46,407.09s-.08,0-.11-.03c-.07-.04-.11-.11-.11-.19,0-.11-.08-2.76.89-3.65.26-.24.57-.33.91-.29.55.07.71.41.75.61.24,1.04-1.37,3.02-2.23,3.52-.03.02-.07.03-.11.03Zm1.44-3.73c-.18,0-.34.06-.48.19-.58.53-.74,2.02-.76,2.9.85-.7,1.85-2.19,1.7-2.82-.02-.1-.09-.23-.37-.26-.03,0-.07,0-.1,0Z" style="fill:#7ab376;"/><path d="m184.65,405.81h-10.34c-.38,0-.67.26-.71.63l-.91,8.18c-.09.85.66,1.65,1.53,1.64,3.6-.06,5.34-.27,9.88-.27,2.8,0,6.9.29,10.76.29s3.94-3.82,2.32-4.17c-7.27-1.55-8.48-3.69-10.97-5.73-.45-.37-1.01-.57-1.56-.57Z" style="fill:#394866;"/><g><polygon points="183.42 386.21 183.94 396.84 174.17 399.52 173.67 389.29 183.42 386.21" style="opacity:.2;"/><polygon points="102.03 381.74 110.8 384.22 107.01 394.68 98.24 392.2 102.03 381.74" style="opacity:.2;"/></g><g><path d="m121.96,143.78c-3.83.9-8.05,14.72-8.05,14.72l10.7,11.33s9.1-13.06,7.32-17.79c-1.86-4.92-5.44-9.33-9.97-8.26Z" style="fill:#5f9e85;"/><path d="m121.96,143.78c-3.83.9-8.05,14.72-8.05,14.72l10.7,11.33s9.1-13.06,7.32-17.79c-1.86-4.92-5.44-9.33-9.97-8.26Z" style="fill:#5f9e85;"/></g><path d="m127.93,152.45c1.95-1.8,3.25-1.29,4.13.1.84,4.08-4.84,13.3-6.97,16.57-.93-3.85-1.57-12.58,2.84-16.67Z" style="opacity:.4;"/><g><path d="m171.02,146.96c.53,4.03.2,16.29-7.55,53.48l-37.39-.73c1.31-15.19,1.75-24.57-4.11-55.91,0,0,7.91-1.55,15.97-1.78,6.31-.18,11.47-.28,16.98.33,5.41.6,11.34,1.78,14.01,2.35,1.12.24,1.94,1.13,2.1,2.27Z" style="fill:#5f9e85;"/><path d="m171.02,146.96c.53,4.03.2,16.29-7.55,53.48l-37.39-.73c1.31-15.19,1.75-24.57-4.11-55.91,0,0,7.91-1.55,15.97-1.78,6.31-.18,11.47-.28,16.98.33,5.41.6,11.34,1.78,14.01,2.35,1.12.24,1.94,1.13,2.1,2.27Z" style="fill:#5f9e85;"/></g><path d="m141.29,111.7c-.54,9.15-.96,13.02,3.05,18.12,6.03,7.68,17.33,6.04,20.57-2.83,2.92-7.99,3.31-21.61-5.11-26.07-8.29-4.4-17.98,1.64-18.51,10.79Z" style="fill:#f6ad95;"/><path d="m153.59,200.24s-5.43,66.72-12.57,102.19c-5.77,28.65-31.95,90.56-31.95,90.56l-11.4-4.82s13.14-70.13,22.06-87.21c10.03-58.81-6.19-78.87,6.34-101.26l27.52.54Z" style="fill:#394866;"/><path d="m143.42,236.75c-4.09,17.38-1.44,33.18,1.33,43.6,1.63-11.17,3.12-23.2,4.38-34.47-1.73-3.24-3.9-6.31-5.71-9.13Z" style="fill:#2e3b4f;"/><path d="m163.46,200.43s14.19,65.19,16.02,93.06c1.9,28.99,5.72,97.7,5.72,97.7l-12.53,3.36s-14.08-70.81-12.98-92.12c-6.97-30.24-31.41-102.65-31.41-102.65l35.17.65Z" style="fill:#394866;"/><polygon points="187.06 394.37 170.8 397.11 169.24 391.31 186.65 388.35 187.06 394.37" style="fill:#5f9e85;"/><polygon points="111.05 393.56 95.82 389.25 96.67 383.6 112.95 387.61 111.05 393.56" style="fill:#5f9e85;"/><path d="m125.61,197.5l-1.84,3.31c-.14.26.15.53.59.54l39.22.77c.34,0,.62-.15.65-.36l.49-3.34c.03-.23-.25-.43-.62-.44l-37.87-.74c-.28,0-.53.1-.62.27Z" style="fill:#fff;"/><path d="m130.5,201.83l-1.01-.02c-.2,0-.35-.11-.33-.24l.67-4.34c.02-.13.2-.23.4-.22l1.01.02c.2,0,.35.11.33.24l-.67,4.34c-.02.13-.2.23-.4.22Z" style="fill:#394866;"/><path d="m155.09,202.31l-1.01-.02c-.2,0-.35-.11-.33-.24l.67-4.34c.02-.13.2-.23.4-.22l1.01.02c.2,0,.35.11.33.24l-.67,4.34c-.02.13-.2.23-.4.22Z" style="fill:#394866;"/><path d="m173.07,151.71c1.84,3.89,3.87,7.93,5.98,11.76,2.12,3.83,4.37,7.62,6.89,10.88.32.42.64.83.9,1.13.29.33.59.66.93.98.67.65,1.4,1.3,2.21,1.91,1.61,1.22,3.39,2.39,5.27,3.45,3.73,2.14,7.82,4.09,11.85,5.81l-1.22,4.5c-4.74-.81-9.24-2.06-13.74-3.87-2.23-.93-4.46-1.96-6.63-3.31-1.09-.66-2.16-1.41-3.22-2.25-.52-.42-1.04-.89-1.55-1.38-.54-.52-.95-.98-1.36-1.44-.86-.93-1.62-1.88-2.4-2.83-.73-.97-1.48-1.94-2.15-2.93-1.41-1.96-2.67-3.98-3.89-6.01-2.43-4.09-4.55-8.19-6.49-12.62l8.62-3.79Z" style="fill:#f6ad95;"/><g><path d="m168.38,144.55c8.77,1.91,10.89,15.68,10.89,15.68l-8.64,10.06s-13.71-12.97-13.03-20.07c.5-5.27,6-6.71,10.78-5.67Z" style="fill:#5f9e85;"/><path d="m168.38,144.55c8.77,1.91,10.89,15.68,10.89,15.68l-8.64,10.06s-13.71-12.97-13.03-20.07c.5-5.27,6-6.71,10.78-5.67Z" style="fill:#5f9e85;"/></g><path d="m217.26,191.2l-2.43-2.88s-7.84-1.83-11.31-.13l-1.07,3.24,8.77,4.54,1.82.85c.87.41,1.94.11,2.52-.7l1.76-2.49c.53-.75.51-1.75-.07-2.43Z" style="fill:#f6ad95;"/><path d="m166.86,162.25c1.53-4.08,2.38-9.04,2.04-11.34-.52,4.18-3.69,9.9-6.89,14.14-12.81,5.26-26.58,2.84-35.55-2.51-2.62-5.32-4.81-13.64-3.43-18.6-1.69,2.52-2.93,9.41-2.14,14.28-2.69-2.76-4.25-5.84-4.27-8.88-.04-14.61,17.6-13.71,17.85-24.37.24-10.66-4.1-32.46,17.64-27.8,14.24-.67,11.27,11.88,8.94,19.52-2.15,7.06,19.39,34.12,5.81,45.57Z" style="fill:#394866;"/><path d="m152.11,97.15c8.91-4.75,17.97,2.72,13.35,10.56-4.12-.18-7.44,2.43-4.22,7.65-9.55-6.02-15.4-17.68-9.12-18.21Z" style="fill:#394866;"/><path d="m161.47,113.97c1.17,1.97,1.32,4.1,1.16,5.52-.28,2.45-2.2,2.46-3.55.99-1.22-1.32-2.47-4.49-1.68-6.37.77-1.84,3.03-1.9,4.08-.14Z" style="fill:#f6ad95;"/></g></g></svg>