<?xml version="1.0" encoding="UTF-8"?><svg id="uuid-1c3dee79-f69b-4bd2-8a5f-e49a54a73ff5" xmlns="http://www.w3.org/2000/svg" viewBox="0 0 402 260"><path d="m124.4,112.88c-.26-.29-.53-.57-.82-.83-.26-.29-.54-.56-.83-.82h0c-.26-.29-.53-.57-.82-.83h0c-.26-.29-.54-.57-.83-.82h0c-.26-.29-.54-.57-.82-.83-.25-.29-.53-.57-.82-.82-.26-.29-.54-.57-.83-.83h0c-.25-.29-.53-.57-.82-.82-.26-.29-.54-.56-.83-.82h0c-.85-.93-1.84-1.73-2.93-2.35V20.47c0-.44-.21-.66-.21-1.1.05-.45-.02-.9-.22-1.31,0-.22-.21-.66-.21-.88-.12-.45-.27-.89-.45-1.32-.23-.24-.38-.55-.43-.88-.25-.39-.55-.76-.88-1.09-.23-.22-.44-.65-.66-.88l-.88-.88c0-.13-.17-.27-.36-.35l-.43-.44h-.05c0-.14-.16-.27-.35-.36l-.44-.43c0-.13-.17-.27-.36-.36l-.43-.43c0-.14-.17-.27-.36-.36l-.43-.44c0-.13-.17-.27-.36-.36l-.44-.43v-.05c0-.13-.17-.26-.36-.35l-.43-.44h-.05c0-.13-.16-.27-.35-.36l-.44-.43v-.05c0-.13-.17-.26-.36-.35l-.43-.44h-.05c0-.14-.16-.27-.35-.36l-.44-.43c0-.13-.17-.27-.36-.35l-.48-.48c0-.22-.43-.44-.66-.44,0-.03,0-.06-.01-.08-.01-.03-.03-.05-.05-.07-.02-.02-.04-.04-.07-.05-.03-.01-.06-.02-.08-.02-.44-.21-.67-.44-1.1-.66-.38-.27-.74-.57-1.09-.88-.22,0-.66-.21-.88-.21-.44-.22-1.1-.22-1.32-.45-.38.03-.76-.04-1.1-.21h-3.72c-.26.17-.57.24-.88.21-.66.23-1.09.23-1.32.45-.43,0-.65.21-.88.66-.47.01-.93.16-1.31.43-.21.22-.66.45-.88.66-.29.32-.67.55-1.09.66-.16.33-.39.63-.66.88-.22.22-.22.43-.43.43L3,106c-1.93,2.31-2.89,5.28-2.69,8.28.2,3,1.55,5.81,3.78,7.85.26.3.54.58.84.84.25.3.53.58.83.83.26.3.54.58.84.84.25.3.53.58.83.84.26.3.54.58.84.83.25.3.53.58.83.84.26.3.54.58.84.83.25.3.53.58.83.84.26.3.54.58.84.83.52.59,1.09,1.12,1.72,1.59,2.06,1.79,4.72,2.73,7.45,2.63h60.72v8.31c-.02,1.69.32,3.37,1,4.92.68,1.55,1.67,2.94,2.92,4.08h0c.26.28.53.55.8.8.25.29.53.56.81.81h0c.26.28.53.55.81.8.25.29.53.56.81.81h0c.26.28.53.55.81.81.25.29.52.56.81.81h0c.25.28.52.55.8.81.25.29.53.55.81.81h0c.25.27.52.54.8.8,1.65,1.79,3.8,3.03,6.17,3.58,2.37.55,4.85.36,7.12-.52,2.27-.88,4.21-2.43,5.59-4.44,1.38-2.01,2.11-4.38,2.12-6.81v-16.42h2.2c1.6.03,3.19-.27,4.68-.86s2.84-1.48,3.98-2.6c1.14-1.12,2.05-2.46,2.67-3.94.62-1.48.94-3.06.94-4.66.02-1.66-.3-3.31-.94-4.84-.65-1.53-1.6-2.91-2.81-4.05h0Zm-42.92-47v35.44h-28.56l28.56-35.44Z" style="fill:#4f46e5;"/><path d="m124.4,112.88c-.26-.29-.53-.57-.82-.83-.26-.29-.54-.56-.83-.82h0c-.26-.29-.53-.57-.82-.83h0c-.26-.29-.54-.57-.83-.82h0c-.26-.29-.54-.57-.82-.83-.25-.29-.53-.57-.82-.82-.26-.29-.54-.57-.83-.83h0c-.25-.29-.53-.57-.82-.82-.26-.29-.54-.56-.83-.82h0c-.85-.93-1.84-1.73-2.93-2.35V20.47c0-.44-.21-.66-.21-1.1.05-.45-.02-.9-.22-1.31,0-.22-.21-.66-.21-.88-.12-.45-.27-.89-.45-1.32-.23-.24-.38-.55-.43-.88-.25-.39-.55-.76-.88-1.09-.23-.22-.44-.65-.66-.88l-.88-.88c0-.13-.17-.27-.36-.35l-.43-.44h-.05c0-.14-.16-.27-.35-.36l-.44-.43c0-.13-.17-.27-.36-.36l-.43-.43c0-.14-.17-.27-.36-.36l-.43-.44c0-.13-.17-.27-.36-.36l-.44-.43v-.05c0-.13-.17-.26-.36-.35l-.43-.44h-.05c0-.13-.16-.27-.35-.36l-.44-.43v-.05c0-.13-.17-.26-.36-.35l-.43-.44h-.05c0-.14-.16-.27-.35-.36l-.44-.43c0-.13-.17-.27-.36-.35l-.48-.48c0-.22-.43-.44-.66-.44,0-.03,0-.06-.01-.08-.01-.03-.03-.05-.05-.07-.02-.02-.04-.04-.07-.05-.03-.01-.06-.02-.08-.02-.44-.21-.67-.44-1.1-.66-.38-.27-.74-.57-1.09-.88-.22,0-.66-.21-.88-.21-.44-.22-1.1-.22-1.32-.45-.38.03-.76-.04-1.1-.21h-3.72c-.26.17-.57.24-.88.21-.66.23-1.09.23-1.32.45-.43,0-.65.21-.88.66-.47.01-.93.16-1.31.43-.21.22-.66.45-.88.66-.29.32-.67.55-1.09.66-.16.33-.39.63-.66.88-.22.22-.22.43-.43.43L3,106c-1.93,2.31-2.89,5.28-2.69,8.28.2,3,1.55,5.81,3.78,7.85.26.3.54.58.84.84.25.3.53.58.83.83.26.3.54.58.84.84.25.3.53.58.83.84.26.3.54.58.84.83.25.3.53.58.83.84.26.3.54.58.84.83.25.3.53.58.83.84.26.3.54.58.84.83.52.59,1.09,1.12,1.72,1.59,2.06,1.79,4.72,2.73,7.45,2.63h60.72v8.31c-.02,1.69.32,3.37,1,4.92.68,1.55,1.67,2.94,2.92,4.08h0c.26.28.53.55.8.8.25.29.53.56.81.81h0c.26.28.53.55.81.8.25.29.53.56.81.81h0c.26.28.53.55.81.81.25.29.52.56.81.81h0c.25.28.52.55.8.81.25.29.53.55.81.81h0c.25.27.52.54.8.8,1.65,1.79,3.8,3.03,6.17,3.58,2.37.55,4.85.36,7.12-.52,2.27-.88,4.21-2.43,5.59-4.44,1.38-2.01,2.11-4.38,2.12-6.81v-16.42h2.2c1.6.03,3.19-.27,4.68-.86s2.84-1.48,3.98-2.6c1.14-1.12,2.05-2.46,2.67-3.94.62-1.48.94-3.06.94-4.66.02-1.66-.3-3.31-.94-4.84-.65-1.53-1.6-2.91-2.81-4.05h0Zm-42.92-47v35.44h-28.56l28.56-35.44Z" style="fill:#2f4667;"/><path d="m120.06,113.41c0,1.6-.32,3.19-.94,4.66-.62,1.48-1.53,2.82-2.67,3.94-1.14,1.12-2.5,2.01-3.99,2.6-1.49.59-3.08.89-4.68.86h-2.19v16.67c0,3.2-1.27,6.27-3.53,8.53-2.26,2.26-5.33,3.53-8.53,3.53s-6.27-1.27-8.53-3.53c-2.26-2.26-3.53-5.33-3.53-8.53v-16.67H12.4c-2.71.09-5.36-.85-7.4-2.63-1.27-.95-2.33-2.15-3.12-3.52-.79-1.37-1.29-2.89-1.48-4.47-.19-1.57-.05-3.17.39-4.69.45-1.52,1.2-2.93,2.21-4.16L84.1,5.09c.22,0,.22-.21.44-.43.27-.25.5-.55.66-.88.42-.11.8-.34,1.1-.66.21-.22.65-.44.87-.66.39-.28.85-.43,1.32-.44.22-.43.44-.65.88-.65.21-.22.65-.22,1.31-.44.31.03.62-.05.88-.22h3.73c.33.18.71.26,1.09.22.22.22.88.22,1.32.44.22,0,.66.22.88.22.43.43.87.65,1.09.87.44.22.66.44,1.1.66.06,0,.11.02.16.06.04.04.06.1.06.16.22,0,.66.22.66.44l.87.88c.22.22.44.65.66.87.33.33.63.7.88,1.1.06.33.21.64.44.88.18.42.32.86.43,1.31,0,.22.22.66.22.88.2.41.27.87.22,1.32,0,.43.22.65.22,1.09v89.24h2.19c3.22-.02,6.32,1.24,8.62,3.5,2.3,2.26,3.61,5.33,3.66,8.56Zm-38.59-66.22l-43.63,54.16h43.63v-54.16Z" style="fill:#5581ad;"/><path d="m248.33,33.4c-2.48-3.77-5.35-7.25-8.58-10.4-.12-.13-.25-.25-.38-.37l-.11-.11c-.1-.11-.2-.22-.31-.32-.28-.3-.58-.58-.87-.87l-.08-.07-.3-.3s-.07-.08-.11-.11c-.1-.11-.2-.22-.31-.32-.28-.3-.58-.58-.87-.87l-.08-.07-.3-.3-.11-.11c-.1-.11-.2-.22-.31-.32-.28-.3-.58-.58-.87-.87l-.08-.07-.3-.3s-.07-.08-.11-.11c-.1-.11-.21-.22-.32-.32-.27-.31-.57-.58-.86-.87l-.08-.07c-.09-.11-.19-.21-.3-.3,0,0-.07-.08-.11-.11-8.81-9.08-20.29-15.09-33.17-15.09-17.33,0-31.57,10.31-40.79,24.33-9.65,14-14.68,32.25-14.9,52.41.22,20,5.25,38.37,14.9,52.41,2.47,3.71,5.32,7.16,8.49,10.29l.44.43v.05l.78.78c.13.15.27.28.4.41l.44.43.05.05.78.78.4.42.44.42s.04.03.05.05l.78.78.4.42.44.42s.02.01.03.02.01.02.02.04l.78.78.41.41.43.42.06.06.78.78c8.66,8.65,19.84,14.46,32.69,14.46,16.88,0,31.35-10.53,40.57-24.35,9.42-14,14.69-32.45,14.69-52.4.03-20.21-5.22-38.41-14.64-52.45Zm-28.53,82.87c-6.36,9.42-13.6,13.59-20.39,13.59-4.18-.1-8.22-1.5-11.57-4-.31-.4-.61-.82-.91-1.26-6.14-9.21-10.53-23.24-10.53-38.81s4.39-29.6,10.53-39c6.59-9.21,14-13.59,20.83-13.38,3.96-.02,7.82,1.24,11,3.6.35.47.69.93,1,1.42,6.14,9.43,10.52,23.24,10.52,39,.04,15.57-4.34,29.62-10.48,38.84Z" style="fill:#4f46e5;"/><path d="m248.33,33.4c-2.48-3.77-5.35-7.25-8.58-10.4-.12-.13-.25-.25-.38-.37l-.11-.11c-.1-.11-.2-.22-.31-.32-.28-.3-.58-.58-.87-.87l-.08-.07-.3-.3s-.07-.08-.11-.11c-.1-.11-.2-.22-.31-.32-.28-.3-.58-.58-.87-.87l-.08-.07-.3-.3-.11-.11c-.1-.11-.2-.22-.31-.32-.28-.3-.58-.58-.87-.87l-.08-.07-.3-.3s-.07-.08-.11-.11c-.1-.11-.21-.22-.32-.32-.27-.31-.57-.58-.86-.87l-.08-.07c-.09-.11-.19-.21-.3-.3,0,0-.07-.08-.11-.11-8.81-9.08-20.29-15.09-33.17-15.09-17.33,0-31.57,10.31-40.79,24.33-9.65,14-14.68,32.25-14.9,52.41.22,20,5.25,38.37,14.9,52.41,2.47,3.71,5.32,7.16,8.49,10.29l.44.43v.05l.78.78c.13.15.27.28.4.41l.44.43.05.05.78.78.4.42.44.42s.04.03.05.05l.78.78.4.42.44.42s.02.01.03.02.01.02.02.04l.78.78.41.41.43.42.06.06.78.78c8.66,8.65,19.84,14.46,32.69,14.46,16.88,0,31.35-10.53,40.57-24.35,9.42-14,14.69-32.45,14.69-52.4.03-20.21-5.22-38.41-14.64-52.45Zm-28.53,82.87c-6.36,9.42-13.6,13.59-20.39,13.59-4.18-.1-8.22-1.5-11.57-4-.31-.4-.61-.82-.91-1.26-6.14-9.21-10.53-23.24-10.53-38.81s4.39-29.6,10.53-39c6.59-9.21,14-13.59,20.83-13.38,3.96-.02,7.82,1.24,11,3.6.35.47.69.93,1,1.42,6.14,9.43,10.52,23.24,10.52,39,.04,15.57-4.34,29.62-10.48,38.84Z" style="fill:#2f4667;"/><path d="m143.71,77.45c.22-20.17,5.27-38.37,14.91-52.4C167.83,11.05,182.08.71,199.41.71s31.35,10.31,40.56,24.34c9.43,14,14.69,32.23,14.69,52.4s-5.26,38.38-14.69,52.41c-9.21,13.81-23.68,24.34-40.56,24.34s-31.58-10.53-40.79-24.34c-9.62-14.03-14.69-32.45-14.91-52.41Zm86.61,0c0-15.78-4.38-29.6-10.52-39-6.36-9.21-13.59-13.59-20.39-13.37-6.8-.22-14.26,4.16-20.83,13.37-6.14,9.43-10.53,23.25-10.53,39s4.39,29.61,10.53,38.81c6.57,9.43,14,13.6,20.83,13.6s14-4.17,20.39-13.6c6.14-9.2,10.52-23.26,10.52-38.81Z" style="fill:#5581ad;"/><path d="m397.71,112.88c-.26-.29-.54-.57-.82-.83-.27-.29-.55-.56-.83-.82-.27-.29-.54-.57-.82-.83-.27-.29-.55-.57-.83-.82-.27-.29-.54-.57-.82-.83-.27-.29-.55-.57-.83-.82-.27-.29-.55-.57-.82-.83-.26-.29-.53-.56-.82-.82h0c-.27-.29-.55-.56-.83-.82-.85-.94-1.84-1.73-2.94-2.35V20.47c0-.44-.21-.66-.21-1.1.05-.45-.02-.9-.22-1.31,0-.22-.21-.66-.21-.88-.12-.45-.27-.89-.45-1.32-.23-.24-.38-.55-.43-.88-.25-.4-.54-.76-.88-1.09-.23-.22-.44-.65-.66-.88l-.88-.88c0-.13-.17-.27-.36-.35l-.43-.44h-.05c0-.14-.16-.27-.35-.36l-.44-.43c0-.13-.17-.27-.36-.36l-.43-.43c0-.14-.17-.27-.36-.36l-.43-.44c0-.13-.17-.27-.36-.36l-.44-.43v-.05c0-.13-.17-.26-.36-.35l-.43-.44h-.05c0-.13-.16-.27-.35-.36l-.44-.43v-.05c0-.13-.17-.26-.36-.35l-.43-.44h-.05c0-.14-.16-.27-.35-.36l-.44-.43c0-.13-.17-.27-.36-.35l-.48-.48c0-.22-.43-.44-.66-.44,0-.03,0-.06-.02-.08-.01-.03-.03-.05-.05-.07-.02-.02-.04-.04-.07-.05-.03-.01-.05-.02-.08-.02-.43-.21-.66-.44-1.09-.66-.38-.27-.74-.57-1.09-.88-.22,0-.66-.21-.88-.21-.44-.22-1.09-.22-1.32-.45-.38.03-.76-.04-1.1-.21h-3.72c-.26.17-.57.24-.88.21-.66.23-1.09.23-1.32.45-.43,0-.65.21-.88.66-.47.01-.93.16-1.31.43-.21.22-.66.45-.87.66-.3.32-.68.55-1.1.66-.17.33-.39.63-.66.88-.22.22-.22.43-.43.43l-81.49,100.61c-1.93,2.31-2.89,5.28-2.68,8.28.2,3,1.55,5.81,3.77,7.85.26.3.54.58.84.84.25.3.53.58.83.83.26.3.54.58.84.84.84.83,1.67,1.67,2.5,2.51.56.55,1.12,1.11,1.67,1.67.26.3.54.58.84.83.52.59,1.09,1.12,1.72,1.59,2.06,1.79,4.72,2.73,7.45,2.63h60.72v8.31c-.02,1.69.32,3.37,1,4.92.68,1.55,1.67,2.94,2.92,4.08h0c.26.29.54.56.81.81.25.28.52.54.8.8.26.29.53.56.82.81h0c.26.28.52.54.8.8.26.29.54.56.82.82.26.28.52.55.8.8.26.29.54.56.82.82.26.28.52.55.8.8.25.29.52.56.81.82,1.65,1.79,3.8,3.03,6.18,3.58,2.37.54,4.85.36,7.12-.52,2.27-.88,4.22-2.43,5.59-4.44,1.37-2.01,2.11-4.38,2.12-6.82v-16.43h2.2c1.6.03,3.19-.26,4.68-.86,1.49-.59,2.85-1.48,3.99-2.6,1.14-1.12,2.05-2.46,2.67-3.94.62-1.48.94-3.06.95-4.67.02-1.66-.3-3.31-.95-4.84-.65-1.53-1.61-2.91-2.81-4.05h0Zm-42.93-47v35.44h-28.56l28.56-35.44Z" style="fill:#4f46e5;"/><path d="m397.71,112.88c-.26-.29-.54-.57-.82-.83-.27-.29-.55-.56-.83-.82-.27-.29-.54-.57-.82-.83-.27-.29-.55-.57-.83-.82-.27-.29-.54-.57-.82-.83-.27-.29-.55-.57-.83-.82-.27-.29-.55-.57-.82-.83-.26-.29-.53-.56-.82-.82h0c-.27-.29-.55-.56-.83-.82-.85-.94-1.84-1.73-2.94-2.35V20.47c0-.44-.21-.66-.21-1.1.05-.45-.02-.9-.22-1.31,0-.22-.21-.66-.21-.88-.12-.45-.27-.89-.45-1.32-.23-.24-.38-.55-.43-.88-.25-.4-.54-.76-.88-1.09-.23-.22-.44-.65-.66-.88l-.88-.88c0-.13-.17-.27-.36-.35l-.43-.44h-.05c0-.14-.16-.27-.35-.36l-.44-.43c0-.13-.17-.27-.36-.36l-.43-.43c0-.14-.17-.27-.36-.36l-.43-.44c0-.13-.17-.27-.36-.36l-.44-.43v-.05c0-.13-.17-.26-.36-.35l-.43-.44h-.05c0-.13-.16-.27-.35-.36l-.44-.43v-.05c0-.13-.17-.26-.36-.35l-.43-.44h-.05c0-.14-.16-.27-.35-.36l-.44-.43c0-.13-.17-.27-.36-.35l-.48-.48c0-.22-.43-.44-.66-.44,0-.03,0-.06-.02-.08-.01-.03-.03-.05-.05-.07-.02-.02-.04-.04-.07-.05-.03-.01-.05-.02-.08-.02-.43-.21-.66-.44-1.09-.66-.38-.27-.74-.57-1.09-.88-.22,0-.66-.21-.88-.21-.44-.22-1.09-.22-1.32-.45-.38.03-.76-.04-1.1-.21h-3.72c-.26.17-.57.24-.88.21-.66.23-1.09.23-1.32.45-.43,0-.65.21-.88.66-.47.01-.93.16-1.31.43-.21.22-.66.45-.87.66-.3.32-.68.55-1.1.66-.17.33-.39.63-.66.88-.22.22-.22.43-.43.43l-81.49,100.61c-1.93,2.31-2.89,5.28-2.68,8.28.2,3,1.55,5.81,3.77,7.85.26.3.54.58.84.84.25.3.53.58.83.83.26.3.54.58.84.84.84.83,1.67,1.67,2.5,2.51.56.55,1.12,1.11,1.67,1.67.26.3.54.58.84.83.52.59,1.09,1.12,1.72,1.59,2.06,1.79,4.72,2.73,7.45,2.63h60.72v8.31c-.02,1.69.32,3.37,1,4.92.68,1.55,1.67,2.94,2.92,4.08h0c.26.29.54.56.81.81.25.28.52.54.8.8.26.29.53.56.82.81h0c.26.28.52.54.8.8.26.29.54.56.82.82.26.28.52.55.8.8.26.29.54.56.82.82.26.28.52.55.8.8.25.29.52.56.81.82,1.65,1.79,3.8,3.03,6.18,3.58,2.37.54,4.85.36,7.12-.52,2.27-.88,4.22-2.43,5.59-4.44,1.37-2.01,2.11-4.38,2.12-6.82v-16.43h2.2c1.6.03,3.19-.26,4.68-.86,1.49-.59,2.85-1.48,3.99-2.6,1.14-1.12,2.05-2.46,2.67-3.94.62-1.48.94-3.06.95-4.67.02-1.66-.3-3.31-.95-4.84-.65-1.53-1.61-2.91-2.81-4.05h0Zm-42.93-47v35.44h-28.56l28.56-35.44Z" style="fill:#2f4667;"/><path d="m393.36,113.41c0,1.6-.32,3.19-.94,4.66-.62,1.48-1.53,2.82-2.67,3.94-1.14,1.12-2.5,2.01-3.99,2.6-1.49.59-3.08.89-4.68.86h-2.19v16.67c0,3.2-1.27,6.27-3.53,8.53-2.26,2.26-5.33,3.53-8.53,3.53s-6.27-1.27-8.53-3.53c-2.26-2.26-3.53-5.33-3.53-8.53v-16.67h-69.07c-2.73.1-5.39-.84-7.45-2.63-1.27-.95-2.34-2.15-3.13-3.53s-1.3-2.9-1.49-4.48c-.19-1.58-.05-3.18.4-4.7.45-1.52,1.21-2.94,2.22-4.17L357.4,5.09c.22,0,.22-.21.44-.43.27-.25.5-.55.66-.88.42-.11.8-.34,1.1-.66.22-.22.66-.44.88-.66.38-.28.84-.43,1.31-.44.22-.43.44-.65.87-.65.22-.22.66-.22,1.32-.44.31.03.62-.05.88-.22h3.73c.33.18.71.26,1.09.22.22.22.88.22,1.32.44.22,0,.66.22.88.22.44.43.87.65,1.09.87.44.22.66.44,1.1.66.06,0,.11.02.16.06.04.04.06.1.06.16.22,0,.65.22.65.44l.88.88c.22.22.44.65.66.87.34.33.63.7.88,1.1.06.33.21.64.44.88.18.42.33.86.44,1.31,0,.22.21.66.21.88.2.41.27.87.22,1.32,0,.43.22.65.22,1.09v89.24h2.19c3.22-.02,6.32,1.24,8.62,3.5,2.3,2.26,3.61,5.33,3.66,8.56h0Zm-38.59-66.22l-43.63,54.16h43.63v-54.16Z" style="fill:#5581ad;"/><path d="m207.91,131.94c.03.18-.01.36-.11.52-.1.16-.25.28-.42.34-.85.13-1.89.26-3.05.42-3.44-7.22-6.95-12.91-5.96-10.66,1.51,3.54,2.51,7.26,2.95,11.06-1.34.17-4.47.54-6.03.72-3.59-12.88-7.55-22.35-7.08-19.38,1.88,12,1.55,15.91,1.12,20.11-14.57,1.71-33.7,3.74-47.57,4.9-2.27-7.08-4.39-14.82-4.58-14.25-1.52,4.21-1.49,10.15-1.11,14.72-4.42.34-7.96.52-10.13.52,0,0-1.62-5.99-1.92-7.98-.87-5.07-.82-10.25.15-15.31,1-5.16,3.13-9.8,5.12-14.54,0-.03.01-.06.02-.09,1.32-3.11,2.27-6.35,2.83-9.67,0-.03,0-.05,0-.08.37-2.42.53-4.86.48-7.31-.18-8.95,3.96-17,11.84-19.91,13.45-13.3,31.91-7.2,37.13,4.05,2.04,5.04,4.06,11.63,5.83,16.7,0,0,0,.02,0,.03s0,.02,0,.03h0c.67,1.99,1.45,3.94,2.36,5.84,4.83,9.06,14.15,13.73,18.13,39.23Z" style="fill:#1b6654;"/><path d="m141.22,68.72c-5.05,3.23-7.92,7.65-8.12,14.21-.13,3.82,0,7.54-1.11,11.22-1.11,3.79-3.13,6.99-5.22,10.17-3.31,5.07-5.48,10.04-5.48,16.46,0,6.42,1.01,14.16,3.68,20.05,0,.04.07,0,.05,0-2.28-6.02-3.1-14.5-2.64-20.99.51-7.14,3.96-11.85,7.42-17.49,2.79-4.48,4.33-9.58,4.48-14.8.1-3.24-.26-6.58.72-9.7,1.15-3.71,3.92-6.22,6.68-8.46.37-.32-.07-.9-.45-.65Z" style="fill:#1b6654;"/><path d="m199.71,102.1c-4.21-4.79-8.51-8.83-11.29-14.95-2.53-5.58-4.22-11.53-6.78-17.09,0-.09-.17-.05-.13.06,4.06,9.91,5.62,20.09,12.72,28.17,3.87,4.39,7.69,8.44,10.47,13.83,2.84,5.68,4.62,11.81,5.25,18.09,0,.22.3.19.3,0,0-10.28-3.73-20.23-10.55-28.1h0Z" style="fill:#1b6654;"/><path d="m240.63,224.17s-39.22,10.22-45.7,9.12c-6.48-1.1-28.37-29.62-33.23-39.97-4.86-10.34-12.93-61.8-11.37-67.47,1.55-5.66,9.67-5.74,16.52,8.86,6.85,14.6,23.04,46.69,25.93,49.34,2.88,2.64,51.02,37.38,47.86,40.12Z" style="fill:#f6ad95;"/><path d="m198.33,229.91c6.01-3.04,13.33-10.43,18.32-11.2,1.22-.23,2.49-.08,3.61.44,1.12.52,2.04,1.37,2.62,2.44,0,0,2.29-4.93,6.94-4.91,2.38,0,4.46,3.71,4.46,3.71,0,0,2.02-3.88,6.14-3.61,3.29.21,4.87,3.89,4.87,3.89,0,0,3.72-2.85,7-1.57,6.65,2.54,7.75,29.89-2.49,34.52-4.77,2.15-4.66-4.54-4.66-4.54,0,0-2.55,9.6-8.37,9.96-5.82.36-5.14-8.32-5.14-8.32,0,0-2.56,9.27-8.63,9.06-6.32-.21-4.11-8.79-4.11-8.79,0,0-4.01,6.24-8.62,5.05-7.61-1.97.57-16.77-1.15-22.73h-9.56l-1.24-3.4Z" style="fill:#f6ad95;"/><path d="m207.01,224.09c-5.96,2.41-12.75-6.69-18.87-4.58-7.95,2.74-.6,12.24,11.44,13.78h9.56l-2.13-9.2Z" style="fill:#f6ad95;"/><path d="m245.65,221.22s0-.04.02-.05c.01-.01.03-.02.05-.02s.04,0,.05.02c.01.01.02.03.02.05,2.62,8.91,2.7,19.48-.59,28.25-.11.28-.64.24-.59-.1,1.61-9.69,2.24-18.39,1.03-28.15Z" style="fill:#1b6654;"/><path d="m234.34,220.24c0-.11.17-.13.2,0,2.66,9.2,2.44,21.1-2.62,30.78-.17.33-.67.46-.5.06,2.84-6.67,4.06-22.04,2.93-30.84Z" style="fill:#1b6654;"/><path d="m218.32,251.56c4.44-9.44,5.31-19.33,4.7-29.6,0-.13.19-.13.23,0,1.71,4.95,1.4,11.53.71,16.64-.54,4.74-2.35,9.26-5.26,13.1-.15.17-.47.06-.37-.14Z" style="fill:#1b6654;"/><path d="m187.66,218.79c3.9-1.26,7.9,1.76,11.19,3.45,1.05.61,2.16,1.11,3.31,1.52,2.6.79,4.53.28,5.69-.42,1.82-1.12,7.5-6.62,11.6-4.79,1.41.64,2.63,1.64,3.51,2.89,1.25-2.2,2.85-4.6,5.62-5.04.61-.1,1.24-.07,1.83.08.6.15,1.16.42,1.64.8.52.39.98.84,1.37,1.35.39.46.7.96.94,1.5,0-.02,0-.04,0-.05l.09-.17.17-.34c.23-.45.56-.85.97-1.17.08-.08.17-.14.27-.18.1-.04.21-.06.32-.06.02,0,.03,0,.05.02.01.01.02.03.02.04s0,.03-.02.04c-.01.01-.03.02-.05.02-.19.09-.35.23-.44.42-.13.19-.25.38-.39.57s-.27.37-.41.55l-.2.29-.09.15s-.08.09-.13.13c-.01.01-.03.03-.04.04s-.03.01-.05.01-.04,0-.05-.01-.03-.02-.04-.04h0c-.42-.36-.8-.76-1.13-1.2-.41-.46-.86-.88-1.36-1.26-.47-.35-1.01-.6-1.58-.74-.57-.14-1.17-.15-1.76-.05-2.49.47-4.06,2.61-5.39,4.52h-.04c.04.06-.05.12-.1.07-1.36-1.16-2.66-2.45-4.55-2.72-2.03-.29-3.96.65-5.64,1.64-.84.48-1.66,1.01-2.44,1.57-.69.52-1.35,1.1-2.09,1.57-3.16,1.93-6.62.43-7.48.08-1.7-.74-3.35-1.59-4.93-2.53-1.6-1.03-3.39-1.74-5.28-2.07-.87-.12-1.75-.03-2.57.26s-1.55.79-2.12,1.43c-.59.74-1.35,2.12.2,5.28,0,0,0,.06-.05.04-.81-.82-3.4-5.88,1.63-7.51Z" style="fill:#1b6654;"/><path d="m153.4,173.66l37.01-5.73s-17.68-33.89-28.3-43.73c-10.48-9.71-15.58.24-14.04,15.23,1.71,16.62,5.33,34.23,5.33,34.23Z" style="fill:#28a086;"/><path d="m154.6,166.99c1.04-.24,2.1-.38,3.14-.61,1.04-.23,2.04-.37,3.06-.52,2.09-.32,4.18-.6,6.27-.87,4.13-.55,8.25-1.16,12.4-1.57,2.36-.25,4.7-.6,7.06-.79.07,0,.08.11,0,.12-4.1.93-8.28,1.57-12.44,2.27-4.16.7-8.25,1.27-12.4,1.7-1.16.13-2.33.27-3.49.32-1.16.06-2.4.17-3.59.18-.03,0-.06,0-.09-.03-.02-.02-.04-.05-.04-.08,0-.03,0-.06.03-.09.02-.02.05-.04.08-.04h0Z" style="fill:#1b6654;"/><path d="m174.01,233.61h-98.01s40.74-97.88,61.45-112.18c6.21-4.3,16.12-4.78,22.8,3.85,5.48,7.08,20.68,35.2,21.37,45.32.69,10.12-7.51,20.11-7.51,20.11l-.1,42.91Z" style="fill:#1b6654;"/><path d="m141.56,167.28c-.25-.06-.5-.09-.74-.14-.21-.05-.44-.05-.65,0-.21.05-.42.14-.59.27-.17.13-.31.3-.41.49-.1.19-.15.4-.15.62,0,.19-.04.38-.13.55-.09.17-.22.31-.39.41-.18.11-.39.18-.61.2-.25.04-.5.08-.74.14.24.06.49.09.74.14.27.05.55.03.81-.07.27-.11.51-.3.67-.54.16-.24.25-.53.25-.82,0-.19.06-.37.16-.54.1-.16.24-.3.4-.4.19-.1.41-.16.62-.18.25-.05.5-.08.75-.14Z" style="fill:#e1e1f7;"/><path d="m179.04,167.28c-.24-.06-.49-.09-.73-.14-.21-.05-.44-.05-.65,0-.21.05-.42.14-.59.27-.17.13-.31.3-.41.49-.1.19-.15.4-.15.62,0,.19-.04.38-.13.55-.09.17-.23.31-.39.41-.18.11-.39.18-.61.2-.24.05-.49.07-.73.14.24.06.49.09.73.14.27.05.55.03.81-.07.27-.12.51-.31.67-.55.16-.24.25-.52.25-.81,0-.19.06-.37.16-.54.1-.16.24-.3.4-.4.19-.1.41-.16.63-.18.26-.05.5-.08.75-.14Z" style="fill:#e1e1f7;"/><path d="m127.94,214.43c-.24-.06-.5-.1-.74-.14-.21-.04-.44-.04-.65,0-.21.05-.41.14-.59.28-.17.13-.31.3-.4.49-.1.19-.15.4-.15.61,0,.19-.05.38-.14.54-.09.17-.23.31-.39.42-.19.11-.39.18-.61.2-.24.05-.5.08-.74.14.24.07.5.1.74.15.27.05.56.02.81-.08.28-.11.51-.3.67-.55.17-.24.25-.52.25-.82,0-.19.05-.37.15-.54.1-.16.24-.3.41-.39.19-.11.4-.17.62-.18.25-.05.5-.08.75-.15Z" style="fill:#e1e1f7;"/><path d="m110.99,169.83c-.24-.07-.49-.09-.74-.14-.21-.05-.44-.05-.65,0-.21.05-.42.14-.59.28-.17.13-.31.3-.41.49-.1.19-.14.4-.14.62,0,.19-.04.38-.14.54-.09.17-.23.31-.39.41-.18.11-.39.18-.61.2-.24.06-.5.08-.74.15.24.06.5.1.74.14.27.05.56.03.81-.07.28-.11.51-.3.67-.55.17-.24.25-.53.25-.82,0-.19.05-.38.15-.54.1-.16.24-.3.41-.4.19-.1.4-.16.62-.18.25-.08.5-.08.75-.14Z" style="fill:#e1e1f7;"/><path d="m154.32,145.85c-.25-.06-.5-.09-.74-.14-.27-.06-.55-.04-.81.06-.28.1-.53.28-.7.52-.17.24-.27.52-.27.81,0,.19-.05.38-.14.54-.09.17-.23.31-.39.42-.19.11-.39.17-.61.2-.25.05-.5.08-.74.14.24.07.49.09.74.15.27.05.55.02.81-.08.28-.11.51-.31.68-.56.16-.25.25-.53.24-.83,0-.19.06-.37.15-.53.1-.16.24-.3.41-.39.19-.11.4-.17.62-.19.24-.02.49-.05.74-.12Z" style="fill:#e1e1f7;"/><path d="m127.65,145.31c-.24-.06-.49-.1-.74-.14-.27-.05-.55-.04-.81.06-.28.1-.53.29-.7.52-.17.24-.27.52-.28.81,0,.19-.04.38-.14.55-.09.17-.23.31-.39.41-.19.11-.39.18-.61.2-.24.05-.49.08-.74.14.25.07.5.1.74.15.27.05.56.02.81-.08.28-.11.51-.3.67-.55.17-.24.25-.53.25-.82,0-.19.06-.37.15-.54.1-.16.24-.3.41-.39.19-.11.4-.17.62-.18.25-.04.5-.09.75-.15Z" style="fill:#e1e1f7;"/><path d="m144.91,120.52c-.24-.06-.49-.09-.74-.14-.21-.05-.44-.05-.65,0-.21.05-.41.14-.59.27-.17.13-.31.3-.4.49-.1.19-.14.4-.14.62,0,.19-.04.38-.13.55-.09.17-.23.31-.39.41-.18.11-.39.18-.61.2-.24.05-.49.07-.74.14.24.06.49.09.74.14.27.05.55.03.81-.07.27-.11.51-.3.67-.54.16-.24.25-.53.25-.82,0-.19.05-.38.15-.54.1-.16.24-.3.41-.4.19-.1.4-.17.62-.18.25-.05.5-.08.75-.14Z" style="fill:#e1e1f7;"/><path d="m160.86,187.01c-.24-.06-.49-.09-.73-.14-.27-.06-.55-.04-.81.06-.28.1-.53.28-.7.52-.17.24-.27.52-.27.81,0,.19-.04.38-.13.55-.09.17-.23.31-.39.41-.18.11-.39.18-.61.21-.24.05-.49.08-.73.14.24.07.49.1.73.14.27.05.55.03.81-.07.27-.12.51-.31.67-.55.16-.24.25-.52.25-.81,0-.19.06-.37.16-.54.1-.16.24-.3.4-.4.19-.1.41-.16.62-.18.25-.05.5-.07.74-.14Z" style="fill:#e1e1f7;"/><path d="m131.76,230.22c-.24-.07-.5-.1-.74-.15-.21-.04-.44-.04-.65,0-.21.05-.41.14-.58.28-.17.13-.31.3-.4.49-.1.19-.15.4-.15.61,0,.19-.04.38-.14.55-.09.17-.23.31-.39.41-.18.11-.39.18-.61.2-.24.05-.5.08-.74.14.24.07.5.1.74.15.27.05.55.02.81-.08.28-.11.51-.3.68-.54.16-.24.25-.53.25-.82,0-.19.05-.37.15-.54.1-.16.24-.3.41-.39.19-.11.4-.17.62-.18.28-.05.53-.08.75-.14Z" style="fill:#e1e1f7;"/><path d="m146.1,207c-.24-.06-.49-.09-.73-.14-.27-.05-.55-.04-.81.05-.28.1-.53.28-.7.52s-.27.52-.27.82c0,.19-.04.38-.13.55-.09.17-.23.31-.39.41-.18.11-.39.18-.61.2-.24.05-.49.08-.74.14.25.07.5.09.74.15.27.04.55.02.81-.08.27-.12.5-.31.67-.55.16-.24.25-.52.25-.81,0-.19.06-.37.16-.53.1-.16.24-.3.4-.39.19-.11.4-.17.63-.18.21-.06.5-.08.74-.15Z" style="fill:#e1e1f7;"/><path d="m172.59,211.22c-.25-.07-.49-.1-.74-.15-.21-.04-.44-.04-.65,0-.21.05-.41.14-.58.28-.17.13-.31.3-.4.49-.1.19-.15.4-.15.61,0,.19-.04.38-.14.54-.09.17-.23.31-.39.41-.18.11-.39.18-.61.2-.25.05-.49.08-.74.14.24.06.49.11.74.15.27.05.56.02.81-.08.28-.11.51-.3.68-.55.16-.24.25-.53.25-.82,0-.19.05-.37.15-.54.1-.16.24-.3.4-.39.19-.11.41-.17.63-.18.25-.05.49-.08.75-.14Z" style="fill:#e1e1f7;"/><path d="m133.9,187.58c-.24-.06-.49-.09-.73-.14-.21-.04-.44-.04-.65,0-.21.05-.41.14-.59.28-.17.13-.31.3-.41.49-.1.19-.15.4-.15.61,0,.19-.04.38-.13.55-.09.17-.23.31-.39.41-.18.11-.39.18-.61.2-.24.05-.49.08-.73.14.24.07.49.09.73.15.27.05.56.02.81-.08.27-.12.51-.31.67-.55.16-.24.25-.52.25-.81,0-.19.06-.37.16-.53.1-.16.24-.3.4-.39.19-.11.4-.17.62-.18.23-.05.5-.08.75-.15Z" style="fill:#e1e1f7;"/><path d="m100.03,219.37c-.24-.06-.5-.1-.74-.14-.27-.06-.55-.04-.81.05-.28.1-.53.28-.7.52-.17.24-.27.52-.27.81,0,.19-.05.38-.14.54-.09.17-.23.31-.39.42-.19.11-.39.17-.61.2-.25.05-.5.08-.74.14.24.07.49.1.74.15.22.04.44.03.65-.03.21-.05.41-.15.58-.29.17-.14.3-.31.39-.5.09-.19.13-.4.13-.62,0-.19.05-.37.15-.54.1-.16.24-.3.41-.39.19-.11.4-.17.62-.19.24-.05.49-.05.73-.14Z" style="fill:#e1e1f7;"/><path d="m113.48,199.96c-.24-.06-.5-.09-.74-.14-.21-.04-.44-.04-.65,0-.21.05-.41.14-.58.28-.17.13-.31.3-.4.49-.1.19-.15.4-.15.61,0,.19-.04.38-.14.55-.09.17-.23.31-.39.41-.18.11-.39.18-.61.2-.24.05-.5.08-.74.14.24.07.5.1.74.15.27.05.56.02.81-.08.28-.11.51-.3.68-.54.17-.24.25-.53.25-.82,0-.19.05-.37.15-.54.1-.16.24-.3.41-.39.19-.11.4-.17.62-.18.25-.05.5-.08.75-.15Z" style="fill:#e1e1f7;"/><path d="m84.9,228.24c-.25-.06-.5-.09-.74-.14-.21-.04-.44-.04-.65,0-.21.05-.41.14-.58.28-.17.13-.31.3-.4.49-.1.19-.15.4-.15.61,0,.19-.05.38-.14.54s-.23.31-.39.41c-.18.11-.39.18-.61.2-.25.05-.5.08-.74.14.24.06.49.11.74.15.27.05.56.02.81-.08.28-.11.51-.3.67-.54.16-.24.25-.53.24-.82,0-.19.06-.37.16-.53.1-.16.24-.3.4-.39.19-.11.41-.17.63-.18.25-.05.49-.08.75-.15Z" style="fill:#e1e1f7;"/><path d="m152.07,159.24c.12.21.28.4.41.61.12.18.28.33.46.45.19.11.4.18.62.21.22.02.44,0,.65-.07.21-.07.4-.19.55-.34.14-.14.31-.24.49-.29.19-.06.39-.06.58-.02.21.05.41.14.58.27.2.15.41.28.62.4-.13-.21-.28-.4-.41-.6-.16-.23-.38-.4-.64-.51-.27-.1-.57-.13-.86-.07-.29.06-.55.2-.76.4-.14.13-.31.23-.5.27s-.39.05-.58,0c-.21-.06-.41-.16-.57-.3-.26-.13-.46-.28-.64-.4Z" style="fill:#e1e1f7;"/><path d="m161.88,143.32c.12.21.28.4.41.6.12.18.28.33.46.45.19.11.4.18.62.21.22.02.44,0,.65-.07.21-.07.4-.19.55-.34.13-.14.3-.24.49-.29.19-.06.39-.06.58-.02.21.05.41.14.58.28.2.14.41.28.62.4-.13-.21-.28-.4-.41-.61-.16-.23-.38-.4-.64-.51-.27-.1-.58-.13-.86-.07-.29.06-.55.2-.76.4-.14.13-.31.23-.5.28-.19.05-.39.05-.58,0-.21-.06-.41-.16-.57-.3-.23-.13-.42-.28-.64-.4Z" style="fill:#e1e1f7;"/><path d="m112.26,186.97c.13.22.28.41.41.6.15.23.37.41.63.53.27.11.57.15.86.1.29-.05.56-.18.77-.38.14-.14.31-.24.49-.29.19-.06.39-.06.58-.02.21.05.41.14.58.28.21.13.41.28.62.4-.12-.21-.28-.4-.41-.61-.16-.23-.38-.4-.63-.51-.28-.1-.57-.12-.86-.07-.29.06-.55.2-.76.4-.14.13-.31.23-.5.27-.19.05-.39.05-.57,0-.21-.05-.41-.15-.58-.29-.23-.13-.42-.28-.62-.41Z" style="fill:#e1e1f7;"/><path d="m137.07,135.35c.12.21.28.4.41.61.15.23.37.4.62.52.27.12.58.16.88.11.3-.05.57-.18.79-.38.14-.14.3-.24.49-.29.19-.06.39-.07.58-.03.21.05.41.14.58.28.21.13.41.28.62.41-.12-.22-.28-.41-.41-.61-.16-.23-.38-.4-.64-.5-.27-.1-.58-.13-.86-.07-.29.06-.55.2-.76.4-.14.14-.32.24-.51.29-.19.05-.4.05-.59,0-.21-.06-.4-.16-.57-.3-.24-.16-.4-.31-.62-.42Z" style="fill:#e1e1f7;"/><path d="m154.28,123.58c.12.21.28.4.41.61.15.23.37.41.62.53.28.12.58.16.88.11.3-.05.57-.19.79-.39.14-.14.31-.24.49-.29.19-.06.39-.06.58-.02.21.04.41.14.58.28.21.13.41.28.63.4-.12-.21-.28-.4-.41-.61-.16-.23-.38-.41-.64-.51-.27-.1-.57-.13-.86-.07-.29.06-.55.2-.76.4-.14.13-.31.23-.5.28-.19.05-.39.05-.58,0-.21-.06-.4-.16-.57-.3-.23-.13-.41-.28-.64-.4Z" style="fill:#e1e1f7;"/><path d="m138.04,150.32c-.07.24-.1.48-.15.72-.05.26-.03.53.06.79.11.27.3.51.54.67.25.17.54.26.84.26.2,0,.39.04.56.13.17.09.32.22.43.38.12.18.19.38.2.59.06.24.08.48.15.72.06-.24.1-.48.15-.72.06-.26.03-.54-.08-.79-.12-.27-.31-.5-.56-.65-.25-.16-.54-.24-.84-.24-.19,0-.39-.05-.55-.15-.17-.1-.31-.23-.4-.39-.11-.18-.17-.39-.19-.6-.05-.24-.08-.48-.15-.72Z" style="fill:#e1e1f7;"/><path d="m143.9,192.23c-.07.24-.1.48-.15.72-.04.21-.04.42,0,.63.05.21.15.4.29.57.14.17.31.3.51.39.2.09.41.14.63.14.2,0,.39.04.56.13.17.09.32.22.43.38.11.18.18.38.2.59.05.24.08.48.15.72.07-.24.11-.48.15-.72.05-.26.02-.54-.08-.79-.12-.27-.31-.49-.56-.65-.25-.16-.54-.24-.84-.24-.2,0-.39-.05-.56-.15-.17-.1-.31-.23-.4-.4-.11-.18-.17-.39-.19-.6-.05-.24-.11-.49-.15-.72Z" style="fill:#e1e1f7;"/><path d="m87.07,211.64c-.07.24-.11.47-.15.71-.05.21-.04.42,0,.63.05.21.15.4.29.57.14.17.31.3.51.39.2.09.41.14.63.15.2,0,.39.04.56.13.17.09.32.22.43.38.12.18.19.38.2.59.05.24.08.47.15.71.07-.24.11-.47.15-.71.05-.26.02-.54-.08-.79-.12-.26-.32-.49-.57-.65-.25-.16-.54-.24-.84-.24-.19,0-.38-.06-.55-.15s-.31-.23-.41-.39c-.11-.19-.17-.39-.19-.61-.06-.25-.09-.49-.15-.72Z" style="fill:#e1e1f7;"/><path d="m113.4,156.13c-.07.24-.1.47-.15.72-.06.26-.04.54.06.79.11.27.29.51.54.68.25.17.54.26.84.27.2,0,.39.04.56.13.17.09.32.22.43.38.11.18.18.38.2.59.05.24.08.47.15.72.07-.24.1-.48.15-.72.04-.21.03-.42-.03-.63-.06-.21-.16-.4-.3-.56-.14-.16-.32-.29-.52-.38-.2-.09-.42-.13-.64-.12-.19,0-.39-.05-.55-.15s-.31-.23-.4-.39c-.11-.18-.18-.39-.19-.6-.06-.24-.08-.48-.15-.72Z" style="fill:#e1e1f7;"/><path d="m113.4,223.38c-.07.24-.1.47-.15.71-.05.21-.04.42,0,.63.05.21.15.4.29.57s.31.3.51.39c.2.09.42.14.64.15.2,0,.39.04.56.13.17.09.32.22.43.38.12.18.19.38.2.59.05.24.08.47.15.71.07-.24.1-.47.15-.71.05-.26.02-.54-.08-.79-.12-.26-.32-.49-.57-.65-.25-.16-.54-.24-.84-.24-.19,0-.38-.06-.55-.15-.17-.1-.31-.23-.41-.39-.11-.18-.18-.39-.19-.6-.06-.23-.08-.46-.15-.72Z" style="fill:#e1e1f7;"/><path d="m100.03,184.88c-.07.24-.1.48-.15.72-.05.21-.05.42,0,.63.05.21.15.4.28.57.14.17.31.3.51.39.2.09.42.14.64.14.2,0,.39.04.56.13.17.09.32.22.43.38.12.18.19.38.2.59.06.24.08.48.15.72.06-.24.1-.48.15-.72.06-.26.03-.54-.08-.79-.11-.27-.31-.49-.56-.65-.25-.16-.54-.24-.84-.24-.2,0-.39-.05-.56-.15-.17-.1-.31-.23-.41-.4-.11-.18-.17-.39-.19-.6-.05-.24-.11-.49-.15-.72Z" style="fill:#e1e1f7;"/><path d="m167.76,193.73c-.07.24-.1.47-.15.71-.05.21-.05.42,0,.63.05.21.15.4.28.57.14.17.31.3.51.39.2.09.42.14.64.14.2,0,.39.04.56.13.17.09.32.22.43.38.12.18.19.38.2.59.06.24.08.47.16.71.06-.24.1-.47.15-.71.05-.26.02-.54-.08-.79-.12-.26-.31-.49-.56-.65-.25-.16-.54-.24-.84-.24-.19,0-.39-.06-.55-.15-.17-.1-.31-.23-.41-.39-.11-.19-.17-.39-.19-.61-.05-.25-.08-.49-.15-.72Z" style="fill:#e1e1f7;"/><path d="m166.44,156.13c-.06.24-.11.47-.15.72-.06.26-.04.53.05.79.11.27.29.51.54.68s.54.26.84.27c.2,0,.39.04.57.13.17.09.32.22.43.38.12.18.19.38.2.59.06.24.08.47.15.72.07-.24.1-.48.15-.72.05-.26.03-.54-.07-.79-.12-.27-.31-.49-.56-.65-.25-.16-.54-.24-.84-.24-.2,0-.39-.05-.56-.15-.17-.1-.31-.23-.41-.39-.11-.18-.17-.39-.19-.6-.05-.25-.08-.49-.15-.72Z" style="fill:#e1e1f7;"/><path d="m152.27,131.69c-.07.24-.1.47-.15.72-.06.26-.04.53.06.79.11.27.29.51.54.68.25.17.54.26.84.27.2,0,.39.04.56.13.17.09.32.22.43.38.11.18.18.38.2.59.05.24.08.47.15.72.07-.24.1-.48.15-.72.05-.26.02-.54-.08-.79-.12-.26-.32-.49-.57-.65-.25-.16-.54-.24-.84-.24-.19,0-.38-.05-.55-.15-.17-.1-.31-.23-.41-.39-.11-.18-.18-.39-.19-.6-.06-.28-.08-.49-.15-.73Z" style="fill:#e1e1f7;"/><path d="m156.07,169.47c-.07.24-.1.48-.15.72-.05.21-.04.42,0,.63.05.21.15.4.29.57.14.17.31.3.51.4.2.09.42.14.64.15.2,0,.39.04.56.13.17.09.32.22.43.38.12.18.19.38.2.59.05.24.08.47.15.71.07-.24.11-.47.15-.71.05-.26.02-.54-.08-.79-.12-.26-.32-.49-.57-.65-.25-.16-.54-.24-.84-.24-.19,0-.38-.06-.55-.15-.17-.09-.31-.23-.41-.39-.11-.19-.17-.39-.19-.61-.05-.25-.1-.49-.15-.73Z" style="fill:#e1e1f7;"/><path d="m121.93,174.55c-.07.24-.1.48-.15.72-.05.21-.04.42,0,.63.05.21.15.4.29.57.14.17.31.3.51.39.2.09.41.14.63.14.2,0,.39.04.56.13.17.09.32.22.43.38.11.18.18.38.2.59.05.24.08.48.15.72.07-.24.1-.48.15-.72.05-.26.02-.54-.08-.79-.12-.27-.31-.49-.56-.65-.25-.16-.54-.24-.84-.24-.19,0-.39-.05-.55-.15-.17-.1-.31-.23-.41-.4-.11-.18-.18-.39-.19-.6-.07-.24-.07-.49-.15-.72Z" style="fill:#e1e1f7;"/><path d="m153.49,216.98c-.07.24-.1.48-.15.72-.05.21-.05.42,0,.63.05.21.15.4.28.57.14.17.31.3.51.39.2.09.42.14.64.14.2,0,.39.04.57.13.17.09.32.22.43.38.12.17.19.37.21.58.04.24.09.48.15.72.07-.24.1-.47.15-.72.05-.26.03-.54-.07-.79-.12-.27-.31-.49-.56-.65-.25-.16-.54-.24-.84-.24-.2,0-.39-.06-.56-.15-.17-.1-.31-.23-.41-.39-.1-.19-.17-.39-.19-.61-.05-.24-.08-.48-.15-.72Z" style="fill:#e1e1f7;"/><path d="m127.79,162.56c-.13-.21-.29-.4-.42-.61-.15-.23-.36-.41-.62-.52-.27-.11-.57-.15-.86-.1-.29.05-.56.18-.77.37-.14.14-.31.24-.5.29-.19.06-.39.07-.58.03-.21-.05-.4-.14-.57-.28-.21-.14-.41-.28-.63-.41.13.22.28.41.42.61.16.22.38.4.63.5.28.1.58.13.86.07.29-.06.55-.2.76-.4.14-.13.31-.22.5-.27.19-.05.38-.05.57,0,.21.06.4.16.57.3.2.13.4.28.63.4Z" style="fill:#e1e1f7;"/><path d="m147.7,180.03c-.12-.21-.28-.4-.41-.61-.12-.18-.28-.33-.46-.45-.19-.11-.4-.18-.62-.21-.22-.02-.44,0-.65.07-.21.07-.4.19-.55.34-.13.14-.3.24-.49.3-.19.05-.39.06-.58.02-.21-.05-.41-.14-.58-.28-.2-.14-.41-.28-.63-.4.13.21.28.4.41.61.12.18.29.32.48.43.19.11.4.17.62.19.22.02.44-.01.65-.09.21-.08.39-.19.54-.35.14-.13.31-.23.5-.27.19-.05.39-.05.57,0,.21.06.4.16.57.3.21.13.41.28.62.4Z" style="fill:#e1e1f7;"/><path d="m161.2,205.76c-.13-.22-.28-.41-.42-.61-.12-.18-.28-.33-.46-.45-.19-.11-.4-.18-.62-.21-.22-.02-.44,0-.65.07-.21.07-.4.19-.55.34-.14.14-.31.24-.49.29-.19.05-.39.06-.58.02-.21-.05-.41-.14-.58-.28-.2-.14-.41-.28-.63-.4.13.21.28.4.42.61.12.18.29.32.47.43.19.11.4.17.62.19.22.02.44-.01.65-.09.21-.08.39-.19.54-.35.14-.13.31-.23.5-.27.19-.05.39-.05.58,0,.21.05.41.15.57.29.21.14.44.28.63.41Z" style="fill:#e1e1f7;"/><path d="m155.37,232.5c-.13-.21-.29-.4-.42-.61-.15-.23-.36-.41-.62-.52-.27-.11-.57-.15-.85-.1-.29.05-.56.18-.77.37-.14.14-.3.24-.49.3-.19.06-.39.07-.58.03-.21-.05-.41-.15-.58-.28-.2-.13-.4-.28-.63-.4.13.22.28.41.41.61.16.23.38.4.64.51.27.1.57.13.86.07.29-.06.55-.2.76-.4.14-.13.31-.22.5-.27.19-.05.38-.05.57,0,.21.06.4.16.57.3.19.13.39.28.62.4Z" style="fill:#e1e1f7;"/><path d="m129.25,203.11c-.12-.21-.28-.4-.41-.61-.15-.22-.37-.4-.62-.52-.27-.12-.58-.16-.88-.11-.3.05-.57.18-.79.38-.14.14-.31.24-.49.3-.19.06-.39.07-.58.03-.21-.05-.41-.14-.58-.28-.2-.13-.4-.28-.63-.41.13.22.28.41.41.61.16.23.38.4.64.5.28.1.57.13.86.07.29-.06.55-.2.76-.4.14-.13.32-.22.5-.27.19-.05.39-.05.58,0,.21.06.4.16.57.3.23.13.42.28.64.4Z" style="fill:#e1e1f7;"/><path d="m111.28,213.76c-.12-.21-.28-.4-.42-.61-.15-.22-.37-.4-.62-.52-.27-.11-.57-.15-.86-.1-.29.05-.56.18-.77.37-.14.14-.31.24-.49.3-.19.06-.39.06-.58.03-.21-.05-.41-.14-.58-.27-.21-.13-.41-.28-.63-.41.12.22.28.41.42.61.15.23.38.4.64.5.28.1.57.13.86.07.29-.06.55-.2.76-.4.14-.13.32-.22.5-.27.19-.05.39-.05.58,0,.21.06.4.16.57.3.19.13.38.28.6.4Z" style="fill:#e1e1f7;"/><path d="m141.51,221.85c-.12-.21-.28-.4-.41-.61-.15-.23-.36-.41-.62-.52-.27-.12-.58-.16-.88-.11-.3.05-.57.18-.79.38-.14.14-.31.24-.49.3-.19.06-.39.07-.58.03-.21-.05-.41-.15-.58-.28-.2-.13-.4-.27-.62-.4.13.22.28.41.41.61.16.23.38.41.64.51.28.1.58.13.86.07.29-.06.55-.2.76-.4.14-.13.32-.22.5-.27.19-.05.39-.05.58,0,.21.06.4.16.57.3.23.13.42.28.64.4Z" style="fill:#e1e1f7;"/><path d="m102.51,232.5c-.13-.21-.28-.4-.41-.61-.15-.23-.36-.4-.62-.52-.27-.12-.58-.16-.88-.11-.3.05-.57.18-.79.38-.14.14-.31.24-.49.29-.19.06-.39.07-.58.03-.21-.05-.41-.14-.58-.28-.21-.14-.41-.28-.63-.41.12.22.28.41.41.61.16.22.38.4.63.5.27.1.57.13.86.07.29-.06.55-.2.76-.4.14-.13.31-.22.5-.27.19-.05.38-.05.57,0,.21.06.41.16.58.3.24.13.44.28.65.4Z" style="fill:#e1e1f7;"/><path d="m98.11,203.72c-.12-.22-.28-.41-.41-.61-.15-.22-.37-.4-.62-.52-.27-.12-.58-.16-.88-.11-.3.05-.57.18-.79.38-.14.14-.31.24-.49.29-.19.06-.39.07-.58.03-.21-.05-.41-.14-.58-.28-.21-.13-.41-.28-.63-.41.12.22.28.41.41.61.16.23.38.4.64.5.27.1.57.13.86.07.29-.06.55-.2.76-.4.14-.13.31-.22.5-.27.19-.05.38-.05.57,0,.21.06.41.16.58.3.23.14.42.29.64.41Z" style="fill:#e1e1f7;"/><path d="m169.33,225.54c-.13-.22-.28-.41-.41-.61-.15-.22-.37-.4-.62-.52-.27-.12-.58-.16-.88-.11-.3.05-.57.18-.79.38-.14.14-.31.24-.49.29-.19.06-.39.07-.58.03-.21-.05-.41-.14-.58-.27-.21-.13-.41-.28-.63-.41.12.22.28.41.41.61.15.22.38.4.63.5.27.1.57.13.86.07.29-.06.55-.2.76-.4.14-.13.31-.22.5-.27.19-.05.38-.05.57,0,.21.05.41.15.58.29.24.13.45.28.65.41Z" style="fill:#e1e1f7;"/><path d="m171.57,180.63c-.12-.21-.28-.4-.41-.61-.15-.23-.37-.41-.62-.53-.28-.12-.58-.16-.88-.1-.3.05-.57.19-.79.39-.14.14-.31.24-.49.29-.19.06-.39.06-.58.02-.21-.04-.41-.14-.58-.28-.21-.13-.41-.28-.63-.4.13.21.26.41.42.61.16.23.38.4.63.51.28.1.57.13.86.07.29-.06.55-.2.76-.4.14-.13.31-.22.5-.27.19-.05.39-.05.57,0,.21.06.41.16.58.3.23.13.42.28.65.4Z" style="fill:#e1e1f7;"/><path d="m145.06,120.72c.3,1.47,7.16,11.15,14.05,11.07,2.24-.04,2.6-11.9,2.6-11.9l.24-.87,3.25-12.18-14.57-9.73-2.11-1.29s-.66,3.39-1.45,7.61c0,.2-.07.39-.1.61-.03.21-.11.46-.14.68-.13.63-.25,1.28-.37,1.92-.09.49-.17.96-.24,1.48s-.15,1.02-.24,1.57c-.56,3.65-.87,7.33-.91,11.02h0Z" style="fill:#f6ad95;"/><path d="m147.07,103.44c1.16,3.49,3.1,6.69,5.67,9.38,2.57,2.69,5.71,4.81,9.21,6.21l3.25-12.18-14.57-9.73-2.11-1.29s-.66,3.39-1.45,7.61Z" style="fill:#1b6654;"/><path d="m183.05,88.76c.6,22.07-13,24.91-17.87,25.03-4.46.11-19.67-.06-22.63-21.95-2.96-21.89,7.46-29.1,17.65-29.89,10.19-.79,22.25,4.74,22.85,26.82Z" style="fill:#f6ad95;"/><path d="m179.59,82.08c-.54-.09-1.01-.24-1.53-.38-.55-.07-1.07-.3-1.48-.68-.1-.14-.15-.31-.15-.49,0-.17.07-.34.19-.47.27-.23.6-.38.95-.45.35-.07.72-.04,1.05.08.72.13,1.36.52,1.8,1.09.09.14.14.29.14.46,0,.16-.04.32-.13.46-.09.14-.22.25-.37.31-.15.07-.32.09-.49.07h0Z" style="fill:#1b6654;"/><path d="m164.35,85.31c.52-.06,1.05-.14,1.56-.25.56-.01,1.09-.21,1.53-.54.12-.13.18-.3.19-.47,0-.17-.04-.35-.14-.49-.25-.25-.56-.43-.91-.53-.35-.1-.71-.1-1.06-.01-.73.07-1.41.41-1.89.94-.11.13-.17.28-.19.44-.02.16.01.32.09.47.08.14.2.26.34.34.15.08.31.12.48.11h0Z" style="fill:#1b6654;"/><path d="m176.22,89.26c0-.06.11.08.11.14-.15,1.49-.07,3.23,1.29,3.82.05,0,0,.09,0,.09-1.71-.35-1.8-2.66-1.41-4.05Z" style="fill:#1b6654;"/><path d="m177.72,87.78c2.5,0,2.36,4.83.04,4.85-2.32.02-2.13-4.83-.04-4.85Z" style="fill:#1b6654;"/><path d="m178.75,88.14c.39.27.76.74,1.24.79.48.05.97-.46,1.33-.96,0-.05.07,0,.07.06,0,.93-.35,1.89-1.27,2.04-.92.15-1.44-.67-1.62-1.57-.06-.2.09-.46.24-.35Z" style="fill:#1b6654;"/><path d="m166.03,102.11c.38.34.77.79,1.34.84.57-.04,1.12-.19,1.62-.44.01,0,.02,0,.04,0,.01,0,.02,0,.03.02,0,0,.01.02.01.03,0,.01,0,.02,0,.03-.21.3-.51.55-.85.7-.34.15-.72.22-1.1.18-.32-.07-.61-.23-.84-.46-.23-.23-.38-.52-.43-.83.03-.09.12-.12.18-.07Z" style="fill:#1b6654;"/><path d="m173.79,96.07s.18,2.25.12,3.3c-2.13-.11-4.26.07-6.34.53-.49.13-.46-.26.1-.54,1.65-.83,3.51-1.16,5.35-.96.1-.29-.35-3.46-.18-3.46.84.12,1.66.35,2.44.68-.24-4.72-1.27-9.31-1.44-13.99,0-.03,0-.07.03-.1.02-.03.05-.05.09-.05.04,0,.07,0,.1.02.03.02.05.04.07.08,1.43,4.77,1.84,10.17,2.22,15.02.05.6-2.14-.31-2.56-.52Z" style="fill:#1b6654;"/><path d="m162.95,89.34c.91-.35,1.91-.42,2.87-.22.51.11,1,.32,1.43.61.44.32.81.74,1.06,1.21l.48.86-.98-.1c-.69-.07-1.39-.07-2.08,0-.72.06-1.42.3-2.01.69.39-.69,1.05-1.21,1.84-1.44.76-.24,1.57-.33,2.37-.26l-.5.79c-.42-.68-1.07-1.21-1.84-1.49-.85-.32-1.73-.54-2.63-.65h0Z" style="fill:#1b6654;"/><path d="m165.77,93.25c.74-.17,1.44-.43,2.1-.79.15-.09.75-.53.72-.65-.08-.37-.22-.72-.39-1.05.27.3.48.64.61,1.02-.04.21-.14.4-.27.57s-.3.31-.49.41c-.7.36-1.49.53-2.27.49h0Z" style="fill:#1b6654;"/><path d="m171.16,99.22s-1.41,1.97-3.04,2.2c-1.87.28-2.09-1.35,0-2.27,1.06-.48,3.04.07,3.04.07Z" style="fill:#1b6654;"/><path d="m168.13,101.46c.71-.14,1.36-.48,1.88-.97-.39-.56-1.28-1.18-3.29-.13-.29.66.23,1.24,1.41,1.1Z" style="fill:#f6ad95;"/><path d="m142.69,92.36c3.75.46,5-7.15,5-7.15,0,0,7.65.38,10.72-10.16-.38,3.18-1.71,6.19-3.83,8.65,0,0,13.58-.79,19.81-11.43,0,0-2.55,5.47-4.78,7.35,0,0,5.74-1.26,8.73-5.58,0,0,2.05,6.43,3.78,8.26,0,0,.59-22.9-21.42-21.5,0,0-13.75.24-19.2,10.51-5.45,10.27,1.19,21.06,1.19,21.06Z" style="fill:#1b6654;"/><path d="m146.2,93.43s-4.54-7.17-7.87-5.64c-3.33,1.53-.21,11.72,3.49,13.3.46.24.96.38,1.48.42s1.04-.02,1.53-.18c.49-.16.95-.41,1.34-.75.39-.33.71-.74.93-1.19l-.89-5.96Z" style="fill:#f6ad95;"/><path d="m139.29,90.69c-.06,0-.07.07,0,.09,2.59,1.2,3.84,3.66,4.66,6.19-.73-1-1.77-1.57-3.14-.79-.07.04,0,.15.06.14.48-.12.98-.09,1.43.08s.85.47,1.12.87c.45.66.83,1.37,1.12,2.11.11.24.54.14.47-.13,0-.02,0-.04,0-.06.23-3.25-2.11-7.97-5.73-8.51Z" style="fill:#1b6654;"/><path d="m143.95,99.94c-.01.2-.09.4-.21.56-.13.16-.3.29-.5.35-.2.07-.41.08-.62.02-.2-.05-.39-.16-.53-.31-.14-.15-.23-.34-.26-.54-.03-.2,0-.41.1-.59.09-.18.24-.34.42-.44.18-.1.39-.15.6-.14.14,0,.28.04.4.1.13.06.24.14.33.24.09.1.16.22.21.35.04.13.06.26.06.4h0Z" style="fill:#e1e1f7;"/><path d="m141.39,98.24c0,.13-.05.26-.13.36-.08.11-.19.18-.32.23-.13.04-.27.05-.4.02-.13-.03-.25-.1-.34-.2-.09-.1-.15-.22-.17-.35-.02-.13,0-.26.06-.38.06-.12.15-.22.27-.28.12-.07.25-.1.38-.09.09,0,.18.03.26.06.08.04.15.09.21.15.06.06.11.14.13.22.03.08.04.17.04.25Z" style="fill:#e1e1f7;"/><path d="m215.33,141.16l11.8,2.66-8.49,35.37-11.8-2.65,8.49-35.37Z" style="fill:#ebebeb;"/><path d="m244.09,47.29c9.86,2.22,18.82,7.22,25.74,14.37,6.92,7.15,11.5,16.12,13.16,25.79,1.66,9.67.31,19.59-3.86,28.52-4.17,8.93-10.98,16.46-19.57,21.64-8.59,5.18-18.57,7.78-28.69,7.47s-19.91-3.52-28.14-9.22c-8.23-5.7-14.54-13.63-18.12-22.8-3.58-9.17-4.27-19.15-1.98-28.7,1.52-6.34,4.31-12.33,8.22-17.63,3.91-5.3,8.86-9.8,14.57-13.24,5.71-3.44,12.06-5.76,18.7-6.83,6.64-1.07,13.42-.85,19.97.62h0Zm-20.73,86.42c7.79,1.75,15.94,1.23,23.42-1.5,7.48-2.73,13.96-7.55,18.61-13.85,4.65-6.3,7.27-13.79,7.53-21.53.25-7.74-1.87-15.38-6.09-21.95-4.23-6.57-10.38-11.78-17.66-14.97-7.29-3.19-15.39-4.21-23.28-2.94-7.89,1.27-15.21,4.77-21.04,10.07-5.83,5.3-9.91,12.15-11.71,19.69-2.42,10.11-.6,20.73,5.07,29.54,5.67,8.81,14.71,15.07,25.15,17.43h0Z" style="fill:#56b573;"/><path d="m211.3,166.52l7.91,1.78c2.74.62,4.45,3.27,3.81,5.92l-10.12,42.18c-.64,2.65-3.38,4.3-6.12,3.69l-7.91-1.78c-2.74-.62-4.45-3.27-3.81-5.92l10.12-42.18c.64-2.65,3.37-4.3,6.12-3.69Z" style="fill:#1b6654;"/><g style="opacity:.3;"><path d="m193.13,86.73c-1.81,7.54-1.26,15.43,1.56,22.67,2.82,7.24,7.8,13.51,14.31,18.01s14.24,7.03,22.23,7.28c7.99.24,15.88-1.81,22.66-5.9,6.78-4.09,12.16-10.04,15.45-17.1,3.29-7.05,4.35-14.89,3.04-22.53-1.31-7.63-4.93-14.72-10.4-20.37-5.47-5.64-12.54-9.59-20.33-11.34-5.17-1.16-10.53-1.33-15.77-.49-5.24.84-10.25,2.67-14.76,5.39-4.51,2.72-8.41,6.27-11.5,10.45-3.09,4.18-5.29,8.91-6.49,13.92h0Z" style="fill:#e1e1f7; isolation:isolate; opacity:.3;"/><path d="m192.14,97.76c.6,10.3,5.37,19.96,13.28,26.87,7.91,6.91,18.32,10.53,28.97,10.05l-42.25-36.92Z" style="fill:#ebebeb; isolation:isolate; opacity:.3;"/><path d="m210.74,62.6l57.87,50.57c1.44-2.78,2.53-5.71,3.25-8.74.84-3.47,1.18-7.04,1.01-10.6l-42.73-37.34c-6.9.39-13.58,2.49-19.4,6.1h0Z" style="fill:#ebebeb; isolation:isolate; opacity:.3;"/><path d="m194.24,82.98l55.12,48.16c2.41-1.07,4.7-2.37,6.85-3.88l-58.7-51.29c-1.33,2.22-2.43,4.57-3.27,7h0Z" style="fill:#ebebeb; isolation:isolate; opacity:.3;"/><path d="m206.29,65.8l59.52,51.99c.28-.39.55-.79.81-1.19l-59.18-51.7c-.41.28-.79.57-1.15.9Z" style="fill:#ebebeb; isolation:isolate; opacity:.3;"/><path d="m243.62,57.95l26.4,23.06c-.45-1.09-.95-2.16-1.5-3.2l-21.47-18.77c-1.11-.4-2.26-.77-3.43-1.09Z" style="fill:#ebebeb; isolation:isolate; opacity:.3;"/></g><path d="m261.2,102.35c0-.05,0-.1,0-.16.15-.79-.11.75,0,.24.11-.51.16-1.21.21-1.82.19-2.14.19-4.28,0-6.42,0-.31-.06-.61-.08-.9,0-.09.09.71,0,.07l-.07-.55c-.1-.71-.22-1.42-.37-2.12-.31-1.54-.72-3.06-1.24-4.55-.12-.35-.26-.71-.39-1.06-.17-.48.23.53-.04-.1l-.27-.62c-.35-.79-.73-1.57-1.14-2.36s-.93-1.63-1.45-2.41c-.24-.36-.49-.72-.74-1.07-.43-.61.2.24-.13-.18l-.48-.61c-1.48-1.8-3.13-3.46-4.94-4.96,0,0-.37-.29-.1-.07.28.22-.15-.12-.19-.16l-.81-.62c-.54-.39-1.1-.79-1.67-1.13-1.19-.77-2.42-1.48-3.69-2.13-.34-.21-.63-.48-.87-.79-.23-.32-.4-.67-.49-1.05-.09-.38-.1-.77-.03-1.15.07-.38.21-.75.43-1.08.21-.33.49-.61.82-.84s.7-.38,1.09-.47c.39-.09.79-.1,1.19-.03.4.07.77.21,1.11.41,8.03,4.15,14.62,10.69,17.94,18.94,2.24,5.55,3.2,11.51,2.8,17.45-.08,1.32-.26,2.64-.52,3.93-.23.75-.76,1.38-1.47,1.75-.71.37-1.54.46-2.32.24-.76-.24-1.4-.76-1.78-1.44-.38-.68-.48-1.48-.27-2.23l-.05.06Z" style="fill:#e1e1f7;"/><path d="m258.5,110.72c-.17.55-.17,1.13,0,1.68.18.55.51,1.03.97,1.39.46.36,1.02.58,1.61.64.59.05,1.18-.07,1.7-.34.52-.27.94-.69,1.22-1.19.28-.51.39-1.08.33-1.65s-.3-1.11-.67-1.55c-.38-.44-.88-.76-1.45-.93-.38-.11-.77-.15-1.16-.11-.39.04-.77.15-1.12.33-.35.18-.65.43-.9.72-.25.3-.43.64-.54,1Z" style="fill:#e1e1f7;"/><path d="m129.22,135.52c-7.31,25.6-10.82,51.29-6.78,64.55,2.58,8.45,8.82,14.16,12.78,16.05,9.27,4.44,40.02-1.86,60.06-5.76,4.92-.96-6.69-39.37-11.63-37.33-7.31,3-29.69,7.04-30.31,7.24-1.32.44-4.06-27.33-6-43.62-2.67-22.68-13.9-15.9-18.12-1.12Z" style="fill:#f6ad95;"/><path d="m233.78,165.71c2.18,3.44-.65,6.58-.65,6.58,1.86.9,3.33,2.4,4.16,4.24,1.31,3.3-3.47,6.74-3.47,6.74,1.72,1.32,3,3.11,3.65,5.14.93,3.29-3.39,7.42-3.39,7.42.89,2.06.99,4.36.27,6.48-2.15,5.59-11.37,7.43-17.22,8.65s-23.63-.63-27.06-.65l-8.41-36.29s24.62-12.7,31.68-13.19c6-.39,17.99,1.01,20.43,4.86Z" style="fill:#f6ad95;"/><path d="m232.74,171.77c-6.5-1.03-12.89-.17-19.35.35-.03,0-.06.01-.08.03-.02.02-.03.05-.03.08s.01.06.03.08c.02.02.05.03.08.03,6.43-.58,12.89.07,19.31-.26.04,0,.07-.02.1-.04.03-.03.04-.06.05-.1,0-.04,0-.07-.03-.1-.02-.03-.05-.05-.09-.06h0Z" style="fill:#1b6654;"/><path d="m233.58,182.83c-1.49-.1-2.99,0-4.45.28-1.57.2-3.13.42-4.69.68-3.12.52-6.23,1.1-9.33,1.74-.14,0-.13.24,0,.21,3.12-.5,6.24-.94,9.37-1.31,1.57-.19,3.14-.35,4.71-.52,1.49-.06,2.97-.28,4.41-.65.04-.02.08-.05.11-.09.03-.04.04-.09.04-.13,0-.05-.02-.09-.05-.13s-.07-.06-.12-.07h0Z" style="fill:#1b6654;"/><path d="m233.95,195.85c-1.27-.21-2.75.23-4,.46-1.42.26-2.84.5-4.26.75-2.84.49-5.69.97-8.55,1.36-.14,0-.12.24,0,.21,2.91-.38,5.82-.72,8.72-1.12,1.42-.2,2.85-.41,4.27-.62,1.21-.18,2.74-.28,3.82-.89.01,0,.02-.02.03-.03,0-.01.01-.03,0-.04,0-.01,0-.03-.01-.04,0-.01-.02-.02-.03-.03h0Z" style="fill:#1b6654;"/><path d="m225.75,161.95c2.95.37,6.33,1,8.24,3.43.88,1.03,1.32,2.35,1.21,3.69-.17,1.25-.82,2.38-1.82,3.18h0c1.18.37,2.23,1.05,3.02,1.97.8.92,1.31,2.04,1.48,3.22.05.6-.03,1.19-.23,1.76-.2.56-.52,1.08-.93,1.52-.41.46-.87.87-1.32,1.3-.45.43-.94.79-1.4,1.16.5.38.97.79,1.4,1.24.49.45.93.95,1.31,1.5.79,1.07,1.24,2.34,1.28,3.66-.07,1.31-.54,2.56-1.35,3.61-.66,1.08-1.59,1.99-2.71,2.63-.01,0-.03,0-.04,0-.01,0-.03-.01-.04-.02,0-.01-.01-.03-.01-.04,0-.02,0-.03.02-.04.88-.78,1.62-1.68,2.2-2.68.7-1.07,1.09-2.3,1.11-3.57-.11-1.2-.53-2.36-1.22-3.36-.34-.54-.72-1.07-1.12-1.57-.4-.41-.78-.85-1.12-1.31,0,0,.97-.99,1.31-1.42.34-.42.67-.88.98-1.34.65-.88.94-1.97.81-3.05-.19-1-.66-1.94-1.36-2.7-.68-.79-1.57-1.41-2.28-2.18-.03-.04-.04-.09-.05-.13,0-.05,0-.1,0-.14,1.62-2.45,1.42-4.78-.32-6.6-.89-.88-1.92-1.61-3.06-2.15-1.31-.58-2.67-1.05-4.06-1.42-.06,0-.03-.14.06-.13Z" style="fill:#1b6654;"/><path d="m171.89,214.8c1.73-.52,3.56-.79,5.33-1.16,1.77-.38,3.56-.73,5.35-1.08,1.79-.35,3.65-.69,5.47-1.02,1.82-.33,3.52-.7,5.29-.9,1.71-.16,3.43-.12,5.14.11,1.72.19,3.44.32,5.17.4,3.48.16,6.97.09,10.44-.22,3.93-.35,7.82-1.02,11.63-2,.08,0,.11.09,0,.12-6.61,2.13-13.53,3.2-20.5,3.15-1.72,0-3.45-.1-5.17-.27-1.71-.24-3.44-.38-5.17-.43-1.83.12-3.64.38-5.43.79-1.79.32-3.58.65-5.38.96-2.03.35-4.06.7-6.1,1.01-2.04.31-4.06.75-6.06.89-.15-.03-.15-.29,0-.33Z" style="fill:#1b6654;"/><path d="m146.65,181.85c2.6-.86,5.35-1.39,8.02-2.01,2.67-.62,5.38-1.22,8.07-1.81,5.13-1.12,10.34-2.08,15.44-3.45,1.34-.36,2.67-.79,3.97-1.21.66-.23,1.3-.48,1.94-.79.64-.31,1.38-.5,2.01-.79.07-.05.13.06.06.11-.51.31-.98.68-1.51.98s-1.17.6-1.77.87c-1.1.49-2.23.91-3.37,1.28-2.39.79-4.87,1.33-7.31,1.88-5.36,1.19-10.73,2.36-16.11,3.49-1.51.31-3.03.63-4.55.92-1.52.29-3.18.65-4.79.83-.04.01-.08,0-.11-.01-.03-.02-.06-.05-.07-.09-.01-.04-.01-.08,0-.11.02-.03.05-.06.08-.08Z" style="fill:#1b6654;"/><path d="m155.11,172.33l-37.16,4.89s6.79-37.4,14.01-49.79c7.13-12.22,14.99-4.14,17.99,10.64,3.36,16.39,5.16,34.26,5.16,34.26Z" style="fill:#28a086;"/><path d="m120.73,171.81c1.04-.24,2.1-.39,3.14-.61,1.04-.22,2.04-.37,3.06-.53,2.09-.31,4.18-.6,6.28-.87,4.13-.55,8.25-1.16,12.39-1.57,2.36-.25,4.7-.59,7.06-.79.02,0,.03,0,.05.02.01.01.02.03.02.04,0,.02,0,.03-.02.04-.01.01-.03.02-.05.02-4.1.93-8.29,1.62-12.45,2.27-4.16.65-8.25,1.27-12.4,1.71-1.16.12-2.32.27-3.49.32-1.17.06-2.4.16-3.59.18-.03,0-.07-.01-.09-.03-.02-.02-.04-.05-.04-.09,0-.03.01-.06.03-.09.02-.02.05-.04.09-.04h0Z" style="fill:#1b6654;"/></svg>