<?xml version="1.0" encoding="UTF-8"?>
<!DOCTYPE svg PUBLIC "-//W3C//DTD SVG 1.1//EN" "http://www.w3.org/Graphics/SVG/1.1/DTD/svg11.dtd">
<!-- Creator: CorelDRAW -->
<svg width="1178" height="309" viewBox="0 0 1178 309" fill="none" xmlns="http://www.w3.org/2000/svg">
<path d="M0.94903 125.053C-6.25097 175.853 29.2824 201.22 47.949 207.553V115.054H85.4492V9.05336C55.9492 7.05336 9.94903 61.5534 0.94903 125.053Z" fill="#56B573"/>
<path d="M169.501 125.051C176.701 175.851 141.168 201.217 122.501 207.55V115.052H85.0002V9.05336C114.5 7.0534 160.501 61.5525 169.501 125.051Z" fill="#28A086"/>
<path d="M55 207.5V124L85 134.5V197.5L55 207.5Z" fill="#56B573"/>
<circle cx="79.5" cy="165.5" r="1.5" fill="white"/>
<path d="M229.177 61.4043C229.177 57.7161 230.518 54.5309 233.2 51.8486C235.95 49.1663 239.202 47.8252 242.957 47.8252C246.846 47.8252 250.065 49.1328 252.613 51.748C255.229 54.2962 256.536 57.515 256.536 61.4043C256.536 65.2936 255.229 68.5794 252.613 71.2617C249.998 73.877 246.779 75.1846 242.957 75.1846C239.202 75.1846 235.95 73.8434 233.2 71.1611C230.518 68.4118 229.177 65.1595 229.177 61.4043ZM232.094 198V102.645H253.921V198H232.094ZM279.023 198V102.645H299.543V118.235C303.901 111.664 309.031 106.869 314.932 103.852C320.833 100.834 328.008 99.3252 336.458 99.3252C343.566 99.3252 349.601 100.465 354.563 102.745C359.592 104.958 363.515 108.277 366.332 112.703C368.008 115.318 369.215 118.369 369.953 121.856C370.69 125.343 371.059 131.446 371.059 140.163V198H349.031V149.015C349.031 136.475 347.489 128.16 344.404 124.069C341.386 119.912 335.988 117.833 328.21 117.833C323.113 117.833 318.553 118.772 314.53 120.649C310.574 122.527 307.455 125.176 305.175 128.596C303.566 130.876 302.426 133.826 301.756 137.447C301.152 141.001 300.85 146.701 300.85 154.547V198H279.023ZM462.448 150.021C462.448 140.163 460.134 132.485 455.507 126.986C450.947 121.488 444.543 118.738 436.295 118.738C428.047 118.738 421.543 121.588 416.782 127.288C412.088 132.921 409.741 140.767 409.741 150.825C409.741 160.951 412.021 168.763 416.58 174.262C421.14 179.76 427.578 182.51 435.893 182.51C443.806 182.51 450.21 179.559 455.105 173.658C460 167.69 462.448 159.811 462.448 150.021ZM461.844 42.0918H483.671V198H461.844V185.628C457.955 191.127 453.395 195.217 448.164 197.899C443.001 200.582 437.066 201.923 430.361 201.923C416.882 201.923 406.254 197.329 398.475 188.143C390.763 178.889 386.908 166.248 386.908 150.222C386.908 135 390.864 122.728 398.777 113.407C406.689 104.019 417.016 99.3252 429.757 99.3252C437.536 99.3252 444.175 100.968 449.673 104.254C455.239 107.473 459.296 112.133 461.844 118.235V42.0918ZM582.604 150.624C582.604 141.772 579.754 134.296 574.054 128.193C568.354 122.024 561.38 118.939 553.132 118.939C544.951 118.939 537.977 122.024 532.21 128.193C526.51 134.296 523.66 141.772 523.66 150.624C523.66 159.476 526.51 166.986 532.21 173.155C537.977 179.257 544.951 182.309 553.132 182.309C561.313 182.309 568.253 179.257 573.953 173.155C579.72 166.986 582.604 159.476 582.604 150.624ZM500.626 150.423C500.626 143.449 501.934 136.877 504.549 130.708C507.231 124.472 511.053 118.939 516.016 114.111C520.911 109.35 526.544 105.696 532.914 103.147C539.285 100.599 545.957 99.3252 552.931 99.3252C560.106 99.3252 566.845 100.599 573.148 103.147C579.519 105.696 585.219 109.451 590.248 114.413C595.277 119.308 599.1 124.84 601.715 131.01C604.33 137.179 605.638 143.65 605.638 150.423C605.638 157.464 604.33 164.069 601.715 170.238C599.167 176.408 595.411 181.873 590.449 186.634C585.219 191.663 579.418 195.452 573.048 198C566.677 200.615 559.972 201.923 552.931 201.923C546.024 201.923 539.385 200.615 533.015 198C526.644 195.452 520.978 191.73 516.016 186.835C510.986 181.873 507.164 176.307 504.549 170.138C501.934 163.968 500.626 157.397 500.626 150.423ZM697.529 150.624C697.529 141.772 694.679 134.296 688.979 128.193C683.279 122.024 676.305 118.939 668.057 118.939C659.876 118.939 652.902 122.024 647.135 128.193C641.436 134.296 638.586 141.772 638.586 150.624C638.586 159.476 641.436 166.986 647.135 173.155C652.902 179.257 659.876 182.309 668.057 182.309C676.238 182.309 683.179 179.257 688.879 173.155C694.646 166.986 697.529 159.476 697.529 150.624ZM615.551 150.423C615.551 143.449 616.859 136.877 619.474 130.708C622.157 124.472 625.979 118.939 630.941 114.111C635.836 109.35 641.469 105.696 647.84 103.147C654.21 100.599 660.882 99.3252 667.856 99.3252C675.031 99.3252 681.771 100.599 688.074 103.147C694.444 105.696 700.144 109.451 705.174 114.413C710.203 119.308 714.025 124.84 716.64 131.01C719.256 137.179 720.563 143.65 720.563 150.423C720.563 157.464 719.256 164.069 716.64 170.238C714.092 176.408 710.337 181.873 705.375 186.634C700.144 191.663 694.344 195.452 687.973 198C681.603 200.615 674.897 201.923 667.856 201.923C660.949 201.923 654.311 200.615 647.94 198C641.57 195.452 635.903 191.73 630.941 186.835C625.912 181.873 622.09 176.307 619.474 170.138C616.859 163.968 615.551 157.397 615.551 150.423ZM759.345 117.833C761.692 111.53 764.777 106.869 768.599 103.852C772.488 100.834 777.283 99.3252 782.983 99.3252C786.067 99.3252 789.085 99.694 792.036 100.432C795.053 101.169 798.004 102.242 800.887 103.65L793.041 122.158C791.164 120.817 789.119 119.845 786.906 119.241C784.76 118.571 782.346 118.235 779.663 118.235C772.421 118.235 767.224 121.152 764.073 126.986C760.921 132.753 759.345 142.477 759.345 156.156V198H737.518V102.443H759.345V117.833Z" fill="#2F4667"/>
<path d="M878.395 129.803C875.042 126.115 871.119 123.298 866.626 121.354C862.2 119.409 857.406 118.437 852.242 118.437C843.324 118.437 836.182 121.32 830.817 127.087C825.453 132.854 822.771 140.498 822.771 150.021C822.771 159.945 825.453 167.757 830.817 173.457C836.249 179.09 843.726 181.906 853.248 181.906C858.546 181.906 863.273 180.934 867.431 178.989C871.588 176.978 875.243 173.96 878.395 169.937V195.083C874.371 197.363 870.046 199.073 865.419 200.213C860.859 201.353 855.997 201.923 850.834 201.923C835.88 201.923 823.676 197.162 814.221 187.64C804.833 178.118 800.139 165.779 800.139 150.624C800.139 135.268 805 122.896 814.724 113.508C824.514 104.053 837.288 99.3252 853.047 99.3252C858.009 99.3252 862.569 99.8281 866.727 100.834C870.884 101.773 874.773 103.248 878.395 105.26V129.803ZM984.267 198H962.44V185.628C958.551 191.127 953.991 195.217 948.76 197.899C943.597 200.582 937.663 201.923 930.957 201.923C917.478 201.923 906.85 197.329 899.071 188.143C891.359 178.889 887.504 166.248 887.504 150.222C887.504 135 891.46 122.728 899.373 113.407C907.286 104.019 917.612 99.3252 930.353 99.3252C938.132 99.3252 944.771 100.968 950.269 104.254C955.835 107.473 959.892 112.133 962.44 118.235V102.645H984.267V198ZM963.044 150.021C963.044 140.163 960.73 132.485 956.103 126.986C951.543 121.488 945.139 118.738 936.891 118.738C928.643 118.738 922.139 121.588 917.378 127.288C912.684 132.921 910.337 140.767 910.337 150.825C910.337 160.951 912.617 168.763 917.177 174.262C921.736 179.76 928.174 182.51 936.489 182.51C944.335 182.51 950.705 179.526 955.6 173.558C960.563 167.59 963.044 159.744 963.044 150.021ZM1030.09 117.833C1032.44 111.53 1035.52 106.869 1039.34 103.852C1043.23 100.834 1048.03 99.3252 1053.73 99.3252C1056.81 99.3252 1059.83 99.694 1062.78 100.432C1065.8 101.169 1068.75 102.242 1071.63 103.65L1063.79 122.158C1061.91 120.817 1059.86 119.845 1057.65 119.241C1055.5 118.571 1053.09 118.235 1050.41 118.235C1043.17 118.235 1037.97 121.152 1034.82 126.986C1031.67 132.753 1030.09 142.477 1030.09 156.156V198H1008.26V102.443H1030.09V117.833ZM1169.76 153.541H1093.52C1094.05 162.46 1096.7 169.434 1101.46 174.463C1106.22 179.425 1112.56 181.906 1120.47 181.906C1127.51 181.906 1133.38 180.431 1138.08 177.48C1142.77 174.53 1146.86 169.769 1150.35 163.197L1168.75 173.457C1163.39 183.046 1156.75 190.188 1148.84 194.882C1140.93 199.576 1131.64 201.923 1120.98 201.923C1105.69 201.923 1093.52 197.262 1084.46 187.941C1075.41 178.62 1070.88 166.181 1070.88 150.624C1070.88 135.67 1075.54 123.399 1084.87 113.81C1094.25 104.153 1106.29 99.3252 1120.98 99.3252C1136.33 99.3252 1148.3 103.717 1156.88 112.502C1165.47 121.286 1169.76 133.591 1169.76 149.417V153.541ZM1147.13 138.855C1146.26 132.016 1143.64 126.819 1139.28 123.265C1134.92 119.644 1128.96 117.833 1121.38 117.833C1114.2 117.833 1108.44 119.576 1104.08 123.063C1099.72 126.55 1096.67 131.814 1094.92 138.855H1147.13Z" fill="#28A086"/>
<path d="M285.771 283.243V298H281.953V265.117H288.849C291.259 265.117 293.034 265.244 294.172 265.499C295.31 265.754 296.298 266.173 297.137 266.757C298.185 267.506 299.001 268.531 299.585 269.834C300.184 271.137 300.483 272.582 300.483 274.169C300.483 275.756 300.184 277.201 299.585 278.504C299.001 279.807 298.185 280.832 297.137 281.581C296.298 282.18 295.31 282.607 294.172 282.861C293.049 283.116 291.274 283.243 288.849 283.243H287.748H285.771ZM285.771 279.694H287.748C291.102 279.694 293.356 279.305 294.509 278.526C295.677 277.733 296.261 276.355 296.261 274.394C296.261 272.297 295.662 270.822 294.464 269.969C293.281 269.115 291.042 268.688 287.748 268.688H285.771V279.694ZM308.532 298V265.117H316.259C318.46 265.117 320.07 265.244 321.088 265.499C322.121 265.739 323.027 266.158 323.806 266.757C324.779 267.521 325.535 268.546 326.074 269.834C326.614 271.107 326.883 272.522 326.883 274.079C326.883 276.774 326.127 278.826 324.615 280.233C323.117 281.626 320.916 282.322 318.011 282.322H317.315L329.87 298H324.907L312.912 282.322H312.351V298H308.532ZM312.351 268.419V279.425H315.338C318.393 279.425 320.437 279.035 321.47 278.257C322.503 277.463 323.02 276.086 323.02 274.124C323.02 272.013 322.488 270.538 321.425 269.699C320.362 268.846 318.333 268.419 315.338 268.419H312.351ZM352.429 295.192C354.226 295.192 355.933 294.855 357.55 294.182C359.183 293.493 360.65 292.497 361.953 291.194C363.24 289.907 364.221 288.447 364.895 286.814C365.569 285.182 365.906 283.453 365.906 281.626C365.906 279.784 365.561 278.032 364.873 276.37C364.199 274.708 363.225 273.241 361.953 271.968C360.665 270.68 359.205 269.699 357.573 269.025C355.956 268.352 354.241 268.015 352.429 268.015C350.602 268.015 348.873 268.352 347.241 269.025C345.609 269.699 344.164 270.68 342.906 271.968C341.618 273.271 340.637 274.745 339.963 276.393C339.29 278.04 338.953 279.784 338.953 281.626C338.953 283.453 339.282 285.175 339.941 286.792C340.615 288.409 341.603 289.877 342.906 291.194C344.224 292.512 345.683 293.508 347.286 294.182C348.903 294.855 350.617 295.192 352.429 295.192ZM369.994 281.626C369.994 283.977 369.559 286.193 368.691 288.274C367.822 290.356 366.557 292.205 364.895 293.822C363.233 295.439 361.316 296.69 359.145 297.573C356.989 298.442 354.75 298.876 352.429 298.876C350.108 298.876 347.87 298.442 345.713 297.573C343.572 296.69 341.67 295.439 340.008 293.822C338.331 292.19 337.051 290.333 336.168 288.252C335.299 286.171 334.865 283.962 334.865 281.626C334.865 279.275 335.299 277.059 336.168 274.978C337.051 272.881 338.331 271.017 340.008 269.385C341.655 267.783 343.557 266.547 345.713 265.679C347.87 264.81 350.108 264.376 352.429 264.376C354.765 264.376 357.011 264.81 359.168 265.679C361.339 266.547 363.248 267.783 364.895 269.385C366.557 271.002 367.822 272.859 368.691 274.955C369.559 277.036 369.994 279.26 369.994 281.626ZM388.195 299.28L374.292 265.117H378.537L388.195 290.273L397.808 265.117H402.031L388.195 299.28ZM408.755 298V265.117H412.663V298H408.755ZM427.788 294.316H430.281C434.324 294.316 437.124 294.144 438.681 293.8C440.238 293.44 441.534 292.834 442.567 291.98C443.914 290.857 444.94 289.412 445.644 287.646C446.348 285.864 446.7 283.827 446.7 281.536C446.7 279.23 446.348 277.209 445.644 275.472C444.955 273.72 443.929 272.275 442.567 271.137C441.534 270.268 440.216 269.654 438.614 269.295C437.026 268.921 434.249 268.733 430.281 268.733H427.788V294.316ZM423.834 298V265.117H430.146C434.818 265.117 438.105 265.357 440.006 265.836C441.923 266.3 443.6 267.086 445.038 268.194C446.924 269.647 448.354 271.504 449.328 273.765C450.301 276.026 450.788 278.631 450.788 281.581C450.788 284.516 450.301 287.114 449.328 289.375C448.369 291.621 446.939 293.47 445.038 294.923C443.6 296.031 441.96 296.825 440.119 297.304C438.292 297.768 435.439 298 431.561 298H430.146H423.834ZM460.476 298V265.117H464.384V298H460.476ZM475.556 298V263.814L499.611 290.094V265.117H503.34V299.28L479.284 273.293V298H475.556ZM532.525 281.02H546.091V282.12C546.091 287.301 544.624 291.389 541.689 294.384C538.754 297.379 534.748 298.876 529.672 298.876C528.13 298.876 526.655 298.711 525.247 298.382C523.855 298.052 522.567 297.573 521.384 296.944C518.689 295.462 516.607 293.418 515.14 290.812C513.672 288.192 512.939 285.22 512.939 281.896C512.939 279.155 513.373 276.685 514.241 274.483C515.125 272.267 516.45 270.321 518.217 268.644C519.699 267.236 521.421 266.173 523.383 265.454C525.345 264.735 527.516 264.376 529.897 264.376C533.056 264.376 535.796 264.952 538.117 266.105C540.438 267.243 542.363 268.965 543.89 271.271L540.611 273.899C539.428 271.908 537.953 270.418 536.186 269.43C534.419 268.426 532.367 267.925 530.031 267.925C526.213 267.925 523.114 269.213 520.733 271.788C518.352 274.364 517.161 277.733 517.161 281.896C517.161 285.819 518.367 289.038 520.778 291.554C523.203 294.069 526.288 295.327 530.031 295.327C533.326 295.327 536.066 294.331 538.252 292.34C540.453 290.333 541.674 287.728 541.913 284.523H532.525V281.02ZM582.314 272.462L577.081 284.568H587.548L582.314 272.462ZM582.314 263.814L597.273 298H593.028L588.761 287.915H575.913L571.645 298H567.4L582.314 263.814ZM629.76 272.979C628.188 271.271 626.511 270.014 624.729 269.205C622.947 268.382 620.978 267.97 618.821 267.97C617.084 267.97 615.385 268.322 613.723 269.025C612.076 269.729 610.646 270.71 609.433 271.968C608.175 273.271 607.232 274.73 606.603 276.348C605.974 277.95 605.659 279.724 605.659 281.671C605.659 283.198 605.846 284.606 606.221 285.894C606.595 287.181 607.157 288.364 607.905 289.442C609.223 291.314 610.84 292.759 612.757 293.777C614.689 294.781 616.77 295.282 619.001 295.282C621.097 295.282 623.044 294.848 624.841 293.979C626.638 293.111 628.277 291.816 629.76 290.094V295.282C628.128 296.465 626.368 297.364 624.482 297.978C622.61 298.576 620.671 298.876 618.664 298.876C616.927 298.876 615.235 298.614 613.588 298.09C611.941 297.581 610.399 296.832 608.961 295.844C606.565 294.182 604.731 292.138 603.458 289.712C602.2 287.286 601.571 284.621 601.571 281.716C601.571 279.185 601.991 276.887 602.829 274.82C603.683 272.739 604.978 270.852 606.715 269.16C608.392 267.543 610.249 266.338 612.285 265.544C614.322 264.735 616.545 264.331 618.956 264.331C620.858 264.331 622.7 264.623 624.482 265.207C626.263 265.776 628.023 266.667 629.76 267.88V272.979ZM645.423 298V268.846H636.124V265.117H658.63V268.846H649.376V298H645.423ZM666.253 298V265.117H670.161V298H666.253ZM697.392 295.192C699.188 295.192 700.895 294.855 702.513 294.182C704.145 293.493 705.612 292.497 706.915 291.194C708.203 289.907 709.184 288.447 709.857 286.814C710.531 285.182 710.868 283.453 710.868 281.626C710.868 279.784 710.524 278.032 709.835 276.37C709.161 274.708 708.188 273.241 706.915 271.968C705.627 270.68 704.167 269.699 702.535 269.025C700.918 268.352 699.203 268.015 697.392 268.015C695.565 268.015 693.835 268.352 692.203 269.025C690.571 269.699 689.126 270.68 687.868 271.968C686.58 273.271 685.6 274.745 684.926 276.393C684.252 278.04 683.915 279.784 683.915 281.626C683.915 283.453 684.244 285.175 684.903 286.792C685.577 288.409 686.565 289.877 687.868 291.194C689.186 292.512 690.646 293.508 692.248 294.182C693.865 294.855 695.58 295.192 697.392 295.192ZM714.956 281.626C714.956 283.977 714.522 286.193 713.653 288.274C712.785 290.356 711.519 292.205 709.857 293.822C708.195 295.439 706.279 296.69 704.107 297.573C701.951 298.442 699.712 298.876 697.392 298.876C695.071 298.876 692.832 298.442 690.676 297.573C688.534 296.69 686.633 295.439 684.971 293.822C683.294 292.19 682.013 290.333 681.13 288.252C680.261 286.171 679.827 283.962 679.827 281.626C679.827 279.275 680.261 277.059 681.13 274.978C682.013 272.881 683.294 271.017 684.971 269.385C686.618 267.783 688.519 266.547 690.676 265.679C692.832 264.81 695.071 264.376 697.392 264.376C699.727 264.376 701.974 264.81 704.13 265.679C706.301 266.547 708.21 267.783 709.857 269.385C711.519 271.002 712.785 272.859 713.653 274.955C714.522 277.036 714.956 279.26 714.956 281.626ZM724.577 298V263.814L748.633 290.094V265.117H752.362V299.28L728.306 273.293V298H724.577ZM773.865 272.462L768.631 284.568H779.098L773.865 272.462ZM773.865 263.814L788.824 298H784.579L780.311 287.915H767.463L763.196 298H758.951L773.865 263.814ZM795.435 298V265.117H802.286C804.697 265.117 806.471 265.244 807.609 265.499C808.762 265.739 809.75 266.158 810.574 266.757C811.622 267.535 812.431 268.539 813 269.767C813.584 270.979 813.876 272.312 813.876 273.765C813.876 275.502 813.456 276.954 812.618 278.122C811.794 279.29 810.589 280.106 809.002 280.57C810.948 280.87 812.483 281.746 813.606 283.198C814.744 284.636 815.313 286.455 815.313 288.656C815.313 289.974 815.074 291.232 814.594 292.43C814.115 293.628 813.449 294.653 812.595 295.507C811.667 296.42 810.522 297.064 809.159 297.438C807.796 297.813 805.505 298 802.286 298H795.435ZM799.254 282.592V294.586H802.286C804.367 294.586 805.865 294.504 806.778 294.339C807.706 294.174 808.448 293.89 809.002 293.485C809.676 293.006 810.207 292.34 810.596 291.486C810.986 290.633 811.18 289.689 811.18 288.656C811.18 287.458 810.948 286.418 810.484 285.534C810.02 284.651 809.346 283.962 808.463 283.468C807.939 283.153 807.332 282.929 806.643 282.794C805.955 282.659 804.884 282.592 803.431 282.592H802.286H799.254ZM799.254 268.509V279.515H802.286C805.071 279.515 807.033 279.11 808.171 278.302C809.309 277.493 809.878 276.131 809.878 274.214C809.878 272.103 809.346 270.628 808.283 269.789C807.235 268.936 805.236 268.509 802.286 268.509H799.254ZM824.53 298V265.117H828.439V294.271H840.859V298H824.53ZM848.729 298V265.117H866.069V268.688H852.637V278.122H866.069V281.761H852.637V294.361H866.069V298H848.729ZM892.768 298V265.117H896.677V298H892.768ZM907.848 298V263.814L931.904 290.094V265.117H935.632V299.28L911.576 273.293V298H907.848ZM958.707 279.739C960.849 280.653 962.458 281.866 963.537 283.378C964.63 284.89 965.176 286.68 965.176 288.746C965.176 291.771 964.21 294.212 962.279 296.068C960.362 297.91 957.817 298.831 954.642 298.831C952.052 298.831 949.88 298.172 948.128 296.854C946.376 295.522 945.193 293.635 944.58 291.194L948.128 289.442C948.608 291.434 949.394 292.946 950.487 293.979C951.595 294.998 952.98 295.507 954.642 295.507C956.604 295.507 958.191 294.945 959.404 293.822C960.617 292.684 961.223 291.209 961.223 289.397C961.223 287.93 960.796 286.657 959.943 285.579C959.104 284.486 957.831 283.565 956.124 282.816L952.126 281.109C949.94 280.196 948.308 279.021 947.23 277.583C946.167 276.146 945.635 274.424 945.635 272.417C945.635 270.081 946.504 268.149 948.241 266.622C949.978 265.095 952.194 264.331 954.889 264.331C956.866 264.331 958.573 264.75 960.01 265.589C961.463 266.427 962.593 267.663 963.402 269.295L960.167 271.361C959.434 270.089 958.61 269.145 957.697 268.531C956.783 267.902 955.75 267.588 954.597 267.588C953.13 267.588 951.924 268.037 950.981 268.936C950.053 269.834 949.588 270.979 949.588 272.372C949.588 273.54 949.948 274.551 950.666 275.404C951.385 276.258 952.501 277.014 954.013 277.673L958.707 279.739ZM973.675 298V265.117H977.583V298H973.675ZM1006.83 281.02H1020.4V282.12C1020.4 287.301 1018.93 291.389 1016 294.384C1013.06 297.379 1009.06 298.876 1003.98 298.876C1002.44 298.876 1000.97 298.711 999.558 298.382C998.165 298.052 996.877 297.573 995.694 296.944C992.999 295.462 990.918 293.418 989.45 290.812C987.983 288.192 987.249 285.22 987.249 281.896C987.249 279.155 987.683 276.685 988.552 274.483C989.435 272.267 990.76 270.321 992.527 268.644C994.01 267.236 995.732 266.173 997.693 265.454C999.655 264.735 1001.83 264.376 1004.21 264.376C1007.37 264.376 1010.11 264.952 1012.43 266.105C1014.75 267.243 1016.67 268.965 1018.2 271.271L1014.92 273.899C1013.74 271.908 1012.26 270.418 1010.5 269.43C1008.73 268.426 1006.68 267.925 1004.34 267.925C1000.52 267.925 997.424 269.213 995.043 271.788C992.662 274.364 991.472 277.733 991.472 281.896C991.472 285.819 992.677 289.038 995.088 291.554C997.514 294.069 1000.6 295.327 1004.34 295.327C1007.64 295.327 1010.38 294.331 1012.56 292.34C1014.76 290.333 1015.98 287.728 1016.22 284.523H1006.83V281.02ZM1029.44 298V265.117H1033.35V277.763H1050.82V265.117H1054.8V298H1050.82V281.491H1033.35V298H1029.44ZM1071.65 298V268.846H1062.35V265.117H1084.86V268.846H1075.6V298H1071.65ZM1104.41 279.739C1106.55 280.653 1108.16 281.866 1109.24 283.378C1110.33 284.89 1110.88 286.68 1110.88 288.746C1110.88 291.771 1109.91 294.212 1107.98 296.068C1106.06 297.91 1103.52 298.831 1100.34 298.831C1097.75 298.831 1095.58 298.172 1093.83 296.854C1092.08 295.522 1090.89 293.635 1090.28 291.194L1093.83 289.442C1094.31 291.434 1095.09 292.946 1096.19 293.979C1097.29 294.998 1098.68 295.507 1100.34 295.507C1102.3 295.507 1103.89 294.945 1105.1 293.822C1106.32 292.684 1106.92 291.209 1106.92 289.397C1106.92 287.93 1106.5 286.657 1105.64 285.579C1104.8 284.486 1103.53 283.565 1101.82 282.816L1097.83 281.109C1095.64 280.196 1094.01 279.021 1092.93 277.583C1091.87 276.146 1091.33 274.424 1091.33 272.417C1091.33 270.081 1092.2 268.149 1093.94 266.622C1095.68 265.095 1097.89 264.331 1100.59 264.331C1102.57 264.331 1104.27 264.75 1105.71 265.589C1107.16 266.427 1108.29 267.663 1109.1 269.295L1105.87 271.361C1105.13 270.089 1104.31 269.145 1103.4 268.531C1102.48 267.902 1101.45 267.588 1100.3 267.588C1098.83 267.588 1097.62 268.037 1096.68 268.936C1095.75 269.834 1095.29 270.979 1095.29 272.372C1095.29 273.54 1095.65 274.551 1096.37 275.404C1097.08 276.258 1098.2 277.014 1099.71 277.673L1104.41 279.739Z" fill="#8B8B8B"/>
</svg>

