<?xml version="1.0" encoding="UTF-8"?><svg id="uuid-7478a567-8335-4b34-9383-41610d8dbc29" xmlns="http://www.w3.org/2000/svg" xmlns:xlink="http://www.w3.org/1999/xlink" viewBox="0 0 413.27 403.74"><defs><clipPath id="uuid-b583bffa-1142-462c-ac80-84f53d04892d"><rect x="66.61" y="86.07" width="346.67" height="317.67" style="fill:none;"/></clipPath></defs><g id="uuid-38a2606f-1270-404e-bc41-a3b94e25a642"><g><g style="clip-path:url(#uuid-b583bffa-1142-462c-ac80-84f53d04892d);"><path d="m407.14,249.1c8.07,6.82,5.29,15.06,1.12,23.26-3.56,6.63-7.68,13.1-9.53,20.47-1.26,5.42-.84,11.03-.94,16.55-.19,9.88-.82,20.29-5.89,29.02-8.91,15.45-27.8,19.06-43.55,23.99-10.01,3.2-11.76,6.81-16.76,15.37-2.57,4.36-4.07,9.25-6.54,13.66-4.55,7.84-10.63,12.28-19.97,12.24-11.98-.12-14.92-13.22-23.49-12.42-.64.1-1.06.31-1.52.56-1.98,1.53-3.45,3.64-5.43,5.2-2.48,2.07-5.19,3.99-8.29,5-4.96,1.48-10.2.15-15.26-.02-5.03-.39-10.08-.35-15.08-.94-5.11-.57-10.07-1.98-14.97-3.47-23.87-6.2-47.72-13.38-69.19-25.81-9.01-5.03-17.97-10.34-25.41-17.57-5.81-6.07-11.02-12.67-16.17-19.3-6.39-7.72-12.29-15.86-17.48-24.43-4.82-8.89-8.18-18.52-11.54-28.03-4.43-13.48-9.38-26.92-11.89-40.93-1.71-10.71-2.43-21.64-1.88-32.47.51-8.68,1.83-17.28,3.49-25.81,1.88-11.17,4.94-22.22,10.9-31.96,11.84-20.17,29.86-36.32,50.24-47.58,10.91-6.28,22.54-11.63,34.99-13.92,14.14-2.83,28.91-3.81,43.11-.9,17.37,3.19,32.31,13.61,44.87,25.58,6.51,5.72,12.77,11.8,17.62,19.03,5.98,7.9,10.8,16.61,14.01,26,3.42,11.3,4.88,23.22,5.06,35-.03,4.76-1.08,9.43-1.12,14.18.06,9.9,4.04,20.14,12.02,26.27,3.44,2.43,7.29,5.3,11.72,4.92,10.28-.71,19.85-5.06,28.25-10.84,6.86-4.75,12.96-10.53,18.55-16.7,3.98-4.48,7.41-9.58,12.29-13.17,6.34-4.61,16.9-5.26,22.24,1.15,3.91,5.14.61,15.91-.73,21.79-1.08,4.44-2.16,9.17-1.35,13.74.68,2.74,2.7,4.75,4.69,6.61,2.74,2.46,6.03,4.21,8.8,6.64" style="fill:#ffeedc;"/></g><path d="m108.27,189.41c2.36,8.02-2.3,18.47-11.69,17.88.05,0,.13.01.16.01-9.71-.22-14.3-10.08-11.19-18.55,3.94-10.15,19.73-10.43,22.72.66" style="fill:#2e120e;"/><path d="m160.57,203.21c1.48,2.89-.51,6.76-2.25,9.14-3.05,4.19-8.14,6.77-13.34,6.56-3.88.03-7.64-1.65-10.27-4.48-1.98-2.11-3.88-4.59-4.31-7.53-.41-2.61.92-5.74,3.66-6.42,2.86-.4,5.45,1.56,8,2.6,3.52,2.11,10.03-2.39,14.4-2.3,1.74-.09,3.32.91,4.12,2.43" style="fill:#2e120e;"/><path d="m222.8,197.51c.5,3.89-.97,8.03-3.68,10.84-3.01,2.9-7.49,4.96-11.64,3.38-8.12-2.56-9.77-13.78-4.55-19.81,2.29-2.48,5.7-4.24,9.1-4.38,5.48,0,10.2,4.58,10.76,9.96" style="fill:#2e120e;"/><path d="m159.74,271.98c4.21,15.67,5.5,38.48-1.46,53.41-2.16,4.77-4.92,9.26-8.3,13.27-3.66,4.74-7.72,9.47-13.22,12.12-14.19,6.97-23.25,3.51-37.78,2.49-6.22-.35-12.44.4-18.54,1.57-3.98.86-7.57,2.91-11.48,4.04-4.82,1.69-10,2.04-15.06,1.56-12.04-.87-24.07-4.74-33.5-12.45-5.96-5.1-10.98-11.35-14.73-18.22-3.5-6.98-5.3-14.8-5.64-22.58-.18-7.75,1.08-15.49,2.83-23.03,2.88-12.67,9.17-24.63,18.81-33.46,8.1-7.56,19.38-10.85,30.29-10.91,2.88.07,5.73.47,8.56.96,2.7-.04,5.4-.11,8.1-.15,7.3-.03,14.6-.72,21.84-1.61,5.9-1.02,11.71-2.76,17.74-2.84,7.81-.08,15.72,1.49,22.95,4.43,6.34,2.68,12.56,6.03,17.28,11.13,5.15,5.83,8.89,12.9,11.31,20.27" style="fill:#e47f3d;"/><path d="m82.49,354.47c-.69.12-1.37.25-2.06.38-.35.08-.69.16-1.04.25-.22-.28-.44-.56-.66-.85-5.77-7.13-10.85-14.88-14.15-23.47-7.28-17.36-8.4-36.81-4.83-55.18,1.59-9.25,5.1-18.03,9.71-26.18,1.29-2.26,2.73-4.44,4.3-6.53,1.06-1.31,2.03-2.82,3.49-3.71,2-1.03,2.95,2.33.77,2.57-5.97,6.85-9.91,15.31-13.09,23.74-6.77,21.47-6.01,45.36,2.99,66.08,2.98,7.12,7.2,13.65,12.01,19.68.85,1.07,1.7,2.15,2.55,3.22" style="fill:#a04c1e;"/><path d="m71,240.34c6.29-1.63,5.13,3.95,2.47,2.3-4.96.55-9.77,2.38-14.29,4.45-6.06,3.13-11.03,8.04-14.95,13.56-5.55,8.21-8.89,17.76-11.57,27.23-1.93,8.6-2.9,17.51-2.09,26.3.34,3.54,1,7.03,1.76,10.5,1.01,4.77,2.04,9.56,3.94,14.07,1.59,3.63,3.36,7.19,5.42,10.57,2.43,3.68,5.12,7.19,7.81,10.68-1.36-.18-2.73-.41-4.08-.67-.17-.23-.34-.46-.51-.7-3.59-4.65-6.95-9.47-9.42-14.81-2.61-5.07-4.26-10.55-5.4-16.11-2.44-9.84-3.39-20.04-1.96-30.11.78-7.35,2.67-14.52,5.35-21.41,3.7-10.26,9.03-20.36,17.85-27.12,5.7-4.47,12.64-7.16,19.67-8.72" style="fill:#a04c1e;"/><path d="m64.5,242.08c1.03.11,2.64.19,2.51,1.6-.36,1.96-3.04.67-4.4.74-2.19-.24-4.38-.52-6.57-.74-6.77-.92-13.57.45-19.76,3.23-11.46,4.71-20.45,14.3-25.81,25.33-2.32,4.57-3.45,9.6-4.39,14.6-1.03,5.51-1.47,11.11-1.26,16.71.22,7.29,2.11,14.44,4.92,21.15,2.4,5.08,5.42,9.85,8.42,14.6,3.55,4.67,6.74,9.7,11.21,13.57.79.72,1.58,1.43,2.4,2.13-3.36-1.53-6.58-3.38-9.56-5.59-1.74-2.19-3.34-4.52-5.07-6.73-3.5-4.86-6.48-10.09-9.28-15.38-2.51-5.38-4.29-11.14-5.22-16.99-1.68-12.46-.18-25.69,4.42-37.4,5.68-12.78,15.95-24.05,29.24-28.97,7.36-2.93,15.17-3.76,22.99-2.54,1.73.2,3.46.42,5.19.67" style="fill:#a04c1e;"/><path d="m93.28,276.65c7.97,25.83,8.02,50.39,4.72,76.58-.97-.04-1.95-.05-2.92-.04.94-7.96,1.8-15.94,2.2-23.95.47-14.68-1.03-29.46-4.49-43.74-2.72-9.56-4.8-19.41-8.99-28.47-2.02-4.32-5.29-7.89-8.47-11.39-1.74-.28-1.02-3.01.65-2.49,1.19.41,1.93,1.56,2.78,2.43,2.1,2.36,4.15,4.78,5.83,7.46,4.43,7.22,6.41,15.54,8.69,23.6" style="fill:#a04c1e;"/><path d="m131.36,310.1c.62,8.43.2,16.86-.85,25.24-.56,6.44-2.04,12.73-3.76,18.95-1,.2-1.99.36-2.96.47,3.14-10.73,4.58-21.89,5.04-33.06.11-6.9-.37-13.8-.77-20.69-.69-7.24-2.31-14.38-4.23-21.39-3.02-12.93-9.63-24.04-20.94-31.34-2.54-1.61-5.26-3.15-8.27-3.66-4.97-1.26-11.93,3.46-12.14.21-.02-1.15,1.15-1.32,2.05-1.41,1.33-.33,2.65-.71,3.98-1.02,4.13-1.1,8.55-.44,12.24,1.68,7.71,3.98,14.18,9.69,18.65,17.16,3.87,6.01,5.94,12.84,7.68,19.7,2.61,9.52,4.1,19.29,4.26,29.15" style="fill:#a04c1e;"/><path d="m154.97,289.96c.65,6.33-.11,12.7-.67,19.01-1.1,10.18-2.25,20.53-6.58,29.94-.82,1.92-1.74,3.8-2.71,5.64-1.88,1.95-3.93,3.73-6.24,5.14.03-.04.05-.07.07-.11,4.27-6.78,7.84-14.05,9.74-21.87,1.78-6.48,2.14-13.23,3.01-19.86.72-7.1,1.22-14.24.21-21.34-.22-6.21-1.19-12.44-3.91-18.09-2.01-5.51-5.94-9.92-9.7-14.31-3.71-4.36-8.46-8.07-13.56-10.56-3.83-1.78-8.05-2.54-12.19-3.23-4.46-.51-9.04-.18-13.44.67-5.41,1.22-10.54,3.95-16.11,4.07-1.07-.45-1.02-1.9-.05-2.34.52-.16,1.06-.18,1.59-.29,2.73-.47,5.4-1.24,8.01-2.16,5.93-2.5,12.43-2.88,18.79-2.71,4.56.27,9.14,1.22,13.39,2.9,5.23,2.37,10.12,5.69,13.98,9.96,3.51,3.79,6.94,7.72,9.64,12.13,2.39,4.59,4.46,9.44,5.4,14.55.9,4.23.78,8.58,1.34,12.86" style="fill:#a04c1e;"/><path d="m97.9,243.48c1.82,1.33,1.05,3.94-1.15,4.25-1.27.33-3.29.04-5.31-.26-2.37-.34-4.72-.69-5.8-.01-1.03,1.86-.9,4.04-2.07,5.82-.47.77-1.28,1.36-2.21,1.35-2.69-.11-3.18-3.33-4.4-5.18-1.26-2.39-2.18.02-3.47,2.42-.92,1.71-2.02,3.41-3.56,3.41-.29,0-.58-.06-.9-.19-2.1-.88-2.32-3.54-2.32-5.53-9.75,7.74-16.13-2.08-4.91-6.77-1.84-1.43-2.23-3.89-2.58-6.05-.48-2.53-.37-5.19-1.35-7.6-1.58-3.03-4.61-5.04-7.38-6.9-.72-.57-1.61-1.04-2.15-1.79-.63-1.08.38-2.24,1.52-2.29,3.27-.31,6.72-.37,9.74-1.78,3.3-.78,6.74,5.64,8.75,7.76,3.34,4.74,9.83,4.94,13.81,8.88,1.88,1.72,2.74,4.19,4.18,6.21,3.8,1.44,8.17,1.76,11.54,4.23" style="fill:#11424b;"/><path d="m212.8,283.56c.67,5.92-1.97,11.69-5.43,16.35-4.28,5.27-9.71,9.74-15.89,12.59-6.57,2.75-13.76,4.51-20.9,4.33-6.75-.41-13.89-1.19-19.9-4.49-9.36-5.94-11.63-14.79-4.01-23.39,3.54-4.04,8.35-6.55,13.19-8.7,7.08-3.35,14.6-5.52,22.1-7.7,5.13-1.7,10.36-3.15,15.36-5.22.61-.28,1.22-.58,1.81-.91.6-.47,1.39-.98,2.1-.38,1.05.92.11,2.15-.91,2.58,7.79-.06,11.76,8.17,12.46,14.92" style="fill:#ffeedc;"/><path d="m155.36,283.62c-2.39-1.85,1.88-3.32,3.13-4.19,6.48-3.54,13.8-5.25,20.78-7.54,5.67-1.68,11.2-3.75,16.86-5.46,7.14-2.24,14.21-4.75,20.51-8.83,2.04-1.19,4.03-2.45,5.92-3.85,1.14-.64,2.45-2.65,3.76-1.36.45.52.4,1.34-.13,1.78-1.15.97-2.32,1.9-3.56,2.74-3.73,2.51-7.65,4.78-11.65,6.83-6.31,2.9-12.91,4.76-19.47,6.92-8.33,2.93-16.89,5.17-25.22,8.1-2.8.89-5.46,2.14-7.97,3.67-1.01.37-1.8,1.73-2.96,1.21" style="fill:#996452;"/><path d="m183.54,319.44c-7.82-.19-15.65-1.07-23.22-3.05-2.15-.18-1.86-3.22.31-2.52,3.24.85,6.53,1.58,9.86,1.98,10.79,1.6,21.76,1.07,32.49-.67,7.93-1.53,15.9-3.21,23.26-6.56,2.08-.9,4.18-1.74,6.27-2.61.34-.17.72-.26,1.1-.13,1.03.31,1.16,1.89.15,2.32-5.72,2.35-11.41,5.18-17.41,6.68-10.71,2.79-21.73,4.62-32.82,4.56" style="fill:#996452;"/><path d="m66.4,220.19c-.68-8.47.08-17.03,1.02-25.45,1.6-14.21,4.65-28.62,11.79-41.13.71-1.59,3.18-.42,2.24,1.15-.68,1.02-1.25,2.11-1.8,3.2-6.88,14.08-9.28,29.79-10.46,45.27-.19,4.09-.47,8.19-.45,12.3-.13,1.55.58,4.07-.12,5.34-.67.85-2.14.41-2.23-.69" style="fill:#996452;"/><path d="m306.66,245.82c-12.06-6.17-15.42-21.05-16.69-33.44-.47-8.24,1.48-16.39,1.38-24.61-.06-4.48-.56-8.95-1.74-13.28-.27-.86-.58-1.7-.94-2.53-.46-.91-1.3-2.2-.06-2.88,2.7-1.35,4.18,8.19,4.59,9.97.6,3.19.75,6.46.78,9.71.05,7.93-2.16,15.8-1.21,23.72,1.16,9.89,3.3,20.8,10.85,27.9,1.35,1.24,2.8,2.39,4.39,3.3,1.4.83.05,3.05-1.34,2.15" style="fill:#996452;"/><path d="m312.06,240.07c-1.58-.41-4.67-.56-5.59-1.9-.5-1.56,1.08-2.15,2.28-1.42,9.98,3.27,20.09-1.47,28.9-5.94,9.14-4.22,16.32-11.42,23.1-18.69,3.39-3.79,6.76-7.65,10.78-10.78,3.6-2.74,7.59-5.49,12.28-5.61,1.35.15,3.84-.68,4.08,1.22,0,1.31-1.33,1.33-2.32,1.35-1.3.18-2.61.27-3.9.55-7.47,2.1-12.93,8.16-17.92,13.77-4.58,5.08-9.45,9.93-14.74,14.27-4.17,3.13-8.81,5.54-13.44,7.86-7.29,3.46-15.29,6.79-23.51,5.32" style="fill:#996452;"/><path d="m341.57,266.3c-.51-1.96,3.07-2.02,4.3-2.66,3.22-.96,6.46-1.93,9.54-3.28,13.74-6.02,21.69-12.53,30-24.97.35-.58.75-1.14.99-1.78,0-.36.16-.72.46-.97.53-.42,1.34-.34,1.77.2.62.8.08,1.86-.33,2.63-3.56,5.56-7.67,10.9-12.51,15.42-5.17,4.55-11.18,8.06-17.4,10.98-3.33,1.55-6.79,2.82-10.33,3.82-1.64.48-3.3.94-4.94,1.45-.64.2-1.37-.19-1.56-.84Zm44.9-32.29c-.02-.06-.04-.12-.04-.18,0,.06.02.12.04.18" style="fill:#996452;"/><path d="m365.79,294.26c-12.29.13-24.64-1.22-36.42-4.8-3.64-1.03-7.18-2.35-10.7-3.72-1.49-.58-.6-2.94.92-2.33,2.66,1.01,5.3,2.07,8.02,2.9,9.66,3.16,19.74,4.77,29.89,5.34,4.83.05,9.68.29,14.5-.12,5.55-.45,10.92-1.99,16.39-2.96,1.07-.22,1.9,1.14,1.21,1.98-.2.27-.48.43-.8.49-3.01.58-6.01,1.22-9.01,1.84-4.59,1.01-9.29,1.45-13.99,1.38" style="fill:#996452;"/><path d="m375.52,314.58c-2.49-.04-4.97-.09-7.46-.15-.68.02-1.28-.53-1.29-1.21-.02-.66.53-1.31,1.22-1.29,5.77.09,11.56.39,17.32-.09,1.89-.07,3.71-.72,5.6-.72,1.08.07,1.52,1.58.65,2.23-5.16,1.32-10.7,1.29-16.04,1.23" style="fill:#996452;"/><path d="m341,358.16c-5.04-1.9-10.27-3.61-14.92-6.3-3.21-1.87-5.96-4.38-8.88-6.65-4.56-3.31-8.94-6.87-13.2-10.55-1.31-.94.21-3.02,1.5-2.02.83.69,1.64,1.4,2.45,2.1,3.94,3.4,8.16,6.46,12.28,9.66,2.16,1.77,4.31,3.57,6.7,5.04,4.69,2.81,9.94,4.42,15.01,6.39,1.51.56.59,2.95-.92,2.33" style="fill:#996452;"/><path d="m283.95,387.15c-5.17-4.04-9.28-9.18-13.42-14.19-6.38-7.48-11.28-15.99-16.41-24.32-.81-1.39,1.39-2.66,2.19-1.24,3,4.98,6.08,9.91,9.24,14.8,3.71,5.55,8.07,10.66,12.44,15.71-.01-.02-.02-.03-.03-.04,0-.01-.02-.02-.02-.02,2.3,2.64,4.77,5.14,7.54,7.31,1.3.97-.24,2.99-1.52,1.99" style="fill:#996452;"/><path d="m239.31,403.19c-11.38-.98-22.39-4.14-33.2-7.69-6.77-1.98-13.47-4.15-20.03-6.73-13.17-4.76-26.03-10.42-38.2-17.33-6.08-3.65-11.5-8.3-16.67-13.13-.46-.44-.88-.93-1.34-1.38-1.14-1.1.57-2.95,1.74-1.8.96.99,1.91,1.99,2.95,2.91,3.89,3.46,7.89,6.83,12.23,9.71,4.26,2.7,8.83,4.96,13.32,7.22,17.95,9.02,37.15,15.08,56.36,20.8,5.43,1.73,10.98,2.93,16.6,3.9,2.15.5,4.33.88,6.54,1.06,1.58.16,1.32,2.72-.32,2.48" style="fill:#996452;"/><path d="m301.82,109.02s-.01,0-.01,0c0,0-.01,0-.02,0,0,0,.02,0,.03-.01" style="fill:#384a5e;"/><path d="m302.14,108.9s-.01,0-.02,0c0,0,.02,0,.02,0" style="fill:#384a5e;"/><path d="m46.57,126.84l.09-.06s-.05.05-.07.08c0,0,0,0,0,0,0,0-.01-.02-.02-.02" style="fill:#384a5e;"/><path d="m56.59,121.96s-.02.02-.03.02c0,0,.02-.02.03-.02" style="fill:#384a5e;"/><path d="m194,81.69c.09,0,.17.01.26.02-4.09-.23-8.18-.46-12.27-.67-3.91-.2-7.83-.32-11.74-.41h0c-2.61-.06-5.22-.14-7.83-.17-2.51-.03-5.01-.03-7.51,0-3.72.04-7.44.12-11.15.21.72-.07,1.43-.14,2.16-.2,8.18-.54,16.17-2.77,24.42-2.62,9.5-.25,19.04.94,28.25,3.24,1.48.36,2.94.75,4.41,1.15-3-.19-6-.38-9.01-.55" style="fill:#384a5e;"/><path d="m333.01,135.5c.28,12.32-12.26,20.1-22.42,24.17-8.86,3.61-18.04,6.47-27.41,8.48-27.84,6.73-56.41,10.64-85.06,10.64-3.93,0-7.85-.07-11.78-.22-38.67-1.23-78.1-8.99-111.69-28.88-6.15-3.58-11.74-7.97-17.1-12.62.24-.41.5-.83.75-1.24.61-1.02,1.23-2.03,1.82-3.06.3-.52.6-1.05.88-1.58.14-.28.28-.56.4-.84.21-.51.49-1.18.07-1.65-.22-.25-.57-.28-.87-.2-.21.05-.41.15-.59.25-.28.16-.55.32-.82.49-.49.31-.98.63-1.48.95-.99.66-1.97,1.33-2.93,2.02-.5.36-1,.72-1.5,1.08-.37-.33-.73-.66-1.09-.99-1.07-.97-2.13-1.97-3.17-2.98.21-.21.43-.43.64-.65.86-.86,1.73-1.71,2.6-2.56.87-.84,1.75-1.67,2.63-2.51.44-.42.88-.84,1.31-1.27.05-.05.1-.09.15-.14t0-.01s.02-.02.03-.02h.01s.06-.07.09-.1c.02-.02.03-.03.05-.05,0,0,0,0,0,0h0s.03-.03.05-.05c0,0,.02-.02.02-.03h.01c.53-.51,1.06-1.02,1.59-1.52.43-.41.84-.81,1.25-1.23.19-.19.38-.38.53-.6.16-.24.23-.54.07-.8s-.47-.35-.76-.3c-.18.03-.35.08-.53.13-.55.17-1.09.38-1.63.58-.58.22-1.16.44-1.73.65-1.14.44-2.27.9-3.4,1.35-1.08.43-2.16.88-3.25,1.31-1.11.45-2.23.89-3.35,1.33-.6.24-1.21.49-1.82.73-3.57-4.09-6.78-8.49-9.41-13.26-2.78-5.3-5.34-11.21-4.65-17.32,1.64-11.44,12.4-14.36,22.47-13.13,12.16,1.42,24.07,4.77,36.39,4.79.5.03,1,.05,1.5.07,2.64.28,5.28.53,7.93.77,4.71.42,9.43.73,14.16.95,3.02.14,6.04.24,9.06.29,2.91.05,5.81-.01,8.71-.07,5.76-.13,11.51-.31,17.26-.43,3.88-.07,7.76-.14,11.64-.16,3.8-.02,7.59.09,11.39.18,4.97.13,9.94.32,14.92.59,5.85.31,11.71.63,17.56,1.02,2.77.18,5.54.38,8.31.54,2.88.17,5.75.33,8.62.51,2.32.16,4.65.32,6.96.51,1.01.32,2.01.65,3.02.96,9.56,2.72,19.41,4.15,29.14,6.11,5.69,1.14,11.48,1.45,17.24,2.08,8.2,1.04,16.43,2.44,24.35,4.83-.75.55-1.51,1.1-2.27,1.64-.46.32-.91.64-1.38.94-.54.35-1.07.69-1.61,1.03-.53.32-1.06.64-1.59.94-1.01.57-2.02,1.13-3.05,1.66-.01,0-.02,0-.02.01h-.01c-.43.23-.87.45-1.31.68-.15.07-.29.15-.44.22-.22.11-.44.27-.55.49-.14.28-.07.63.19.82.23.17.53.2.82.2.03,0,.06,0,.09,0,.66-.01,1.32-.09,1.97-.18,1.22-.17,2.43-.4,3.63-.67,1.19-.27,2.35-.59,3.52-.94,1.13-.34,2.26-.71,3.37-1.12.02-.01.05-.02.08-.03.06-.03.13-.05.19-.07,0,0,.01,0,.02,0,.05-.02.09-.04.14-.05.05-.02.1-.04.16-.06,0,0,.01,0,.01,0,0,0,.01,0,.02,0,0,0,.02,0,.02,0h0s.02,0,.03-.02c1.77-.64,3.51-1.39,5.22-2.18.29-.14.59-.28.88-.42,12.05,5.16,23.52,15.55,24.73,29.21" style="fill:#5c365b;"/><path d="m257.34,103.3c2.33,3.8,2.12,7.06-1.42,10.03-7.29,5.55-17.03,6.53-25.23,10.38-15.08,7.72-32,12.31-49.02,11.48-16.58-.67-33.7-3.01-47.85-12.28-3.4-2.15-5.47-3.19-7.08-5.5-3.69-3.81-4.81-9.27-2.44-14.38,1.36-3.15,2.93-6.21,4.33-9.35.13-.3.27-.6.39-.9.03-.05.05-.11.08-.17.03-.08.07-.17.1-.24.04-.09.08-.19.12-.29.06-.14.11-.28.17-.42.04-.1.08-.2.12-.3.05-.11.09-.22.14-.33,2.66,2.68,5.69,4.98,9.2,6.48,5.3,2.27,10.76,4.33,16.48,5.21,7.57,1.09,15.16,2.19,22.81,2.45,17.32.85,34.82-1.07,51.47-5.95,5.05-1.53,10.02-3.34,14.81-5.54,2.4-1.17,4.73-2.45,7.05-3.77.01.06.03.11.04.17.04.18.09.36.14.54.02.06.03.12.05.18.02.06.04.13.06.19.01.05.03.1.04.15s.03.11.04.16c0,0,0,.01.01.02.02.06.03.11.05.17.02.06.03.11.05.17.04.11.07.23.11.35.01.02.02.04.02.06.07.21.15.42.22.62,1.34,3.64,3.48,7.02,4.94,10.61" style="fill:#c5c7ed;"/><path d="m363.95,48.21c.3,2.42-2.71,2.06-4.32,1.97-3.48-.15-6.97.01-10.43.48-4.33.66-8.48,2.05-12.67,3.27-2.16.57-4.31,1.43-6.58,1.27-5.85-.24-8.67-5.16-13.06-8.04-3.38-1.97-7.92-.94-10.7,1.63-2.55,2.55-4.65,5.61-7.77,7.55-7.68,5.29-15.69,5.07-24.55,4.19-5.76-.36-11.53.26-17.28-.26-4.01-.18-7.82-1.57-11.72-2.3-2.92.41.8,8.22,1.04,10.12.85,3.12,1.65,6.26,2.81,9.28,1.33,3.69,2.09,7.54,2.63,11.41.06.38.13.76.21,1.14-2.32,1.32-4.65,2.6-7.05,3.77-4.8,2.2-9.77,4.01-14.81,5.54-16.65,4.88-34.15,6.8-51.47,5.95-7.65-.26-15.24-1.36-22.81-2.45-5.72-.88-11.18-2.94-16.48-5.21-3.52-1.5-6.55-3.8-9.2-6.48.53-1.34,1.02-2.71,1.42-4.11,1.55-5.28,1.27-10.9,2.86-16.16,2.09-6.49,6.34-12.01,9.96-17.72,5.67-8.6,10.9-17.52,17.23-25.67,4.7-6.05,10.14-11.48,15.14-17.3,3.33-3.86,7.14-7.59,12.14-9.13,7.45-2.22,15.28.02,22.77,1,.51.08,1.01.17,1.51.26,12.64.9,26.78,4.62,35.21,6.82,7.27,1.65,14.81,3.14,20.84,7.8,4.7,3.17,7.99,7.92,12.54,11.27,6.94,5.59,16.08,5.1,23.46.65,8.61-4.95,16.64-9.26,22.94,1.47,2.31,4.86,3.63,8.58,9.24,10.52,7.32,2.99,16.78-1.14,22.69,2.83,1.56,1.31,3.43,2.76,4.24,4.65" style="fill:#3c254f;"/><path d="m77.72,98.11c-5.65,0-11.3-.4-16.86-1.42-2.22-.39-4.43-.79-6.64-1.21-.67-.13-1.11-.82-.97-1.48.14-.68.81-1.11,1.48-.98,5.19.97,10.39,2.02,15.67,2.35,11.62.76,23.34-.41,34.83-1.97-.07,0-.14.02-.2.03.32-.04.66-.09.97-.13.58-.08,1.16-.16,1.73-.23h-.04s-.02,0-.04,0c.14-.02.29-.04.43-.06-.07.01-.09.02-.16.03,3.18-.49,6.48-.65,9.55-1.58,1.38-.1,1.83,1.85.6,2.43-3.19,1.01-6.66,1.11-9.94,1.65.02,0,.04-.01.06-.01-.96.13-1.93.26-2.89.39.02,0,.04,0,.06-.01h.02c-9.18,1.25-18.41,2.23-27.68,2.22" style="fill:#2e120e;"/><path d="m70.84,129.9c-.22-.64.13-1.39.78-1.6,2.53-.83,5.05-1.67,7.57-2.51,4.96-1.76,10.06-3.13,15.1-4.58,4.49-1.26,8.96-2.62,13.49-3.72,1.21-.28,2.43-.56,3.66-.78,1.35-.07,3.07-.92,4.32-.38.9.56.61,2.1-.45,2.27-10.1,1.57-19.86,5.05-29.69,7.72-3.53,1.08-7.01,2.34-10.52,3.48-1.34.23-3.43,1.88-4.26.1" style="fill:#2e120e;"/><path d="m146.61,154.38c-.67-.13-1.11-.82-.97-1.48.47-3.38,1.02-6.95,1.54-10.28.22-1.7.52-3.4.54-5.11-.11-1.61,2.42-1.79,2.51-.17-.13,4.3-1.1,8.47-1.65,12.71-.45,1.35.18,4.58-1.97,4.33" style="fill:#2e120e;"/><path d="m232.25,158.75c-9.18-4.6-18.58-8.85-27.29-14.3-1.27-.94.22-2.94,1.48-2.03,5.67,3.54,11.66,6.53,17.64,9.49,3.06,1.51,6.1,3.02,9.16,4.53,1.5.61.51,2.97-.98,2.31" style="fill:#2e120e;"/><path d="m298.16,142.85c-12.53-.32-25.01-2.24-37.19-5.15-7.68-1.97-15.42-4.01-22.74-7.07-.78-.49-2.01-.64-2.32-1.61-.19-.64.22-1.38.88-1.54.6-.18,1.12.23,1.64.47,1.01.49,2.05.94,3.1,1.33,12.2,4.38,24.86,7.53,37.7,9.4,8.1,1.07,16.27,2.03,24.45,1.53,2.48-.16,4.95-.41,7.41-.7,1.67-.19,3.33-.41,4.99-.64.89-.22,2.1-.17,2.26.96.09.68-.4,1.32-1.07,1.41-6.34.86-12.71,1.67-19.1,1.61" style="fill:#2e120e;"/><path d="m264.57,114.52c-1.26-.16-2.9.3-3.88-.67-.46-.57-.27-1.5.38-1.85,4.65-.11,9.5.18,14.19-.55,1.26-.15,2.52-.34,3.76-.58,1.3-.08,3.35-1.56,4.01.24,1.14,3.28-16.1,3.41-18.45,3.42" style="fill:#2e120e;"/><path d="m144.47,123.1c-1.14-.15-1.18-1.35-1.01-2.24.08-1.22.1-2.43.09-3.65-.15-4.82.46-9.6,1.03-14.37.2-1.6,2.72-1.28,2.49.33-.15,1.23-.29,2.47-.42,3.71-.33,2.85-.61,5.71-.59,8.59,0,1.28.02,2.55-.01,3.82-.19,1.3.4,3.9-1.58,3.81" style="fill:#2e120e;"/><path d="m159.49,127.92c-.74-.31-.87-1.14-.67-1.83.04-.79.02-1.57.03-2.35.02-3.91.26-7.82.44-11.73,0-.67.57-1.27,1.25-1.26.66,0,1.29.56,1.26,1.24-.13,2.61-.26,5.23-.34,7.84-.05,1.57-.08,3.13-.1,4.69.02,1.31.19,4.02-1.87,3.4" style="fill:#2e120e;"/><path d="m178.67,127.93c-.66-.69-.22-1.76-.36-2.62-.1-2.49-.23-4.98-.36-7.47-.04-1.62,2.53-1.64,2.51-.01.11,2,.21,4.01.31,6.01-.07,1.32.47,2.95-.32,4.09-.47.48-1.31.48-1.78,0" style="fill:#2e120e;"/><path d="m202.43,131.27c-.9-.11-1.12-.95-1.14-1.71-.27-1.19-.66-2.36-.98-3.54-1.45-5.11-2.48-10.33-3.78-15.48-.44-1.55,2-2.24,2.42-.66.61,2.37,1.13,4.77,1.7,7.16.55,2.32,1.08,4.64,1.7,6.94.18,1.65,3.17,7.42.09,7.3" style="fill:#2e120e;"/><path d="m222.06,122.59c-.86-.32-.71-1.24-.84-1.96-.55-2.37-1.09-4.74-1.64-7.1-.1-.72-.55-1.51-.16-2.21.51-.94,2.06-.74,2.3.3.55,2.43,1.13,4.84,1.68,7.27.4,1.34,1.04,4.31-1.34,3.7" style="fill:#2e120e;"/><path d="m239.96,117.55c-1.41-.26-1.12-2.15-1.69-3.18-.71-2.18-1.42-4.37-2.11-6.56-.34-1.04.93-2,1.84-1.42,1,.85,1.25,3.38,1.83,4.66.24,1.57,3.2,6.54.13,6.49" style="fill:#2e120e;"/><path d="m252.94,111.48c-1.88-4.73-3.1-9.71-4.96-14.46-.65-1.48,1.72-2.48,2.32-.96,1.85,4.74,3.1,9.72,4.96,14.45.64,1.48-1.69,2.48-2.32.97" style="fill:#2e120e;"/><path d="m127.19,112.89c-2.14-.88.2-3.06.35-4.52.77-2.83,1.4-5.71,2.66-8.38.36-.8.73-1.59,1.17-2.34,1.32-1.59,3.29.15,1.73,2.07-.89,1.81-1.64,3.68-2.17,5.63-.59,1.59-1.45,8.12-3.74,7.53" style="fill:#2e120e;"/><path d="m242.01,54.64c-11.7-7.23-24.4-13.55-33.68-23.97-1.33-1.45-2.58-2.97-4-4.33-.71-.87-2.31-1.28-2.23-2.58.88-2.88,3.68.6,4.81,1.59,5.39,6.23,11.55,11.73,18.49,16.18,5.88,3.74,12.23,6.71,17.88,10.82,1.47.81.22,3.12-1.26,2.29" style="fill:#2e120e;"/><path d="m133.59,87.82c-1.64-.27-1.04-2.02-.65-3.09.55-1.85.97-3.74,1.3-5.65.92-4.71.93-9.66,2.65-14.19,2.55-5.98,6.9-10.98,10.59-16.27,6.47-9.21,12.32-18.84,19.26-27.72,1.97-2.48,3.77-5.12,5.94-7.43.89-.79,1.94-2.63,3.24-1.53,1.31,1.49-1.11,2.65-1.83,3.8-1.96,2.4-3.83,4.86-5.72,7.32-6.89,8.89-12.68,18.56-19.22,27.7-3.48,4.96-7.58,9.64-9.99,15.24-2.04,6.1-1.72,12.76-3.66,18.91-.45,1.06-.35,2.99-1.91,2.9" style="fill:#2e120e;"/><path d="m341.27,43.32c-4.86-1.69-9.86-2.77-12.48-7.72-2.58-4.65-5.8-11.17-12.1-10.49-2.38.38-4.86.81-6.9,2.17-5.59,3.58-11.99,6.59-18.76,6.42-3.79.23-7.52-1.33-10.64-3.36-2.16-1.44-3.69-3.55-5.48-5.39-1.1-1.05-2.22-2.09-3.33-3.14-2.24-1.89-4.92-3.15-7.42-4.64-3.19-1.64-6.43-3.14-9.85-4.24-.87-.39-2.18-.76-1.82-1.99.19-.66.92-1.04,1.57-.84,3.68.76,7.03,2.45,10.38,4.09,3.29,1.8,6.78,3.47,9.55,6.05,1.1,1.08,2.27,2.09,3.36,3.19,1.51,1.65,2.88,3.43,4.75,4.69,8.09,5.64,18.51,1.84,25.99-3.07-.03.02-.05.04-.08.05,0,.01-.01.02-.08.06,2.36-1.69,5.24-2.31,8.06-2.77,6.67-.95,11.23,4.12,13.75,9.67,1.19,2.29,2.45,4.8,4.87,6,1.54.77,3.17,1.33,4.77,1.95,1.14.52,2.49.64,3.51,1.38,1.03,1.04-.38,2.7-1.62,1.96" style="fill:#2e120e;"/><path d="m330.17,55.41c-3.1-.32-5.81-1.99-8.36-3.68-2.52-1.6-4.89-3.82-7.96-4.21-4.44-.35-7.91,2.83-10.63,5.95-.81,1.49-3.09.3-2.23-1.21,2.41-2.96,5.32-6.04,9.17-6.94,4.23-1.4,8.38.7,11.67,3.27-.02-.01-.03-.03-.05-.04-.01,0-.02-.01-.02-.01,3.09,2.06,6.36,4.58,10.27,4.35,4.41-.34,8.61-1.85,12.91-2.8,2.46-.49,4.95-.81,7.45-1.06,1.92-.25,3.84-.28,5.77-.44.74-.04,1.5-.15,2.25-.14,1.03.01,1.65,1.31.97,2.1-.72.92-5.05.64-6.4.81-3.07.15-6.11.7-9.15,1.15-5.2.98-10.29,3.32-15.67,2.91Zm-28.8-3.53s.07-.04.1-.06t0,0h0s-.07.04-.1.06" style="fill:#2e120e;"/><path d="m256.93,113.83c-1.13-.04-1.63-1.52-.8-2.26,1.16-.92,2.03-2.22,1.69-3.75-.53-3.08-2.89-5.27-4.39-7.88-3.24-4.71-3.93-10.45-4.55-15.94v.03s0,.06,0,.06c-.66-7.56-4.85-14.24-5.99-21.71,0,.01,0,.03,0,.04l.02.13c-.03-.18-.05-.35-.07-.52,0,.04.01.07.02.1,0,.02,0,.04.01.07-.17-1.3-.24-2.71.45-3.88.42-1.07,2.04-1.24,2.44-.06.3.71-.34,1.25-.41,1.92-.09,1.67.39,3.31.78,4.92,1.7,6.23,5.1,12.07,5.53,18.61.58,3.78.71,7.7,2.28,11.24,1.63,4.15,5.23,7.2,6.45,11.52.61,1.96.18,4.1-1.24,5.6-.65.66-1.18,1.77-2.22,1.75" style="fill:#2e120e;"/><path d="m181.49,138.07c-2.41-.09-4.81-.36-7.18-.81-13.17-2.47-26.57-5.17-38.27-12.04-2.45-1.4-4.92-2.83-7.09-4.65-1.19-1.05.42-2.96,1.66-1.88,2.97,2.41,6.37,4.21,9.74,5.98,8.93,4.45,18.67,7.06,28.45,8.87,7.76,1.62,15.74,2.34,23.61,1.17,6.83-1.06,13.15-4.11,19.79-5.9,3.44-.94,7.1-1,10.38-2.52,3.2-1.3,6.15-3.1,9.22-4.64,2.24-1.02,4.63-1.65,6.98-2.32,1.26-.38,2.56-.49,3.82-.84,1.46-.36,2.17,1.98.68,2.44-.71.21-1.42.43-2.13.67-2.52.71-5.07,1.34-7.51,2.31-3.09,1.41-5.95,3.29-9.1,4.59-4.67,2.32-10.05,2.13-14.87,4.04-4.54,1.37-8.96,3.16-13.57,4.34-4.78,1.05-9.72,1.31-14.61,1.18" style="fill:#2e120e;"/><path d="m186.73,179.14c-11.68-.71-23.26-2.38-34.82-4.09-14.72-2.19-29.57-4.63-43.69-9.46-2.61-.86-5.18-1.86-7.79-2.73-1.51-.47-.91-2.86.72-2.4,4.21,1.44,8.37,3.01,12.63,4.32,7.31,2.29,14.86,3.66,22.4,5.02,10.22,2.05,20.57,3.47,30.94,4.6,8.34,1.03,16.71,1.88,25.11,2.23,9.38.17,18.75-.63,28.1-1.27,6.69-.54,13.31-1.65,19.99-2.24,1.57-.19,1.93,2.32.28,2.49-.8.1-1.58.22-2.37.36-8.43,1.4-16.95,2.25-25.48,2.72-8.66.57-17.35,1.16-26.02.45" style="fill:#2e120e;"/><path d="m30.49,89.01c-1.32-.64-.53-2.06-.01-3,.65-1.46,1.67-2.72,2.94-3.68,5.14-3.56,11.9-2.76,17.83-2.66,5.09.11,10.19.27,15.27.71,5.4.37,10.64,1.63,15.85,2.99,7.23,1.63,14.65,2.38,22.05,2.74,6.56.35,13.15.34,19.7-.24,1.69-.14,3.38-.22,5.06-.44.16-.04.34-.05.49-.13.92-.58,2.18.43,1.82,1.45-.59,1.79-5.61,1.27-7.29,1.61-6.36.58-12.78.62-19.16.32-6.33-.18-12.65-.83-18.89-1.87-5.06-.82-9.92-2.6-15.02-3.27-7.1-1.04-14.3-1.1-21.46-1.35-5.16.03-12.56-.91-16.09,3.6-.97,1.05-1.17,3.83-3.09,3.19" style="fill:#2e120e;"/><path d="m331.34,139.3c-1.33-.2-1.08-1.64-.93-2.61.1-2.03.11-4.12-.24-6.12-2.08-8.81-8.97-16.91-16.84-21.24-1.31-.67-2.68-1.24-4-1.71-.3-.11-.56-.29-.72-.58-.56-.92.41-2.17,1.44-1.82,10.39,3.36,20.65,14.58,22.68,25.34.28,2.05.3,4.14.19,6.2-.07,1.05-.11,2.72-1.58,2.54" style="fill:#2e120e;"/></g></g></svg>