<?xml version="1.0" encoding="UTF-8"?>
<!DOCTYPE svg PUBLIC "-//W3C//DTD SVG 1.1//EN" "http://www.w3.org/Graphics/SVG/1.1/DTD/svg11.dtd">
<!-- Creator: CorelDRAW -->
<svg xmlns="http://www.w3.org/2000/svg" xml:space="preserve" width="100%" height="100%" version="1.1" style="shape-rendering:geometricPrecision; text-rendering:geometricPrecision; image-rendering:optimizeQuality; fill-rule:evenodd; clip-rule:evenodd"
viewBox="0 0 8172.48 10687.39"
 xmlns:xlink="http://www.w3.org/1999/xlink"
 xmlns:xodm="http://www.corel.com/coreldraw/odm/2003">
 <defs>
  <style type="text/css">
   <![CDATA[
    .fil1 {fill:#F6F9EA}
    .fil4 {fill:#25A086;fill-rule:nonzero}
    .fil2 {fill:#27A086;fill-rule:nonzero}
    .fil3 {fill:#2A4366;fill-rule:nonzero}
    .fil0 {fill:#56B573;fill-rule:nonzero}
   ]]>
  </style>
 </defs>
 <g id="Layer_x0020_1">
  <metadata id="CorelCorpID_0Corel-Layer"/>
  <g id="_2469067768320">
   <path class="fil0" d="M2509.87 8275.67c-285.73,-108.14 -521.65,-264.06 -747.69,-435.12 -1052.66,-796.74 -1349.9,-2063.67 -1180.08,-3065.52 169.82,-1001.85 397.78,-1426.3 653.19,-1998.17 255.42,-571.87 842.6,-1609.84 1541.96,-2216.86 370.04,-321.17 797.09,-550.73 1308.91,-560l0.08 4436.09 -1576.37 0 0 3839.58z"/>
   <path class="fil0" d="M2816.96 6491.48l-0.11 -1716.45 1269.39 405.21 0 2659.48 -1269.39 435.95c2.78,-550.95 -0.38,-1233.16 0.11,-1784.19z"/>
   <ellipse class="fil1" cx="3857.01" cy="6512.75" rx="89.96" ry="106.57"/>
   <path class="fil2" d="M5662.61 8275.67c285.73,-108.14 521.66,-264.06 747.69,-435.12 1052.67,-796.74 1349.91,-2063.67 1180.09,-3065.52 -169.83,-1001.85 -397.79,-1426.3 -653.2,-1998.17 -255.42,-571.87 -842.6,-1609.84 -1541.95,-2216.86 -370.05,-321.17 -797.1,-550.73 -1308.91,-560l-0.09 4436.09 1576.37 0 0 3839.58z"/>
  </g>
  <path class="fil3" d="M-0 9484.69c0,-31.45 11.27,-58.78 33.53,-82 22.25,-22.92 48.73,-34.39 79.72,-34.39 31.83,0 58.59,11.17 79.72,33.22 21.13,22.04 31.84,49.96 31.84,83.17 0,33.51 -10.71,61.43 -32.12,84.06 -21.69,22.63 -48.17,34.1 -79.44,34.1 -30.99,0 -57.47,-11.76 -79.72,-34.98 -22.26,-23.22 -33.53,-50.85 -33.53,-83.18zm23.66 1169.19l0 -816.49 179.17 0 0 816.49 -179.17 0z"/>
  <path id="_1" class="fil3" d="M458.33 10653.88l0 -816.49 168.46 0 0 134.02c35.78,-56.43 77.75,-97.58 126.21,-123.44 48.45,-25.86 107.33,-38.8 176.9,-38.8 58.32,0 107.9,9.7 149.03,28.81 40.84,19.39 72.96,47.9 96.06,85.82 13.8,22.34 23.66,48.49 29.85,78.47 5.93,29.69 9.02,82.01 9.02,156.66l0 494.95 -180.85 0 0 -419.12c0,-107.28 -12.39,-178.7 -37.46,-213.97 -25.08,-35.27 -69.59,-52.9 -133.54,-52.9 -41.69,0 -79.15,7.93 -111.83,24.1 -32.68,16.16 -58.6,38.79 -77.18,67.89 -13.25,19.69 -22.55,44.68 -27.62,75.54 -5.34,30.56 -7.88,79.35 -7.88,146.66l0 371.8 -179.17 0z"/>
  <path id="_2" class="fil3" d="M2014.74 10242.99c0,-84.35 -18.87,-150.19 -56.62,-197.22 -37.75,-47.32 -90.43,-70.83 -158.04,-70.83 -67.88,0 -121.13,24.4 -159.72,72.89 -38.88,48.5 -58.32,116.1 -58.32,202.21 0,86.71 18.6,153.72 56.06,200.75 37.47,47.32 90.43,70.83 158.6,70.83 64.79,0 117.48,-25.57 157.76,-76.42 40,-50.85 60.28,-118.15 60.28,-202.21zm-5.07 -924.06l179.16 0 0 1334.95 -179.16 0 0 -105.51c-31.83,46.73 -69.3,81.7 -111.83,104.63 -42.83,22.92 -91.56,34.39 -146.77,34.39 -110.43,0 -197.76,-39.39 -261.14,-118.45 -63.66,-78.77 -95.49,-186.93 -95.49,-324.19 0,-130.2 32.39,-235.42 97.46,-315.37 65.07,-80.23 149.87,-120.21 254.38,-120.21 63.94,0 118.59,13.82 163.95,41.74 45.35,27.63 78.59,67.6 99.44,119.62l0 -651.6z"/>
  <path id="_3" class="fil3" d="M3050.85 10248.28c0,-75.83 -23.38,-140.2 -70.14,-192.81 -46.77,-52.61 -103.96,-78.77 -171.57,-78.77 -67.04,0 -124.22,26.16 -171.27,78.77 -47.04,52.61 -70.42,116.98 -70.42,192.81 0,75.83 23.38,140.2 70.42,192.81 47.05,52.61 104.23,78.77 171.27,78.77 67.05,0 124.24,-26.16 171.28,-78.77 47.05,-52.61 70.43,-116.98 70.43,-192.81zm-672.7 -1.76c0,-59.67 10.98,-116.1 32.67,-169 21.69,-53.2 52.96,-100.52 93.53,-141.67 40.28,-40.85 86.48,-72.01 138.88,-94.05 52.39,-21.75 107.05,-32.63 164.23,-32.63 58.88,0 114.37,10.88 166.48,32.63 51.83,22.04 98.6,54.08 140.01,96.4 41.13,42.03 72.39,89.35 94.08,142.26 21.42,52.61 32.12,108.16 32.12,166.06 0,60.25 -10.7,116.97 -31.83,169.58 -21.13,52.91 -52.12,99.64 -92.96,140.49 -42.82,42.92 -90.43,75.54 -142.83,97.58 -52.11,22.05 -107.33,33.22 -165.07,33.22 -56.63,0 -111.28,-11.17 -163.39,-33.22 -52.4,-22.04 -98.87,-54.08 -139.72,-95.81 -41.13,-42.62 -72.41,-90.23 -94.1,-143.14 -21.41,-52.61 -32.1,-109.04 -32.1,-168.7z"/>
  <path id="_4" class="fil3" d="M4044.41 10248.28c0,-75.83 -23.38,-140.2 -70.14,-192.81 -46.76,-52.61 -103.95,-78.77 -171.56,-78.77 -67.05,0 -124.23,26.16 -171.28,78.77 -47.04,52.61 -70.42,116.98 -70.42,192.81 0,75.83 23.38,140.2 70.42,192.81 47.05,52.61 104.23,78.77 171.28,78.77 67.04,0 124.23,-26.16 171.27,-78.77 47.05,-52.61 70.43,-116.98 70.43,-192.81zm-672.7 -1.76c0,-59.67 10.98,-116.1 32.67,-169 21.69,-53.2 52.97,-100.52 93.53,-141.67 40.28,-40.85 86.48,-72.01 138.88,-94.05 52.4,-21.75 107.05,-32.63 164.23,-32.63 58.88,0 114.37,10.88 166.48,32.63 51.84,22.04 98.6,54.08 140.02,96.4 41.12,42.03 72.39,89.35 94.08,142.26 21.41,52.61 32.11,108.16 32.11,166.06 0,60.25 -10.7,116.97 -31.83,169.58 -21.13,52.91 -52.12,99.64 -92.96,140.49 -42.82,42.92 -90.43,75.54 -142.82,97.58 -52.12,22.05 -107.33,33.22 -165.08,33.22 -56.62,0 -111.28,-11.17 -163.39,-33.22 -52.4,-22.04 -98.87,-54.08 -139.72,-95.81 -41.13,-42.62 -72.4,-90.23 -94.09,-143.14 -21.41,-52.61 -32.11,-109.04 -32.11,-168.7z"/>
  <path id="_5" class="fil3" d="M4601.9 9967.89c19.43,-54.08 44.79,-94.06 76.34,-119.92 31.84,-25.86 70.99,-38.8 118.03,-38.8 25.36,0 50.15,3.24 74.65,9.41 24.51,6.17 48.74,15.58 72.41,27.33l-64.52 159.01c-15.5,-11.46 -32.12,-19.99 -49.86,-25.28 -18.02,-5.58 -38.03,-8.23 -60.01,-8.23 -59.72,0 -102.25,24.69 -128.17,74.36 -25.92,49.67 -38.87,133.15 -38.87,250.12l0 357.99 -179.17 0 0 -818.25 179.17 0 0 132.26z"/>
  <path id="_6" class="fil4" d="M5629.83 10070.17c-27.61,-31.45 -59.44,-55.55 -96.07,-72.01 -36.62,-16.75 -76.05,-24.98 -118.59,-24.98 -72.96,0 -131.55,24.69 -175.79,74.06 -43.94,49.38 -65.91,114.63 -65.91,196.34 0,84.94 22.26,151.66 66.48,200.15 44.23,48.5 105.36,72.6 183.67,72.6 43.39,0 82.26,-8.52 116.34,-25.28 34.09,-17.04 63.95,-42.62 89.87,-77l0 215.14c-32.96,19.4 -68.45,33.8 -106.21,43.5 -37.46,9.7 -77.75,14.7 -120,14.7 -122.82,0 -222.83,-40.86 -300.01,-122.27 -77.47,-81.42 -116.06,-187.22 -116.06,-316.84 0,-131.38 40,-237.48 120,-318.01 80.29,-80.83 184.8,-121.1 314.38,-121.1 40.56,0 78.03,4.12 112.12,12.64 34.08,8.23 66.2,21.16 95.78,38.5l0 209.86z"/>
  <path id="_7" class="fil4" d="M6549.58 10653.88l-179.16 0 0 -105.51c-31.83,46.73 -69.3,81.7 -111.83,104.63 -42.83,22.92 -91.56,34.39 -146.77,34.39 -110.43,0 -197.76,-39.39 -261.14,-118.45 -63.66,-78.77 -95.49,-186.93 -95.49,-324.19 0,-130.2 32.39,-235.42 97.46,-315.37 65.07,-80.23 149.86,-120.21 254.37,-120.21 63.95,0 118.6,13.82 163.96,41.74 45.35,27.63 78.59,67.6 99.44,119.62l0 -133.14 179.16 0 0 816.49zm-174.09 -410.89c0,-84.35 -18.87,-150.19 -56.62,-197.22 -37.75,-47.32 -90.43,-70.83 -158.04,-70.83 -67.89,0 -121.13,24.4 -159.72,72.89 -38.88,48.5 -58.32,116.1 -58.32,202.21 0,86.71 18.6,153.72 56.06,200.75 37.47,47.32 90.43,70.83 158.6,70.83 64.51,0 116.91,-25.57 157.2,-76.71 40.56,-51.14 60.84,-118.45 60.84,-201.92z"/>
  <path id="_8" class="fil4" d="M6975.52 9967.89c19.44,-54.08 44.8,-94.06 76.34,-119.92 31.84,-25.86 70.99,-38.8 118.03,-38.8 25.36,0 50.15,3.24 74.66,9.41 24.51,6.17 48.73,15.58 72.4,27.33l-64.51 159.01c-15.5,-11.46 -32.12,-19.99 -49.86,-25.28 -18.03,-5.58 -38.03,-8.23 -60.01,-8.23 -59.72,0 -102.26,24.69 -128.18,74.36 -25.91,49.67 -38.87,133.15 -38.87,250.12l0 357.99 -179.17 0 0 -818.25 179.17 0 0 132.26z"/>
  <path id="_9" class="fil4" d="M8172.48 10272.97l-625.39 0c4.51,76.42 26.2,136.08 65.36,178.99 38.88,42.91 90.99,64.37 156.06,64.37 57.75,0 105.92,-12.64 144.23,-37.92 38.59,-25.27 72.12,-66.13 100.85,-122.56l150.43 87.88c-43.94,82.3 -98.32,143.14 -163.39,183.4 -64.79,40.27 -141.13,60.26 -228.45,60.26 -125.65,0 -225.37,-39.98 -299.74,-119.63 -74.09,-79.94 -111.27,-186.34 -111.27,-319.48 0,-128.15 38.31,-233.07 115.22,-315.66 76.62,-82.3 175.21,-123.45 295.79,-123.45 125.91,0 224.23,37.62 294.65,112.87 70.43,74.94 105.65,180.46 105.65,315.66l0 35.27zm-185.94 -125.21c-7.03,-58.49 -28.44,-103.16 -64.22,-133.73 -35.78,-30.86 -84.8,-46.14 -146.77,-46.14 -58.88,0 -106.2,14.99 -141.98,44.67 -35.49,29.98 -60.56,74.95 -74.93,135.2l427.9 0z"/>
 </g>
</svg>
