<svg width="31" height="31" viewBox="0 0 31 31" fill="none" xmlns="http://www.w3.org/2000/svg">
<path d="M14.2051 18.7162C14.2051 18.3569 14.3478 18.0122 14.6019 17.7582C14.856 17.5041 15.2006 17.3613 15.5599 17.3613C15.9193 17.3613 16.2639 17.5041 16.518 17.7582C16.7721 18.0122 16.9148 18.3569 16.9148 18.7162C16.9148 19.0755 16.7721 19.4201 16.518 19.6742C16.2639 19.9283 15.9193 20.0711 15.5599 20.0711C15.2006 20.0711 14.856 19.9283 14.6019 19.6742C14.3478 19.4201 14.2051 19.0755 14.2051 18.7162Z" fill="#334155"/>
<path fill-rule="evenodd" clip-rule="evenodd" d="M15.5607 15.7354C14.4827 15.7354 13.4489 16.1636 12.6866 16.9258C11.9243 17.6881 11.4961 18.722 11.4961 19.8C11.4961 20.878 11.9243 21.9118 12.6866 22.6741C13.4489 23.4363 14.4827 23.8646 15.5607 23.8646C16.6387 23.8646 17.6725 23.4363 18.4348 22.6741C19.1971 21.9118 19.6253 20.878 19.6253 19.8C19.6253 18.722 19.1971 17.6881 18.4348 16.9258C17.6725 16.1636 16.6387 15.7354 15.5607 15.7354ZM12.038 19.8C12.0381 19.2172 12.1826 18.6435 12.4589 18.1304C12.7351 17.6172 13.1343 17.1806 13.6207 16.8597C14.1072 16.5387 14.6656 16.3435 15.2461 16.2914C15.8265 16.2394 16.4108 16.3321 16.9466 16.5614C17.4823 16.7907 17.9529 17.1493 18.316 17.6051C18.6791 18.0609 18.9234 18.5997 19.0271 19.1732C19.1308 19.7467 19.0906 20.3369 18.9102 20.891C18.7297 21.4451 18.4145 21.9458 17.993 22.3482C17.9525 21.8747 17.7358 21.4337 17.3858 21.1124C17.0357 20.791 16.5778 20.6128 16.1026 20.6129H15.0188C14.5436 20.6128 14.0857 20.791 13.7356 21.1124C13.3856 21.4337 13.1689 21.8747 13.1284 22.3482C12.7834 22.0196 12.5087 21.6242 12.3213 21.1862C12.1338 20.7481 12.0375 20.2765 12.038 19.8Z" fill="#334155"/>
<mask id="path-3-inside-1_6328_3632" fill="white">
<path d="M4.03021 19.375C4.03021 16.5001 5.08685 13.7272 6.99607 11.5917L10.4112 14.6952C9.26324 15.9792 8.62792 17.6464 8.62792 19.375L4.03021 19.375Z"/>
</mask>
<path d="M4.03021 19.375C4.03021 16.5001 5.08685 13.7272 6.99607 11.5917L10.4112 14.6952C9.26324 15.9792 8.62792 17.6464 8.62792 19.375L4.03021 19.375Z" stroke="#334155" stroke-width="2" mask="url(#path-3-inside-1_6328_3632)"/>
<mask id="path-4-inside-2_6328_3632" fill="white">
<path d="M4.03021 19.375C4.03021 17.0758 4.70648 14.8282 5.9735 12.9165C7.24052 11.0048 9.04138 9.51477 11.1484 8.6349C13.2553 7.75503 15.5738 7.52482 17.8106 7.97337C20.0473 8.42193 22.1019 9.5291 23.7145 11.1549L20.4634 14.4325C19.4938 13.455 18.2585 12.7893 16.9136 12.5196C15.5687 12.2499 14.1747 12.3883 12.9078 12.9173C11.641 13.4464 10.5582 14.3423 9.79636 15.4917C9.03454 16.6412 8.62792 17.9926 8.62792 19.375L4.03021 19.375Z"/>
</mask>
<path d="M4.03021 19.375C4.03021 17.0758 4.70648 14.8282 5.9735 12.9165C7.24052 11.0048 9.04138 9.51477 11.1484 8.6349C13.2553 7.75503 15.5738 7.52482 17.8106 7.97337C20.0473 8.42193 22.1019 9.5291 23.7145 11.1549L20.4634 14.4325C19.4938 13.455 18.2585 12.7893 16.9136 12.5196C15.5687 12.2499 14.1747 12.3883 12.9078 12.9173C11.641 13.4464 10.5582 14.3423 9.79636 15.4917C9.03454 16.6412 8.62792 17.9926 8.62792 19.375L4.03021 19.375Z" stroke="#334155" stroke-width="2" mask="url(#path-4-inside-2_6328_3632)"/>
<mask id="path-5-inside-3_6328_3632" fill="white">
<path d="M4.03021 19.375C4.03021 17.8484 4.32846 16.3367 4.90794 14.9263C5.48741 13.5159 6.33677 12.2344 7.4075 11.1549C8.47823 10.0754 9.74938 9.21911 11.1484 8.6349C12.5473 8.05069 14.0468 7.75 15.561 7.75C17.0752 7.75 18.5747 8.05069 19.9736 8.6349C21.3726 9.21911 22.6438 10.0754 23.7145 11.1549C24.7852 12.2344 25.6346 13.5159 26.2141 14.9263C26.7935 16.3367 27.0918 17.8484 27.0918 19.375L22.4941 19.375C22.4941 18.4571 22.3148 17.5482 21.9663 16.7001C21.6179 15.8521 21.1072 15.0816 20.4634 14.4325C19.8196 13.7835 19.0553 13.2686 18.2142 12.9173C17.373 12.5661 16.4715 12.3853 15.561 12.3853C14.6505 12.3853 13.749 12.5661 12.9078 12.9173C12.0667 13.2686 11.3024 13.7835 10.6586 14.4325C10.0148 15.0816 9.50409 15.8521 9.15567 16.7001C8.80725 17.5482 8.62792 18.4571 8.62792 19.375L4.03021 19.375Z"/>
</mask>
<path d="M4.03021 19.375C4.03021 17.8484 4.32846 16.3367 4.90794 14.9263C5.48741 13.5159 6.33677 12.2344 7.4075 11.1549C8.47823 10.0754 9.74938 9.21911 11.1484 8.6349C12.5473 8.05069 14.0468 7.75 15.561 7.75C17.0752 7.75 18.5747 8.05069 19.9736 8.6349C21.3726 9.21911 22.6438 10.0754 23.7145 11.1549C24.7852 12.2344 25.6346 13.5159 26.2141 14.9263C26.7935 16.3367 27.0918 17.8484 27.0918 19.375L22.4941 19.375C22.4941 18.4571 22.3148 17.5482 21.9663 16.7001C21.6179 15.8521 21.1072 15.0816 20.4634 14.4325C19.8196 13.7835 19.0553 13.2686 18.2142 12.9173C17.373 12.5661 16.4715 12.3853 15.561 12.3853C14.6505 12.3853 13.749 12.5661 12.9078 12.9173C12.0667 13.2686 11.3024 13.7835 10.6586 14.4325C10.0148 15.0816 9.50409 15.8521 9.15567 16.7001C8.80725 17.5482 8.62792 18.4571 8.62792 19.375L4.03021 19.375Z" stroke="#334155" stroke-width="2" mask="url(#path-5-inside-3_6328_3632)"/>
<mask id="path-6-inside-4_6328_3632" fill="white">
<path d="M4.03021 19.375C4.03021 17.8484 4.32846 16.3367 4.90794 14.9263C5.48741 13.5159 6.33677 12.2344 7.4075 11.1549C8.47823 10.0754 9.74938 9.21911 11.1484 8.6349C12.5473 8.05069 14.0468 7.75 15.561 7.75L15.561 12.3853C14.6505 12.3853 13.749 12.5661 12.9078 12.9173C12.0667 13.2686 11.3024 13.7835 10.6586 14.4325C10.0148 15.0816 9.50409 15.8521 9.15567 16.7001C8.80725 17.5482 8.62792 18.4571 8.62792 19.375L4.03021 19.375Z"/>
</mask>
<path d="M4.03021 19.375C4.03021 17.8484 4.32846 16.3367 4.90794 14.9263C5.48741 13.5159 6.33677 12.2344 7.4075 11.1549C8.47823 10.0754 9.74938 9.21911 11.1484 8.6349C12.5473 8.05069 14.0468 7.75 15.561 7.75L15.561 12.3853C14.6505 12.3853 13.749 12.5661 12.9078 12.9173C12.0667 13.2686 11.3024 13.7835 10.6586 14.4325C10.0148 15.0816 9.50409 15.8521 9.15567 16.7001C8.80725 17.5482 8.62792 18.4571 8.62792 19.375L4.03021 19.375Z" stroke="#334155" stroke-width="2" mask="url(#path-6-inside-4_6328_3632)"/>
<path d="M13.1292 16.3327L12.3659 14.0473L13.7714 16.0044L13.1292 16.3327Z" stroke="#334155"/>
</svg>
