<svg width="31" height="31" viewBox="0 0 31 31" fill="none" xmlns="http://www.w3.org/2000/svg">
<path d="M4.0293 18.282L5.95207 17.6384C6.97943 17.2944 7.91295 16.7147 8.67869 15.9453C9.44442 15.1759 10.0213 14.238 10.3638 13.2058L11.0043 11.2739C11.0043 11.2739 12.748 10.1059 15.6543 10.1059C18.5605 10.1059 20.3043 11.2739 20.3043 11.2739L20.9448 13.2058C21.2872 14.238 21.8642 15.1759 22.6299 15.9453C23.3956 16.7147 24.3292 17.2944 25.3565 17.6384L27.2793 18.282M12.748 13.6099V19.45L7.80742 20.4428C7.56649 20.4931 7.34963 20.624 7.19216 20.814C7.03468 21.004 6.94588 21.2419 6.94022 21.4891C6.93456 21.7363 7.01237 21.9781 7.16098 22.1752C7.30958 22.3723 7.52023 22.513 7.7586 22.5744C9.27566 22.9622 12.6388 23.8534 15.6543 24.8988C18.7431 25.9687 21.4668 27.1998 21.4668 28.2101M18.5605 13.6099V19.45L23.5012 20.4428C23.7421 20.4931 23.959 20.624 24.1164 20.814C24.2739 21.004 24.3627 21.2419 24.3684 21.4891C24.374 21.7363 24.2962 21.9781 24.1476 22.1752C23.999 22.3723 23.7884 22.513 23.55 22.5744C22.4177 22.8641 20.2566 23.4341 17.9793 24.1396M13.3293 25.7713C11.3182 26.6029 9.8418 27.4649 9.8418 28.2101M15.4799 7.76982C15.4799 7.76982 13.6199 6.60181 13.6199 5.14179C13.6199 4.6003 13.834 4.08099 14.2151 3.6981C14.5962 3.3152 15.113 3.1001 15.652 3.1001C16.1909 3.1001 16.7078 3.3152 17.0888 3.6981C17.4699 4.08099 17.684 4.6003 17.684 5.14179C17.684 6.60181 15.8287 7.76982 15.8287 7.76982H15.4799Z" stroke="#334155"/>
</svg>
