<svg width="31" height="31" viewBox="0 0 31 31" fill="none" xmlns="http://www.w3.org/2000/svg">
<rect width="31" height="31" fill="white"/>
<path d="M27.2793 22.4039V23.2409L18.4222 25.3335L10.6722 23.7431V24.915H4.0293V15.7075H12.8864L19.7507 17.6327C20.8579 17.9675 21.7436 18.8883 21.7436 19.8927H23.9579C25.84 19.8927 27.2793 20.9809 27.2793 22.4039ZM8.45787 23.2409V17.3816H6.24358V23.2409H8.45787ZM24.9543 22.069C24.7329 21.7342 24.4007 21.5668 23.9579 21.5668H17.9793C17.4257 21.5668 16.7614 21.4831 16.2079 21.3994L13.6614 20.7298L14.3257 19.1394L16.9829 19.809C17.315 19.809 19.5293 19.8927 19.5293 19.8927C19.5293 19.5579 19.3079 19.3068 18.865 19.2231L12.4436 17.3816H10.6722V21.9853L18.4222 23.5757L24.9543 22.069Z" fill="#334155"/>
<path d="M22 5.58008V6.64312H24.2113L17.8054 12.9341L15.3698 10.5423L11.875 13.9743L12.6404 14.726L15.3698 12.0456L17.8054 14.4375L24.9768 7.39483V9.56649H26.0593V5.58008L22 5.58008Z" fill="#334155"/>
</svg>
